<svg version="1.1" xmlns="http://www.w3.org/2000/svg" xmlns:xlink="http://www.w3.org/1999/xlink" width="175.50001" height="181.12535" viewBox="0,0,175.50001,181.12535"><g transform="translate(-232.24999,-89.78665)"><g data-paper-data="{&quot;isPaintingLayer&quot;:true}" fill-rule="nonzero" stroke="#000000" stroke-width="4" stroke-linecap="butt" stroke-linejoin="miter" stroke-miterlimit="10" stroke-dasharray="" stroke-dashoffset="0" style="mix-blend-mode: normal"><path d="M340.09511,267.56171l-23.01925,-30.93592l23.01925,-30.93592l23.01925,30.93592z" data-paper-data="{&quot;index&quot;:null}" fill="#797979"/><path d="M380.51177,259.64505l-23.01926,-30.93592l23.01926,-30.93592l23.01926,30.93592z" data-paper-data="{&quot;index&quot;:null}" fill="#797979"/><path d="M276.65919,236.62579l23.01925,-30.93592l23.01926,30.93592l-23.01926,30.93592z" fill="#797979"/><path d="M236.24252,228.70913l23.01926,-30.93592l23.01925,30.93592l-23.01925,30.93592z" fill="#797979"/><path d="M319.65463,153.75079l86.09537,14.5v58.5l-87.09537,-14.5l-84.40463,14.5v-58.5z" data-paper-data="{&quot;index&quot;:null}" fill="#ffffff"/><path d="M234.25001,227.75079v-58.5l84.40463,14l87.09537,-14v58.5l-86.09537,14z" fill="#ffffff"/><path d="M234.59213,168.50079c0.05044,-1.84194 84.375,-76.0625 84.375,-76.0625c0,0 86.77422,74.71348 86.125,76.3125c-0.82177,2.02401 -86.4375,14.6875 -86.4375,14.6875c0,0 -84.11229,-13.11935 -84.0625,-14.9375z" fill-opacity="0.38824" fill="#ffffff"/></g></g></svg>