<svg version="1.1" xmlns="http://www.w3.org/2000/svg" xmlns:xlink="http://www.w3.org/1999/xlink" width="37.49105" height="40.86571" viewBox="0,0,37.49105,40.86571"><g transform="translate(-301.58314,-160.69356)"><g data-paper-data="{&quot;isPaintingLayer&quot;:true}" fill-rule="nonzero" stroke-width="2" stroke-linejoin="miter" stroke-miterlimit="10" stroke-dasharray="" stroke-dashoffset="0" style="mix-blend-mode: normal"><path d="M323.23066,196.31399c-0.00678,-3.37404 2.89691,-6.11438 6.48558,-6.12075c3.58866,-0.00637 6.50333,2.72365 6.5101,6.0977c0.00678,3.37404 -2.90173,3.72109 -6.49037,3.72745c-3.58866,0.00637 -6.49853,-0.33036 -6.50531,-3.7044z" fill="#adadad" stroke="#000000" stroke-linecap="butt"/><path d="M308.35861,193.80778c-2.22905,-1.35253 -2.81962,-22.47459 -0.47142,-25.2478c2.23374,-2.63804 22.29678,-2.13162 24.11278,0.37984c1.27404,1.76194 1.30939,21.86978 -0.37984,24.11278c-1.98232,2.63215 -21.13203,2.04728 -23.26152,0.75518z" fill="#c7c7c7" stroke="#000000" stroke-linecap="butt"/><path d="M307.56251,169.39455c1.46415,-6.24588 16.0231,-7.51953 16.0231,-7.51953c0,0 -2.29498,3.32504 1.81828,4.47945c6.10755,-3.47738 12.03362,0.87891 12.03362,0.87891l-4.96382,4.01665" fill="#c7c7c7" stroke="#000000" stroke-linecap="round"/><g fill="#000000" stroke="none" stroke-linecap="butt"><path d="M323.18164,181.59881c-0.06293,3.99513 -1.49341,7.21209 -3.19502,7.18528c-1.70162,-0.0268 -3.03006,-3.28723 -2.96713,-7.28236c0.06293,-3.99513 1.49341,-7.21209 3.19502,-7.18528c1.70162,0.0268 3.03006,3.28723 2.96713,7.28236z"/><path d="M330.28574,181.44275c-0.06293,3.99513 -1.22351,7.21635 -2.59221,7.19479c-1.3687,-0.02157 -2.42725,-3.27773 -2.36432,-7.27287c0.06293,-3.99513 1.22352,-7.21635 2.5922,-7.1948c1.3687,0.02157 2.42723,3.27774 2.3643,7.27286z"/></g><path d="M302.58314,196.5904c0.08486,-3.45906 3.06202,-6.19685 6.64969,-6.11504c3.58766,0.08183 6.42726,2.95225 6.34238,6.4113c-0.08486,3.45906 -3.00183,3.74323 -6.5895,3.66141c-3.58766,-0.08183 -6.48744,-0.49864 -6.40258,-3.95768z" fill="#adadad" stroke="#000000" stroke-linecap="butt"/></g></g></svg>