<svg version="1.1" xmlns="http://www.w3.org/2000/svg" xmlns:xlink="http://www.w3.org/1999/xlink" width="48.73915" height="48.74074" viewBox="0,0,48.73915,48.74074"><defs><radialGradient cx="320.00054" cy="179.99974" r="24.37037" gradientUnits="userSpaceOnUse" id="color-1"><stop offset="0" stop-color="#c7c7c7"/><stop offset="1" stop-color="#c7c7c7" stop-opacity="0"/></radialGradient></defs><g transform="translate(-295.63096,-155.62937)"><g data-paper-data="{&quot;isPaintingLayer&quot;:true}" fill-rule="nonzero" stroke="none" stroke-linecap="butt" stroke-linejoin="miter" stroke-miterlimit="10" stroke-dasharray="" stroke-dashoffset="0" style="mix-blend-mode: normal"><path d="M295.74906,177.53218c0.07928,-0.77901 6.16385,-0.93823 6.31303,-1.69113c2.41577,-12.19164 7.79133,-21.37552 20.40568,-20.09183c0.81534,0.08297 0.97173,6.54775 1.75839,6.70722c12.13573,2.46003 21.30457,7.43347 20.02457,20.0115c-0.14896,1.46379 -6.2696,2.28927 -6.65981,3.65633c-3.18011,11.1412 -8.12933,19.34064 -20.0589,18.12663c-0.82605,-0.08406 -0.87891,-7.67024 -1.67551,-7.83279c-12.11923,-2.47301 -21.38636,-6.31861 -20.10745,-18.88592z" fill="url(#color-1)" stroke-width="NaN"/><path d="M299.6875,180c0,-0.6525 5.03077,-1.29781 5.09093,-1.93457c0.97417,-10.31086 4.65579,-18.37793 15.22157,-18.37793c0.68292,0 1.35797,5.3462 2.02358,5.41203c10.26823,1.01558 18.28892,4.36511 18.28892,14.90047c0,1.22607 -5.00446,2.42677 -5.21262,3.593c-1.69644,9.50451 -5.10767,16.7195 -15.09988,16.7195c-0.6919,0 -1.37572,-6.28459 -2.04983,-6.35215c-10.25565,-1.02773 -18.26267,-3.43398 -18.26267,-13.96035z" fill="#c7c7c7" stroke-width="NaN"/></g></g></svg>