<svg version="1.1" xmlns="http://www.w3.org/2000/svg" xmlns:xlink="http://www.w3.org/1999/xlink" width="176.17045" height="181.10392" viewBox="0,0,176.17045,181.10392"><g transform="translate(-231.91466,-89.80808)"><g data-paper-data="{&quot;isPaintingLayer&quot;:true}" fill-rule="nonzero" stroke="#000000" stroke-width="4" stroke-linecap="butt" stroke-linejoin="miter" stroke-miterlimit="10" stroke-dasharray="" stroke-dashoffset="0" style="mix-blend-mode: normal"><path d="M238.39622,229.95913l23.01926,-30.93592l23.01926,30.93592l-23.01926,30.93592z" data-paper-data="{&quot;index&quot;:null}" fill="#797979"/><path d="M323.49881,267.56171l-23.01926,-30.93592l23.01926,-30.93592l23.01925,30.93592z" data-paper-data="{&quot;index&quot;:null}" fill="#797979"/><path d="M370.58214,261.31172l-23.01925,-30.93592l23.01925,-30.93592l23.01926,30.93592z" data-paper-data="{&quot;index&quot;:null}" fill="#797979"/><path d="M255.47957,234.54246l23.01925,-30.93592l23.01925,30.93592l-23.01925,30.93592z" data-paper-data="{&quot;index&quot;:null}" fill="#797979"/><path d="M405.26782,171.32144l0.32609,55.42935l-76.90463,-14.5l-94.59537,14.5l0.15625,-63.34375l108.43912,-9.65625z" data-paper-data="{&quot;index&quot;:null}" fill="#ffffff"/><path d="M289.7726,243.00079l-55.67871,-15.25l0.15625,-63.34375l53.60579,18.84375l117.41188,-10.92935l0.32609,55.42935z" data-paper-data="{&quot;index&quot;:null}" fill="#ffffff"/><path d="M289.10596,183.85496c0,0 -54.36573,-18.08016 -55.1875,-20.10417c-0.64922,-1.59902 82.31547,-71.3125 82.31547,-71.3125c0,0 89.80075,77.97056 89.85119,79.8125c0.04979,1.81815 -116.97916,11.60417 -116.97916,11.60417z" data-paper-data="{&quot;index&quot;:null}" fill-opacity="0.38824" fill="#ffffff"/></g></g></svg>