<svg version="1.1" xmlns="http://www.w3.org/2000/svg" xmlns:xlink="http://www.w3.org/1999/xlink" width="238.64781" height="81.76987" viewBox="0,0,238.64781,81.76987"><g transform="translate(-162.5146,-74.80568)"><g data-paper-data="{&quot;isPaintingLayer&quot;:true}" fill-rule="nonzero" stroke-linejoin="miter" stroke-miterlimit="10" stroke-dasharray="" stroke-dashoffset="0" style="mix-blend-mode: normal"><path d="M164.5146,137.54861c0,-22.44197 0,-32.56887 0,-44.80613c0,-9.42067 7.14897,-15.9368 16.56964,-15.9368c12.56098,0 27.81473,0 49.86026,0c9.96351,0 15.7174,6.98836 15.7174,16.95186c0,12.32806 0,21.48128 0,43.62188c0,10.33737 -6.39509,17.19613 -16.73247,17.19613c-12.41993,0 -26.7162,0 -48.84519,0c-9.8399,0 -16.56964,-3.38219 -16.56964,-17.02695z" fill="#aaadc2" stroke="#000000" stroke-width="4" stroke-linecap="butt"/><g><path d="M175.55622,121.73984l21.49088,-36.39122l36.39122,21.49088l-21.49088,36.39122z" fill="#ffe7ab" stroke="#a78b46" stroke-width="2" stroke-linecap="butt"/><path d="M190.78748,112.17493c0.12679,-0.82185 3.71323,0.21017 3.97251,-0.55049c2.12924,-6.24684 5.10188,-12.08463 11.85119,-11.04339c0.51609,0.07962 -0.59116,3.72805 -0.09845,3.86094c6.73544,1.81652 12.78075,4.90769 11.69234,11.96276c-0.07494,0.48575 -3.44913,0.69335 -3.57134,1.15845c-1.78264,6.78424 -5.16694,11.52853 -12.25235,10.43544c-0.63625,-0.09816 0.63227,-3.26313 0.032,-3.44163c-6.54271,-1.94558 -12.69577,-5.44715 -11.62589,-12.38206z" fill-opacity="0.32941" fill="#545454" stroke="#000000" stroke-width="0" stroke-linecap="butt"/><path d="M190.62629,114.28967c0,-0.83157 3.70187,-0.35844 3.84213,-1.14974c1.15189,-6.49844 3.19968,-12.72123 10.02884,-12.72123c0.5222,0 -0.01583,3.7746 0.49138,3.83081c6.93365,0.76833 13.37959,2.90163 13.37959,10.04016c0,0.4915 -3.30309,1.21113 -3.35296,1.68943c-0.72741,6.97671 -3.34878,12.18154 -10.51801,12.18154c-0.64378,0 0.12735,-3.32139 -0.49312,-3.40627c-6.76286,-0.92526 -13.37785,-3.44775 -13.37785,-10.46469z" fill="#838383" stroke="#000000" stroke-width="0" stroke-linecap="butt"/><path d="M214.07187,113.62061c0,0 -1.36546,-2.97673 -4.5995,-4.86216c-2.54019,-1.48091 -7.71721,-2.94973 -7.71721,-2.94973c0,0 6.20907,0.31391 8.33533,1.66249c1.96688,1.2475 3.98139,6.1494 3.98139,6.1494z" fill="#bababa" stroke="#000000" stroke-width="0" stroke-linecap="butt"/><path d="M198.15056,89.84906l3.87755,14.18367" fill="none" stroke-opacity="0.52549" stroke="#c2a251" stroke-width="1" stroke-linecap="round"/><path d="M180.4975,120.97151l20.10204,-12.85714" fill="none" stroke-opacity="0.52549" stroke="#c2a251" stroke-width="1" stroke-linecap="round"/><path d="M210.80362,139.54294l-6.83673,-29.08163" fill="none" stroke-opacity="0.52549" stroke="#c2a251" stroke-width="1" stroke-linecap="round"/><path d="M228.15056,108.11437l-23.06122,-1.22449" fill="none" stroke-opacity="0.52549" stroke="#c2a251" stroke-width="1" stroke-linecap="round"/></g><text transform="translate(259.45972,98.64644) scale(0.5,0.5)" font-size="40" xml:space="preserve" fill="#ffffff" fill-rule="nonzero" stroke="#ffffff" stroke-width="1" stroke-linecap="butt" stroke-linejoin="miter" stroke-miterlimit="10" stroke-dasharray="" stroke-dashoffset="0" font-family="Sans Serif" font-weight="normal" text-anchor="start" style="mix-blend-mode: normal"><tspan x="0" dy="0">Whirl Stone</tspan></text><text transform="translate(259.45973,108.51319) scale(0.16872,0.16872)" font-size="40" xml:space="preserve" fill="#c5c5c5" fill-rule="nonzero" stroke="#ffffff" stroke-width="0" stroke-linecap="butt" stroke-linejoin="miter" stroke-miterlimit="10" stroke-dasharray="" stroke-dashoffset="0" font-family="Sans Serif" font-weight="normal" text-anchor="start" style="mix-blend-mode: normal"><tspan x="0" dy="0">A shiny gem with a whirl pattern inside. You</tspan><tspan x="0" dy="46.15px">can feel a slight vibration while holding it.</tspan></text><text transform="translate(259.45973,130.39892) scale(0.14615,0.14615)" font-size="40" xml:space="preserve" fill="#1fff00" fill-rule="nonzero" stroke="#ffffff" stroke-width="0" stroke-linecap="butt" stroke-linejoin="miter" stroke-miterlimit="10" stroke-dasharray="" stroke-dashoffset="0" font-family="Sans Serif" font-weight="normal" text-anchor="start" style="mix-blend-mode: normal"><tspan x="0" dy="0">+ [ABILITY] DASH</tspan><tspan x="0" dy="46.15px">+   [PERK]    SPEED</tspan></text><text transform="translate(260.48537,145.5852) scale(0.13171,0.13171)" font-size="40" xml:space="preserve" fill="#ff0000" fill-rule="nonzero" stroke="#ffffff" stroke-width="0" stroke-linecap="butt" stroke-linejoin="miter" stroke-miterlimit="10" stroke-dasharray="" stroke-dashoffset="0" font-family="Sans Serif" font-weight="normal" text-anchor="start" style="mix-blend-mode: normal"><tspan x="0" dy="0">- INCREASED KNOCKBACK WHEN TAKING DAMAGE</tspan></text></g></g></svg>