<svg version="1.1" xmlns="http://www.w3.org/2000/svg" xmlns:xlink="http://www.w3.org/1999/xlink" width="52.60918" height="40.27307" viewBox="0,0,52.60918,40.27307"><defs><radialGradient cx="344.30399" cy="190.36959" r="8.31709" gradientUnits="userSpaceOnUse" id="color-1"><stop offset="0" stop-color="#ffff00" stop-opacity="0.54118"/><stop offset="1" stop-color="#ffff00" stop-opacity="0"/></radialGradient></defs><g transform="translate(-300.01358,-160.96541)"><g data-paper-data="{&quot;isPaintingLayer&quot;:true}" fill-rule="nonzero" stroke-linejoin="miter" stroke-miterlimit="10" stroke-dasharray="" stroke-dashoffset="0" style="mix-blend-mode: normal"><path d="M330.98113,185.71108c3.27886,-1.7645 7.45761,-0.36743 9.33354,3.12044c1.87592,3.48786 0.73863,7.74572 -2.54024,9.51022c-3.27886,1.7645 -5.13184,-0.88419 -7.00774,-4.37203c-1.87592,-3.48786 -3.06441,-6.49413 0.21445,-8.25863z" fill="#adadad" stroke="#000000" stroke-width="2" stroke-linecap="butt"/><path d="M336.95137,194.25709c-2.14701,-4.06075 -0.59562,-9.09312 3.46513,-11.24012c4.06075,-2.14701 9.09313,-0.59562 11.24014,3.46512c2.14701,4.06075 0.59561,9.09312 -3.46513,11.24013c-4.06075,2.14701 -9.09312,0.59562 -11.24012,-3.46513z" fill="url(#color-1)" stroke="none" stroke-width="NaN" stroke-linecap="butt"/><path d="M307.4767,192.98172c-2.12859,-1.50569 -1.23481,-22.61709 1.3023,-25.2186c2.41344,-2.47471 22.39142,-0.56099 24.02661,2.07177c1.1472,1.84704 -0.22924,21.90774 -2.07177,24.02661c-2.16222,2.48648 -21.22362,0.55863 -23.25714,-0.87979z" fill="#c7c7c7" stroke="#000000" stroke-width="2" stroke-linecap="butt"/><g fill="#000000" stroke="none" stroke-width="0" stroke-linecap="butt"><path d="M323.1203,181.84353c-0.34326,3.98085 -1.99606,7.08945 -3.69159,6.94324c-1.69554,-0.1462 -2.7918,-3.49185 -2.44854,-7.4727c0.34326,-3.98085 1.99606,-7.08945 3.69159,-6.94324c1.69554,0.1462 2.7918,3.49185 2.44854,7.4727z"/><path d="M330.21782,182.18661c-0.34326,3.98085 -1.72712,7.11265 -3.09093,6.99505c-1.36381,-0.11761 -2.19114,-3.44005 -1.84789,-7.42091c0.34326,-3.98085 1.72713,-7.11264 3.09092,-6.99506c1.36381,0.11761 2.19112,3.44006 1.84787,7.4209z"/></g><path d="M302.85927,188.98905c2.9982,-1.72716 6.8852,-0.60902 8.68187,2.49743c1.79665,3.10645 0.82264,7.02486 -2.17557,8.752c-2.9982,1.72716 -4.75848,-0.61611 -6.55515,-3.72256c-1.79665,-3.10645 -2.94935,-5.79973 0.04884,-7.52688z" fill="#adadad" stroke="#000000" stroke-width="2" stroke-linecap="butt"/><path d="M308.15833,169.09792c1.65864,-6.19707 16.25027,-7.01509 16.25027,-7.01509c0,0 -2.39777,3.25169 1.6774,4.53408c6.21324,-3.28481 12.00027,1.25456 12.00027,1.25456l-5.08693,3.85955" fill="#c7c7c7" stroke="#000000" stroke-width="2" stroke-linecap="round"/></g></g></svg>