<svg version="1.1" xmlns="http://www.w3.org/2000/svg" xmlns:xlink="http://www.w3.org/1999/xlink" width="43.78238" height="36.48975" viewBox="0,0,43.78238,36.48975"><g transform="translate(-297.43376,-164.3683)"><g data-paper-data="{&quot;isPaintingLayer&quot;:true}" fill-rule="nonzero" stroke-linejoin="miter" stroke-miterlimit="10" stroke-dasharray="" stroke-dashoffset="0" style="mix-blend-mode: normal"><path d="M327.22046,187.53646c-0.00678,-3.37404 2.89691,-6.11438 6.48558,-6.12075c3.58866,-0.00637 6.50333,2.72365 6.5101,6.0977c0.00678,3.37404 -2.90173,3.72109 -6.49037,3.72745c-3.58866,0.00637 -6.49853,-0.33036 -6.50531,-3.7044z" fill="#814545" stroke="#000000" stroke-width="2" stroke-linecap="butt"/><path d="M308.35863,192.37146c-2.22905,-1.35253 -2.81962,-22.47459 -0.47142,-25.2478c2.23374,-2.63804 22.29678,-2.13162 24.11278,0.37984c1.27404,1.76194 1.30939,21.86978 -0.37984,24.11278c-1.98232,2.63215 -21.13203,2.04728 -23.26152,0.75518z" fill="#c76969" stroke="#000000" stroke-width="2" stroke-linecap="butt"/><g fill="#000000" stroke="none" stroke-width="2" stroke-linecap="butt"><path d="M323.18165,180.16249c-0.06293,3.99513 -1.49341,7.21209 -3.19502,7.18528c-1.70162,-0.0268 -3.03006,-3.28723 -2.96713,-7.28236c0.06293,-3.99513 1.49341,-7.21209 3.19502,-7.18528c1.70162,0.0268 3.03006,3.28723 2.96713,7.28236z"/><path d="M330.28575,180.00643c-0.06293,3.99513 -1.22351,7.21635 -2.59221,7.19479c-1.3687,-0.02157 -2.42725,-3.27773 -2.36432,-7.27287c0.06293,-3.99513 1.22352,-7.21635 2.5922,-7.1948c1.3687,0.02157 2.42723,3.27774 2.3643,7.27286z"/></g><path d="M298.43376,195.88918c0.08486,-3.45906 3.06202,-6.19685 6.64969,-6.11504c3.58766,0.08183 6.42726,2.95225 6.34238,6.4113c-0.08486,3.45906 -3.00183,3.74323 -6.5895,3.66141c-3.58766,-0.08183 -6.48744,-0.49864 -6.40258,-3.95768z" fill="#814545" stroke="#000000" stroke-width="2" stroke-linecap="butt"/><path d="M329.78434,173.14309l-5.43347,4.51613l-6.42137,-4.35484" fill="none" stroke="#c76969" stroke-width="4" stroke-linecap="round"/></g></g></svg>