<svg version="1.1" xmlns="http://www.w3.org/2000/svg" xmlns:xlink="http://www.w3.org/1999/xlink" width="36.61792" height="52.86745" viewBox="0,0,36.61792,52.86745"><defs><linearGradient x1="319.5984" y1="185.89543" x2="319.5984" y2="196.21458" gradientUnits="userSpaceOnUse" id="color-1"><stop offset="0" stop-color="#00f5ff" stop-opacity="0"/><stop offset="1" stop-color="#00f5ff"/></linearGradient></defs><g transform="translate(-301.83244,-148.40853)"><g data-paper-data="{&quot;isPaintingLayer&quot;:true}" fill-rule="nonzero" stroke-linejoin="miter" stroke-miterlimit="10" stroke-dasharray="" stroke-dashoffset="0" style="mix-blend-mode: normal"><path d="M309.27925,196.21458l-7.44681,-12.12766l35.53192,0.60701l-5.85107,11.52065z" fill="url(#color-1)" stroke="none" stroke-width="0" stroke-linecap="butt"/><path d="M309.52063,185.10193c-1.16664,-0.9357 1.48289,-9.02965 1.40032,-17.05808c-0.07519,-7.31112 -2.99093,-14.56792 -1.87174,-16.31506c2.23374,-3.48702 22.29678,-2.81762 24.11278,0.50208c0.64044,1.17073 4.33522,8.46921 4.28793,15.81558c-0.04679,7.26795 -3.82768,14.58279 -4.66777,16.05726c-1.98232,3.47924 -21.13203,2.70615 -23.26152,0.99822z" fill="#c7c7c7" stroke="#000000" stroke-width="2" stroke-linecap="butt"/><path d="M308.7043,200.27598c-2.22905,-0.3898 -2.81962,-6.47722 -0.47142,-7.27646c2.23374,-0.76029 22.29678,-0.61434 24.11278,0.10947c1.27404,0.50779 1.30939,6.30291 -0.37984,6.94935c-1.98232,0.75859 -21.13203,0.59003 -23.26152,0.21764z" fill="#c7c7c7" stroke="#000000" stroke-width="2" stroke-linecap="butt"/><g fill="none" stroke="#969696" stroke-width="0.5" stroke-linecap="round"><path d="M321.10453,177.08701l3.69046,-7.56738"/><path d="M328.25704,171.208l-3.69046,7.56738"/><path d="M329.30866,174.26171l-7.56738,-3.69046"/><path d="M327.62029,177.72375l-7.56737,-3.69046"/></g><g fill="none" stroke="#969696" stroke-width="0.5" stroke-linecap="round"><path d="M313.7942,166.27917l-0.17918,-8.26666"/><path d="M316.15014,166.80398l-0.17918,-8.26666"/><path d="M317.41642,161.09082l-5.14966,-1.14711"/><path d="M317.49839,164.87278l-5.14965,-1.14711"/></g><g fill="none" stroke="#969696" stroke-width="0.5" stroke-linecap="round"><path d="M325.78588,161.81415l0.46734,-8.33911"/><path d="M329.51081,153.91309l-0.46734,8.33911"/><path d="M331.31549,156.43481l-7.12049,-0.95749"/><path d="M323.98119,159.29242l7.12048,0.95749"/></g></g></g></svg>