<svg version="1.1" xmlns="http://www.w3.org/2000/svg" xmlns:xlink="http://www.w3.org/1999/xlink" width="29.12377" height="96.43305" viewBox="0,0,29.12377,96.43305"><defs><radialGradient cx="319.99999" cy="180.00002" r="14.56236" gradientUnits="userSpaceOnUse" id="color-1"><stop offset="0" stop-color="#c7c7c7"/><stop offset="1" stop-color="#c7c7c7" stop-opacity="0"/></radialGradient></defs><g transform="translate(-305.43811,-131.78347)"><g data-paper-data="{&quot;isPaintingLayer&quot;:true}" fill-rule="nonzero" stroke="none" stroke-linecap="butt" stroke-linejoin="miter" stroke-miterlimit="10" stroke-dasharray="" stroke-dashoffset="0" style="mix-blend-mode: normal"><path d="M334.4913,184.88206c-0.04737,1.54126 -3.68317,1.85628 -3.77231,3.34588c-1.44353,24.12103 -4.65566,42.29124 -12.19328,39.75147c-0.4872,-0.16416 -0.58065,-12.95465 -1.05071,-13.27016c-7.25163,-4.86714 -12.73041,-14.70704 -11.96555,-39.59254c0.08901,-2.89609 3.74636,-4.5293 3.97953,-7.23401c1.90025,-22.04275 4.85763,-38.26525 11.98607,-35.86335c0.4936,0.16631 0.52519,15.17549 1.00119,15.49709c7.24177,4.89282 12.77928,12.5013 12.01508,37.36559z" fill="url(#color-1)" stroke-width="NaN"/><path d="M332.13791,179.99951c0,1.29096 -3.0061,2.5677 -3.04205,3.82753c-0.58211,20.39993 -2.78204,36.36054 -9.09555,36.36054c-0.40807,0 -0.81145,-10.5774 -1.20918,-10.70764c-6.13571,-2.00931 -10.92843,-8.63632 -10.92843,-29.48042c0,-2.42577 2.99038,-4.80134 3.11477,-7.10871c1.0137,-18.80457 3.05206,-33.07935 9.02284,-33.07935c0.41344,0 0.82205,12.434 1.22486,12.56766c6.1282,2.03335 10.91274,6.79409 10.91274,27.62041z" fill="#c7c7c7" stroke-width="NaN"/></g></g></svg>