<svg version="1.1" xmlns="http://www.w3.org/2000/svg" xmlns:xlink="http://www.w3.org/1999/xlink" width="34.28754" height="35.31476" viewBox="0,0,34.28754,35.31476"><g transform="translate(-298.71244,-165.80463)"><g data-paper-data="{&quot;isPaintingLayer&quot;:true}" fill-rule="nonzero" stroke="#000000" stroke-width="2" stroke-linejoin="miter" stroke-miterlimit="10" stroke-dasharray="" stroke-dashoffset="0" style="mix-blend-mode: normal"><path d="M308.41458,199.55892c-4.44369,1.42784 -6.08797,-2.16568 -7.56089,-6.77696c-1.47291,-4.61128 -2.21667,-8.49415 2.22705,-9.92199c4.4437,-1.42786 10.71296,5.76413 10.71296,5.76413c0,0 -0.9354,9.50696 -5.37912,10.93482z" data-paper-data="{&quot;index&quot;:null}" fill="#adadad" stroke-linecap="butt"/><path d="M308.35861,193.80778c-2.22905,-1.35253 -2.81962,-22.47459 -0.47142,-25.2478c2.23374,-2.63804 22.29678,-2.13162 24.11278,0.37984c1.27404,1.76194 1.30939,21.86978 -0.37984,24.11278c-1.98232,2.63215 -21.13203,2.04728 -23.26152,0.75518z" fill="#c7c7c7" stroke-linecap="butt"/><path d="M302.57606,187.20886c2.93164,-3.63193 12.13807,-1.08262 12.13807,-1.08262c0,0 4.45335,8.43779 1.5217,12.06967c-2.93164,3.63193 -6.28652,1.54039 -10.05858,-1.49361c-3.77202,-3.034 -6.53282,-5.86156 -3.60119,-9.49346z" fill="#adadad" stroke-linecap="butt"/><g fill="none" stroke-linecap="round"><path d="M316.17235,175.59722l8.16667,12.66667"/><path d="M318.67235,187.26389l3.33333,-11.66667"/></g><g data-paper-data="{&quot;index&quot;:null}" fill="none" stroke-linecap="round"><path d="M329.20633,174.40777l-2.66149,14.71224"/><path d="M324.75207,176.42989l5.83757,9.78777"/></g></g></g></svg>