<svg version="1.1" xmlns="http://www.w3.org/2000/svg" xmlns:xlink="http://www.w3.org/1999/xlink" width="34.44811" height="46.19158" viewBox="0,0,34.44811,46.19158"><g transform="translate(-303.00095,-154.28938)"><g data-paper-data="{&quot;isPaintingLayer&quot;:true}" fill-rule="nonzero" stroke-linejoin="miter" stroke-miterlimit="10" stroke-dasharray="" stroke-dashoffset="0" style="mix-blend-mode: normal"><path d="M323.85881,191.5389c1.11481,-3.18455 4.76412,-4.80426 8.15097,-3.61773c3.38684,1.18652 5.22868,4.72996 4.11385,7.91452c-1.11481,3.18455 -3.97337,2.54537 -7.36018,1.35885c-3.38684,-1.18652 -6.01945,-2.47108 -4.90464,-5.65563z" fill="#adadad" stroke="#000000" stroke-width="2" stroke-linecap="butt"/><path d="M309.91954,190.87895c-2.399,-1.02119 -5.99257,-21.84369 -4.06339,-24.92313c1.83515,-2.92935 21.7657,-5.28625 23.92096,-3.05912c1.51205,1.56247 4.41158,21.46019 3.05912,23.92096c-1.58713,2.8877 -20.62485,5.03685 -22.91669,4.06129z" fill="#c7c7c7" stroke="#000000" stroke-width="2" stroke-linecap="butt"/><path d="M304.00095,192.63363c1.20184,-3.24467 4.90587,-4.86923 8.27318,-3.62857c3.3673,1.24068 5.12278,4.87674 3.92092,8.12139c-1.20184,3.24467 -4.05336,2.56768 -7.42068,1.32701c-3.3673,-1.24068 -5.97527,-2.5752 -4.77343,-5.81984z" fill="#adadad" stroke="#000000" stroke-width="2" stroke-linecap="butt"/><g fill="#000000" stroke="none" stroke-width="0" stroke-linecap="butt"><path d="M322.85211,176.68282c0.50685,3.96335 -0.45075,7.35128 -2.13883,7.56715c-1.68808,0.21588 -3.46745,-2.82204 -3.9743,-6.78539c-0.50685,-3.96335 0.45075,-7.35128 2.13883,-7.56715c1.68808,-0.21588 3.46745,2.82204 3.9743,6.78539z"/><path d="M329.86152,175.51631c0.50685,3.96335 -0.183,7.31705 -1.54081,7.49069c-1.35781,0.17363 -2.86944,-2.89852 -3.37629,-6.86187c-0.50685,-3.96335 0.18301,-7.31705 1.5408,-7.4907c1.35781,-0.17363 2.86942,2.89853 3.37627,6.86187z"/></g><path d="M305.65442,167.71605c0.09687,-6.41447 12.26252,-11.9123 12.26252,-11.9123c0,0 0.25352,4.88352 4.51841,5.13311c5.22429,-4.70118 10.15813,-2.85574 10.15813,-2.85574l-2.20612,6.12899" fill="#c7c7c7" stroke="#000000" stroke-width="2" stroke-linecap="round"/></g></g></svg>