<svg version="1.1" xmlns="http://www.w3.org/2000/svg" xmlns:xlink="http://www.w3.org/1999/xlink" width="96.43305" height="29.12377" viewBox="0,0,96.43305,29.12377"><defs><radialGradient cx="319.99998" cy="179.99999" r="14.56236" gradientUnits="userSpaceOnUse" id="color-1"><stop offset="0" stop-color="#c7c7c7"/><stop offset="1" stop-color="#c7c7c7" stop-opacity="0"/></radialGradient></defs><g transform="translate(-271.78347,-165.43811)"><g data-paper-data="{&quot;isPaintingLayer&quot;:true}" fill-rule="nonzero" stroke="none" stroke-linecap="butt" stroke-linejoin="miter" stroke-miterlimit="10" stroke-dasharray="" stroke-dashoffset="0" style="mix-blend-mode: normal"><path d="M315.11794,194.4913c-1.54126,-0.04737 -1.85628,-3.68317 -3.34588,-3.77231c-24.12103,-1.44353 -42.29124,-4.65566 -39.75147,-12.19328c0.16416,-0.4872 12.95465,-0.58065 13.27016,-1.05071c4.86714,-7.25163 14.70704,-12.73041 39.59254,-11.96555c2.89609,0.08901 4.5293,3.74636 7.23401,3.97953c22.04275,1.90025 38.26525,4.85763 35.86335,11.98607c-0.16631,0.4936 -15.17549,0.52519 -15.49709,1.00119c-4.89282,7.24177 -12.5013,12.77928 -37.36559,12.01508z" fill="url(#color-1)" stroke-width="NaN"/><path d="M320.00049,192.13791c-1.29096,0 -2.5677,-3.0061 -3.82753,-3.04205c-20.39993,-0.58211 -36.36054,-2.78204 -36.36054,-9.09555c0,-0.40807 10.5774,-0.81145 10.70764,-1.20918c2.00931,-6.13571 8.63632,-10.92843 29.48042,-10.92843c2.42577,0 4.80134,2.99038 7.10871,3.11477c18.80457,1.0137 33.07935,3.05206 33.07935,9.02284c0,0.41344 -12.434,0.82205 -12.56766,1.22486c-2.03335,6.1282 -6.79409,10.91274 -27.62041,10.91274z" fill="#c7c7c7" stroke-width="NaN"/></g></g></svg>