<svg version="1.1" xmlns="http://www.w3.org/2000/svg" xmlns:xlink="http://www.w3.org/1999/xlink" width="45.06926" height="64.10771" viewBox="0,0,45.06926,64.10771"><defs><radialGradient cx="333.0345" cy="149.3295" r="6.8456" gradientUnits="userSpaceOnUse" id="color-1"><stop offset="0" stop-color="#ffff00" stop-opacity="0.54118"/><stop offset="1" stop-color="#ffff00" stop-opacity="0"/></radialGradient></defs><g transform="translate(-302.95081,-142.4831)"><g data-paper-data="{&quot;isPaintingLayer&quot;:true}" fill-rule="nonzero" stroke-linejoin="miter" stroke-miterlimit="10" stroke-dasharray="" stroke-dashoffset="0" style="mix-blend-mode: normal"><path d="M335.54667,190.55214c-3.94989,-2.36239 -5.11417,-7.6827 -2.60051,-11.88327c2.51364,-4.20055 7.75334,-5.69068 11.70323,-3.32827c3.94989,2.36239 2.31241,6.00701 -0.20124,10.20751c-2.51364,4.20055 -4.95161,7.36639 -8.9015,5.004z" fill="#adadad" stroke="#000000" stroke-width="2" stroke-linecap="butt"/><path d="M308.96173,194.60697c-2.39943,-1.02017 -6.00181,-21.84115 -4.07393,-24.92141c1.83391,-2.93013 21.76346,-5.29546 23.91966,-3.06923c1.51271,1.56183 4.42066,21.45832 3.06923,23.91966c-1.58591,2.88837 -20.62271,5.04557 -22.91497,4.07098z" fill="#c7c7c7" stroke="#000000" stroke-width="2" stroke-linecap="butt"/><path d="M305.17208,195.08274c2.50985,-2.38179 6.55065,-2.20589 9.02539,0.3929c2.47472,2.5988 2.44629,6.63635 -0.06357,9.01812c-2.50985,2.38179 -4.77033,0.5164 -7.24507,-2.08239c-2.47472,-2.5988 -4.22659,-4.94686 -1.71675,-7.32864z" fill="#adadad" stroke="#000000" stroke-width="2" stroke-linecap="butt"/><g fill="#000000" stroke="none" stroke-width="0" stroke-linecap="butt"><path d="M321.88829,180.40537c0.50853,3.96313 -0.44764,7.35147 -2.13562,7.56806c-1.68799,0.2166 -3.46864,-2.82058 -3.97717,-6.78371c-0.50853,-3.96313 0.44764,-7.35147 2.13562,-7.56806c1.68799,-0.2166 3.46864,2.82058 3.97717,6.78371z"/><path d="M328.8972,179.23589c0.50853,3.96313 -0.1799,7.31713 -1.53764,7.49134c-1.35774,0.17421 -2.87066,-2.8973 -3.37919,-6.86044c-0.50853,-3.96313 0.17991,-7.31713 1.53763,-7.49135c1.35774,-0.17421 2.87064,2.89731 3.37917,6.86044z"/></g><path d="M321.61388,175.39067l-7.95455,-2.42424" fill="none" stroke="#c7c7c7" stroke-width="2" stroke-linecap="round"/><path d="M322.75023,175.6937l3.25758,-4.24242" fill="none" stroke="#c7c7c7" stroke-width="2" stroke-linecap="round"/><path d="M304.45024,171.79081c0.02915,-6.41513 13.93374,-10.91485 13.93374,-10.91485c0,0 -1.4926,3.75433 2.77468,3.95888c5.17437,-4.75608 11.92508,-1.83658 11.92508,-1.83658l-3.93896,5.02569" fill="#c7c7c7" stroke="#000000" stroke-width="2" stroke-linecap="round"/><path d="M338.61905,187.55123c-0.19798,0.02068 -0.40758,-0.00342 -0.62734,-0.06856c-0.02778,-0.00658 -0.05567,-0.01381 -0.08366,-0.02169c-0.35614,-0.10021 -0.69729,-0.29651 -1.00963,-0.56606c-4.66336,-3.46006 -12.10954,-19.4136 -12.50322,-23.03448c-0.80822,-7.43384 2.62376,-4.34148 4.63771,-0.78995c-0.23266,-1.20054 -0.3212,-2.22664 -0.11769,-2.76995c0.86503,-2.30954 2.36746,-2.56321 3.57621,-1.46517c0.80936,-1.56854 1.76542,-1.20863 2.71592,0.04136c2.26105,1.32066 4.48308,6.94272 5.94936,9.27165c0.52186,0.8289 2.22292,2.34479 2.14366,3.41664c0.13647,0.47432 0.21573,0.97507 0.22394,1.47932c0.02833,1.74057 -0.79909,2.9605 -1.93853,3.02938c-0.41975,0.50999 -0.83894,1.02094 -1.27594,1.50103c0.15342,0.09502 0.30194,0.2075 0.44419,0.33523c0.92609,0.83156 1.58686,2.30914 1.61142,3.81802c0.02807,1.72454 -0.78392,2.93801 -1.90714,3.02718c-0.04539,1.40003 -0.66122,2.42039 -1.53709,2.70123c-0.09242,0.05061 -0.19263,0.08335 -0.30218,0.09479z" fill="#adadad" stroke="none" stroke-width="0.5" stroke-linecap="butt"/><path d="M327.29159,153.05523c-2.05767,-3.17172 -1.15455,-7.41098 2.01718,-9.46864c3.17172,-2.05767 7.41099,-1.15455 9.46865,2.01717c2.05767,3.17172 1.15454,7.41098 -2.01718,9.46865c-3.17172,2.05767 -7.41098,1.15455 -9.46864,-2.01718z" fill="url(#color-1)" stroke="none" stroke-width="NaN" stroke-linecap="butt"/></g></g></svg>