<svg version="1.1" xmlns="http://www.w3.org/2000/svg" xmlns:xlink="http://www.w3.org/1999/xlink" width="672.67268" height="341.29848" viewBox="0,0,672.67268,341.29848"><defs><linearGradient x1="245.58884" y1="230.40789" x2="245.58884" y2="237.51672" gradientUnits="userSpaceOnUse" id="color-1"><stop offset="0" stop-color="#757575" stop-opacity="0"/><stop offset="1" stop-color="#757575"/></linearGradient><linearGradient x1="303.52107" y1="185.9461" x2="302.94719" y2="175.85206" gradientUnits="userSpaceOnUse" id="color-2"><stop offset="0" stop-color="#757575" stop-opacity="0"/><stop offset="1" stop-color="#757575"/></linearGradient></defs><g transform="translate(24.59459,-38.40123)"><g data-paper-data="{&quot;isPaintingLayer&quot;:true}" fill-rule="nonzero" stroke-linejoin="miter" stroke-miterlimit="10" stroke-dasharray="" stroke-dashoffset="0" style="mix-blend-mode: normal"><path d="M59.4895,373.6937v-252.25225h169.66967v252.25225z" fill="#757575" stroke="none" stroke-width="0" stroke-linecap="butt"/><path d="M-24.59458,373.6937v-90.09009h139.63964v90.09009z" fill="#757575" stroke="none" stroke-width="0" stroke-linecap="butt"/><path d="M314.74475,370.6907v-75.07508h115.61562v75.07508z" fill="#757575" stroke="none" stroke-width="0" stroke-linecap="butt"/><path d="M142.07208,364.68469v-124.62462h187.68769v124.62462z" fill="#757575" stroke="none" stroke-width="0" stroke-linecap="butt"/><path d="M446.8769,379.69971v-145.64565h201.2012v145.64565z" fill="#757575" stroke="none" stroke-width="0" stroke-linecap="butt"/><path d="M392.82284,370.6907v-175.67568h91.59159v175.67568z" fill="#757575" stroke="none" stroke-width="0" stroke-linecap="butt"/><path d="M252.24165,111.29716c-2.96614,0.71067 -5.9828,-1.27086 -6.73794,-4.42585c-0.75513,-3.15499 1.03723,-6.28871 4.00338,-6.99937c2.96614,-0.71067 3.87885,1.77496 4.63397,4.92993c0.75513,3.15499 1.06672,5.78462 -1.89942,6.49529z" fill="#757575" stroke="#000000" stroke-width="0" stroke-linecap="butt"/><path d="M228.32461,100.81418c-1.24604,-1.07872 0.62058,-14.30439 2.37737,-15.78421c1.67116,-1.40769 14.12079,1.03053 14.98681,2.78779c0.60757,1.23283 -1.49777,13.7677 -2.78779,14.98681c-1.51385,1.43062 -13.386,-0.95986 -14.57639,-1.99039z" fill="#757575" stroke="#000000" stroke-width="0" stroke-linecap="butt"/><path d="M220.82033,102.21602c1.92614,-1.0362 4.36158,-0.25827 5.43971,1.73754c1.07812,1.99582 0.39068,4.45375 -1.53546,5.48993c-1.92614,1.0362 -2.99531,-0.47674 -4.07343,-2.47256c-1.07812,-1.99582 -1.75694,-3.71874 0.16919,-4.75493z" fill="#757575" stroke="#000000" stroke-width="0" stroke-linecap="butt"/><path d="M230.41134,85.51572c1.57325,-3.73751 10.78109,-2.99094 10.78109,-2.99094c0,0 -1.782,1.82935 0.65923,2.98395c4.1741,-1.52093 7.40632,1.82086 7.40632,1.82086l-3.51839,1.978" fill="#757575" stroke="#000000" stroke-width="0" stroke-linecap="round"/><path d="M251.3172,102.80955c0,0 3.81312,-0.36009 4.78162,-1.97465c0.94299,-1.57205 0.9549,-7.58859 0.9549,-7.58859c0,0 0.1511,6.24861 0.99316,7.65238c1.03143,1.71949 4.74336,1.91086 4.74336,1.91086c0,0 -3.85239,0.55314 -4.78162,2.10224c-0.98021,1.6341 -0.9549,7.46099 -0.9549,7.46099c0,0 -0.17773,-6.29297 -1.0697,-7.77997c-1.00636,-1.67768 -4.66681,-1.78327 -4.66681,-1.78327z" fill="#757575" stroke="none" stroke-width="0" stroke-linecap="butt"/><path d="M252.97491,106.84328c0,0 2.45802,-2.9373 2.01134,-4.76631c-0.43492,-1.78084 -4.6571,-6.06713 -4.6571,-6.06713c0,0 4.50126,4.33667 6.08707,4.74268c1.94246,0.49733 4.7163,-1.97671 4.7163,-1.97671c0,0 -2.35019,3.10217 -1.92162,4.85703c0.45209,1.85114 4.56738,5.9764 4.56738,5.9764c0,0 -4.55138,-4.34949 -6.23121,-4.77957c-1.89524,-0.48524 -4.57216,2.01361 -4.57216,2.01361z" fill="#757575" stroke="none" stroke-width="0" stroke-linecap="butt"/><g fill="#757575" stroke="#000000" stroke-width="0" stroke-linecap="butt"><path d="M276.54284,106.02397c-0.28745,2.45664 -5.1347,3.91627 -5.1347,3.91627c0,0 -4.38123,-2.52332 -4.09376,-4.97994c0.28745,-2.45664 2.38244,-2.46744 4.93082,-2.17372c2.54836,0.29373 4.5851,0.78077 4.29765,3.23739z" data-paper-data="{&quot;index&quot;:null}"/><path d="M264.24437,110.56828c0.8394,-1.22862 10.93993,-4.62283 12.04064,-4.2822c1.56894,0.48552 5.22751,10.47162 4.2822,12.04063c-0.99376,1.64941 -11.69765,4.93697 -12.75488,4.04744c-1.01,-0.8498 -4.55298,-10.36408 -3.56795,-11.80587z" data-paper-data="{&quot;index&quot;:null}"/><path d="M280.56156,117.91377c1.71891,1.77847 0.39531,3.4013 -1.45228,5.18086c-1.84761,1.77957 -3.51955,3.04198 -5.23847,1.2635c-1.71892,-1.77846 0.23301,-6.44239 0.23301,-6.44239c0,0 4.73882,-1.78045 6.45774,-0.00196z" data-paper-data="{&quot;index&quot;:null}"/></g><g fill-opacity="0.4902" fill="#757575" stroke="#000000" stroke-width="0" stroke-linecap="butt"><path d="M275.14439,103.12496c-0.28745,2.45664 -5.1347,3.91627 -5.1347,3.91627c0,0 -4.38123,-2.52332 -4.09376,-4.97994c0.28745,-2.45664 2.38244,-2.46744 4.93082,-2.17372c2.54836,0.29373 4.5851,0.78077 4.29765,3.23739z" data-paper-data="{&quot;index&quot;:null}"/><path d="M262.84593,107.66926c0.8394,-1.22862 10.93993,-4.62283 12.04064,-4.2822c1.56894,0.48552 5.22751,10.47162 4.2822,12.04063c-0.99376,1.64941 -11.69765,4.93697 -12.75488,4.04744c-1.01,-0.8498 -4.55298,-10.36408 -3.56795,-11.80587z" data-paper-data="{&quot;index&quot;:null}"/><path d="M279.16316,115.01475c1.71891,1.77847 0.39531,3.4013 -1.45228,5.18086c-1.84761,1.77957 -3.51955,3.04198 -5.23847,1.2635c-1.71892,-1.77846 0.23301,-6.44239 0.23301,-6.44239c0,0 4.73882,-1.78045 6.45774,-0.00196z" data-paper-data="{&quot;index&quot;:null}"/></g><g fill-opacity="0.32157" fill="#757575" stroke="#000000" stroke-width="0" stroke-linecap="butt"><path d="M273.87312,101.38373c-0.28745,2.45664 -5.1347,3.91627 -5.1347,3.91627c0,0 -4.38123,-2.52332 -4.09376,-4.97994c0.28745,-2.45664 2.38244,-2.46744 4.93082,-2.17372c2.54836,0.29373 4.5851,0.78078 4.29765,3.23739z" data-paper-data="{&quot;index&quot;:null}"/><path d="M261.57464,105.92803c0.8394,-1.22862 10.93993,-4.62282 12.04064,-4.2822c1.56894,0.48552 5.22751,10.47162 4.2822,12.04063c-0.99376,1.64941 -11.69765,4.93697 -12.75488,4.04744c-1.01,-0.8498 -4.55298,-10.36408 -3.56795,-11.80587z" data-paper-data="{&quot;index&quot;:null}"/><path d="M277.89186,113.27352c1.71891,1.77847 0.39531,3.4013 -1.45228,5.18086c-1.84761,1.77957 -3.51955,3.04198 -5.23847,1.2635c-1.71892,-1.77846 0.23301,-6.44239 0.23301,-6.44239c0,0 4.73882,-1.78045 6.45774,-0.00196z" data-paper-data="{&quot;index&quot;:null}"/></g><g fill-opacity="0.1451" fill="#757575" stroke="#000000" stroke-width="0" stroke-linecap="butt"><path d="M272.22042,100.03751c-0.28745,2.45664 -5.1347,3.91627 -5.1347,3.91627c0,0 -4.38123,-2.52332 -4.09376,-4.97994c0.28745,-2.45664 2.38244,-2.46744 4.93082,-2.17372c2.54836,0.29373 4.5851,0.78078 4.29765,3.23739z" data-paper-data="{&quot;index&quot;:null}"/><path d="M259.92196,104.58182c0.8394,-1.22862 10.93993,-4.62282 12.04064,-4.2822c1.56894,0.48552 5.22751,10.47162 4.2822,12.04063c-0.99376,1.64941 -11.69765,4.93697 -12.75488,4.04744c-1.01,-0.8498 -4.55298,-10.36408 -3.56795,-11.80587z" data-paper-data="{&quot;index&quot;:null}"/><path d="M276.23918,111.92731c1.71891,1.77847 0.39531,3.4013 -1.45228,5.18086c-1.84761,1.77957 -3.51955,3.04198 -5.23847,1.2635c-1.71892,-1.77846 0.23301,-6.44239 0.23301,-6.44239c0,0 4.73882,-1.78045 6.45774,-0.00196z" data-paper-data="{&quot;index&quot;:null}"/></g><path d="M238.48001,237.51672l-5.13009,-8.35471l24.47783,0.41817l-4.03078,7.93654z" fill="url(#color-1)" stroke="none" stroke-width="0" stroke-linecap="butt"/><path d="M238.08393,229.86125c-1.53559,-1.23161 -1.94243,-20.46537 -0.32476,-22.99066c1.53882,-2.4022 15.36019,-1.94105 16.61122,0.34588c0.87768,1.60442 0.90203,19.91462 -0.26167,21.9571c-1.36561,2.39684 -14.55779,1.86426 -16.02479,0.68767z" fill="#757575" stroke="#000000" stroke-width="0" stroke-linecap="butt"/><path d="M238.08393,240.31461c-1.53559,-0.26853 -1.94243,-4.46214 -0.32476,-5.01273c1.53882,-0.52376 15.36019,-0.42322 16.61122,0.07541c0.87768,0.34982 0.90203,4.34206 -0.26167,4.78739c-1.36561,0.52259 -14.55779,0.40647 -16.02479,0.14993z" fill="#757575" stroke="#000000" stroke-width="0" stroke-linecap="butt"/><path d="M312.33945,176.20039l-3.06563,10.60628l-11.05662,0.19209l-3.46061,-10.85678z" data-paper-data="{&quot;index&quot;:null}" fill="url(#color-2)" stroke="none" stroke-width="0" stroke-linecap="butt"/><path d="M293.90634,173.32348c0,-5.38192 4.36291,-9.74484 9.74484,-9.74484c5.38192,0 9.74484,4.36291 9.74484,9.74484c0,5.38192 -4.36291,9.74484 -9.74484,9.74484c-5.38192,0 -9.74484,-4.36291 -9.74484,-9.74484z" fill="#757575" stroke="#000000" stroke-width="0" stroke-linecap="butt"/><g fill="#757575" stroke="#000000" stroke-width="0" stroke-linecap="butt"><path d="M490.69695,101.66828l-9.32672,-10.30406l7.19047,-11.89364l9.32672,10.30406z" data-paper-data="{&quot;index&quot;:null}"/><path d="M504.92388,97.43256l-9.32672,-10.30406l7.19047,-11.89364l9.32672,10.30406z" data-paper-data="{&quot;index&quot;:null}"/><path d="M466.86998,92.75968l7.19047,-11.89364l9.32672,10.30406l-7.19047,11.89364z"/><path d="M452.0964,91.3149l7.19047,-11.89364l9.32672,10.30406l-7.19047,11.89364z"/><path d="M479.43399,61.5422l31.38899,2.22953l2.01983,20.98799l-31.74776,-2.19501l-29.78112,8.11639l-2.01983,-20.98799z" data-paper-data="{&quot;index&quot;:null}"/><path d="M451.34846,91.03987l-2.01983,-20.98799l30.76514,2.10853l30.76374,-8.02991l2.01983,20.98799l-30.40497,7.99538z"/><path d="M449.42547,69.771c-0.0455,-0.66257 27.64492,-30.20208 27.64492,-30.20208c0,0 33.71153,23.80882 33.53382,24.40492c-0.22494,0.75453 -30.50398,8.25385 -30.50398,8.25385c0,0 -30.62985,-1.80267 -30.67477,-2.45668z"/></g><g fill-opacity="0.51765" fill="#757575" stroke="#000000" stroke-width="0" stroke-linecap="butt"><path d="M493.7303,101.37636l-9.32672,-10.30407l7.19047,-11.89363l9.32672,10.30406z" data-paper-data="{&quot;index&quot;:null}"/><path d="M507.9572,97.14064l-9.32672,-10.30406l7.19047,-11.89363l9.32672,10.30406z" data-paper-data="{&quot;index&quot;:null}"/><path d="M469.90332,92.46776l7.19047,-11.89363l9.32672,10.30406l-7.19047,11.89364z"/><path d="M455.12974,91.02298l7.19047,-11.89363l9.32672,10.30406l-7.19047,11.89364z"/><path d="M482.46733,61.25028l31.38899,2.22953l2.01983,20.98799l-31.74776,-2.19501l-29.78112,8.11639l-2.01983,-20.98799z" data-paper-data="{&quot;index&quot;:null}"/><path d="M454.38179,90.74795l-2.01983,-20.98799l30.76514,2.10853l30.76374,-8.02991l2.01983,20.98799l-30.40497,7.99538z"/><path d="M452.45881,69.47908c-0.0455,-0.66257 27.64492,-30.20208 27.64492,-30.20208c0,0 33.71153,23.80882 33.53383,24.40492c-0.22495,0.75452 -30.50398,8.25385 -30.50398,8.25385c0,0 -30.62985,-1.80267 -30.67476,-2.45669z"/></g><g fill-opacity="0.29804" fill="#757575" stroke="#000000" stroke-width="0" stroke-linecap="butt"><path d="M497.93029,100.97216l-9.32672,-10.30407l7.19047,-11.89363l9.32672,10.30406z" data-paper-data="{&quot;index&quot;:null}"/><path d="M512.15721,96.73644l-9.32672,-10.30406l7.19047,-11.89363l9.32672,10.30406z" data-paper-data="{&quot;index&quot;:null}"/><path d="M474.10332,92.06357l7.19047,-11.89363l9.32672,10.30406l-7.19047,11.89364z"/><path d="M459.32974,90.61878l7.19047,-11.89363l9.32672,10.30406l-7.19047,11.89364z"/><path d="M486.66733,60.84608l31.38899,2.22953l2.01983,20.98799l-31.74776,-2.19501l-29.78112,8.11639l-2.01983,-20.98799z" data-paper-data="{&quot;index&quot;:null}"/><path d="M458.5818,90.34375l-2.01983,-20.98799l30.76514,2.10853l30.76374,-8.02991l2.01983,20.98799l-30.40497,7.99538z"/><path d="M456.65881,69.07488c-0.0455,-0.66257 27.64492,-30.20208 27.64492,-30.20208c0,0 33.71153,23.80882 33.53383,24.40492c-0.22495,0.75452 -30.50398,8.25385 -30.50398,8.25385c0,0 -30.62985,-1.80267 -30.67476,-2.45669z"/></g><g fill-opacity="0.10588" fill="#757575" stroke="#000000" stroke-width="0" stroke-linecap="butt"><path d="M502.83031,100.5006l-9.32672,-10.30407l7.19047,-11.89363l9.32672,10.30406z" data-paper-data="{&quot;index&quot;:null}"/><path d="M517.0572,96.26488l-9.32672,-10.30406l7.19047,-11.89363l9.32672,10.30406z" data-paper-data="{&quot;index&quot;:null}"/><path d="M479.00333,91.592l7.19047,-11.89363l9.32672,10.30406l-7.19047,11.89364z"/><path d="M464.22974,90.14722l7.19047,-11.89363l9.32672,10.30406l-7.19047,11.89364z"/><path d="M491.56734,60.37452l31.38899,2.22953l2.01983,20.98799l-31.74776,-2.19501l-29.78112,8.11639l-2.01983,-20.98799z" data-paper-data="{&quot;index&quot;:null}"/><path d="M463.4818,89.87219l-2.01983,-20.98799l30.76514,2.10853l30.76374,-8.02991l2.01983,20.98799l-30.40497,7.99538z"/><path d="M461.55882,68.60331c-0.0455,-0.66257 27.64492,-30.20208 27.64492,-30.20208c0,0 33.71153,23.80882 33.53383,24.40492c-0.22495,0.75452 -30.50398,8.25385 -30.50398,8.25385c0,0 -30.62985,-1.80267 -30.67476,-2.45669z"/></g><text transform="translate(73.15339,172.08727) rotate(-21.0155) scale(0.185,0.185)" font-size="40" xml:space="preserve" fill="#969696" fill-rule="nonzero" stroke="none" stroke-width="1" stroke-linecap="butt" stroke-linejoin="miter" stroke-miterlimit="10" stroke-dasharray="" stroke-dashoffset="0" font-family="Marker" font-weight="normal" text-anchor="start" style="mix-blend-mode: normal"><tspan x="0" dy="0">PICKLES IZ COOL</tspan></text><path d="M73.23448,191.475c-0.75,0 -0.75,-0.75 -0.75,-0.75c0,-0.25282 0,-0.58992 0,-0.84274c0.00166,-2.23472 0.51885,-4.48359 0.42202,-6.71078c-0.16468,-3.78796 -0.61891,-7.4174 0.00956,-11.19441c0,0 0.1233,-0.7398 0.86309,-0.6165c0.7398,0.1233 0.6165,0.86309 0.6165,0.86309c-0.61329,3.67347 -0.13778,7.20051 0.00956,10.88548c0.09009,2.25321 -0.42253,4.51438 -0.42072,6.77312c0,0.25282 0,0.50565 0,0.75847v0.08427c0,0 0,0.75 -0.75,0.75z" fill="#969696" stroke="none" stroke-width="0.5" stroke-linecap="butt"/><path d="M77.53247,180.77215c-0.75,0 -0.75,-0.75 -0.75,-0.75l0.00001,-1.18441c0.03658,-3.00458 0.25469,-6.01276 0.25281,-9.01279c0,0 0,-0.75 0.75,-0.75c0.75,0 0.75,0.75 0.75,0.75c-0.00178,3.00366 -0.21611,6.01393 -0.25284,9.02193l0.00001,1.17527c0,0 0,0.75 -0.75,0.75z" fill="#969696" stroke="none" stroke-width="0.5" stroke-linecap="butt"/><path d="M82.20465,177.23171c-0.74908,0.03708 -0.78616,-0.712 -0.78616,-0.712l-0.01011,-0.20426c-0.03498,-0.70873 -0.03956,-1.41378 -0.02724,-2.11697c-0.01128,-0.00058 -0.02271,-0.00135 -0.03432,-0.00232c-0.51766,-0.04314 -0.64691,-0.41493 -0.67745,-0.63943c-0.30315,-0.14318 -0.40278,-0.49186 -0.40278,-0.49186l-0.16578,-0.58045c-0.37851,-1.27852 -0.40993,-2.57866 -0.61283,-3.89382c0,0 -0.11404,-0.74128 0.62724,-0.85532c0.74128,-0.11404 0.85532,0.62724 0.85532,0.62724c0.03323,0.2166 0.061,0.43355 0.08615,0.65052c0.04298,-0.0435 0.09398,-0.08298 0.15449,-0.11468c0.05187,-0.16162 0.10547,-0.32488 0.1606,-0.49043c0,0 0.06687,-0.20062 0.23613,-0.35329c0.0491,-0.22119 0.20879,-0.58091 0.7282,-0.58091c0.75,0 0.75,0.75 0.75,0.75c-0.00072,2.68699 -0.31322,5.3263 -0.17958,8.01755l0.01011,0.20426c0,0 0.03708,0.74908 -0.712,0.78616z" fill="#969696" stroke="none" stroke-width="0.5" stroke-linecap="butt"/><path d="M81.26201,184.46566c-0.73544,-0.14709 -0.58835,-0.88252 -0.58835,-0.88252l0.06971,-0.27513c0.00156,-1.10089 0.05192,-2.18982 0.17314,-3.2844c0,0 0.08282,-0.74541 0.82824,-0.66259c0.74541,0.08282 0.66259,0.82824 0.66259,0.82824c-0.11596,1.04003 -0.16309,2.07437 -0.16396,3.12045l-0.09884,0.56761c0,0 -0.14709,0.73544 -0.88252,0.58835z" fill="#969696" stroke="none" stroke-width="0.5" stroke-linecap="butt"/><path d="M86.13381,169.60625l-0.53962,-0.36114c-0.50106,-0.37926 -0.96276,-0.81477 -1.37855,-1.28596c0,0 -0.49388,-0.56443 0.07055,-1.05831c0.56443,-0.49388 1.05831,0.07055 1.05831,0.07055c0.33701,0.38904 0.71435,0.74788 1.12645,1.05641c-0.01248,-0.41585 -0.0355,-0.83138 -0.07748,-1.24637c0,0 -0.07463,-0.74628 0.67165,-0.82091c0.74628,-0.07463 0.82091,0.67165 0.82091,0.67165c0.1806,1.8254 0.00159,3.65831 0.16919,5.48456l0.08156,0.64907c0,0 0.09303,0.74421 -0.65118,0.83723c-0.74421,0.09303 -0.83723,-0.65118 -0.83723,-0.65118l-0.08699,-0.69932c-0.07554,-0.83837 -0.07815,-1.67829 -0.07688,-2.51806c-0.20131,-0.02864 -0.35069,-0.12823 -0.35069,-0.12823z" fill="#969696" stroke="none" stroke-width="0.5" stroke-linecap="butt"/><path d="M89.58371,164.59147c-0.75,0 -0.75,-0.75 -0.75,-0.75l0.00225,-0.22666c0.0861,-1.10652 0.25235,-2.20286 0.25057,-3.31286c0,0 0,-0.75 0.75,-0.75c0.75,0 0.75,0.75 0.75,0.75c-0.00165,1.14995 -0.16611,2.28302 -0.25508,3.42909l0.00225,0.11043c0,0 0,0.75 -0.75,0.75z" fill="#969696" stroke="none" stroke-width="0.5" stroke-linecap="butt"/><path d="M92.62606,161.98743c0,-0.41421 0.33579,-0.75 0.75,-0.75c0.41421,0 0.75,0.33579 0.75,0.75c0,0.41421 -0.33579,0.75 -0.75,0.75c-0.41421,0 -0.75,-0.33579 -0.75,-0.75z" fill="#969696" stroke="none" stroke-width="0.5" stroke-linecap="butt"/><path d="M93.54461,177.82255c-0.75,0 -0.75,-0.75 -0.75,-0.75l0.01994,-0.4246c0.13565,-0.5765 0.27595,-1.14121 0.40143,-1.7044c0,-0.05274 0,-0.10581 0,-0.15915c-0.18812,-0.17938 -0.23826,-0.4301 -0.23826,-0.4301l-0.09884,-0.56846c0.0008,-0.99566 0.06674,-1.84543 0.33339,-2.69577c-0.00093,-0.00177 -0.00139,-0.00269 -0.00139,-0.00269l-0.05657,-0.11809c-0.47349,-0.78933 -0.8727,-1.50935 -1.2059,-2.34424c-0.14666,-0.19743 -0.16324,-0.43291 -0.16324,-0.43291l-0.08566,-1.22311c0.00062,-0.99095 0.05198,-1.98435 0.17388,-2.96777c0,0 0.09303,-0.74421 0.83723,-0.65118c0.74421,0.09303 0.65118,0.83723 0.65118,0.83723c-0.11403,0.90413 -0.16385,1.81771 -0.16322,2.72901l0.068,0.96031c0.12803,0.34571 0.26829,0.66446 0.4213,0.97372c0.04439,-0.20659 0.08979,-0.41336 0.13588,-0.62077c0,0 0.1199,-0.53956 0.61703,-0.58936c0.25579,-1.51456 0.54795,-3.01818 0.54495,-4.55723c0,0 0,-0.75 0.75,-0.75c0.75,0 0.75,0.75 0.75,0.75c-0.00297,1.6831 -0.31777,3.31689 -0.5939,4.97387l-0.0905,0.54299c0,0 -0.10005,0.60033 -0.66069,0.62928c-0.04183,0.19536 -0.08271,0.39057 -0.12232,0.58606c0.26728,0.3586 0.02464,0.79536 0.02464,0.79536c-0.08354,0.14793 -0.15672,0.29302 -0.2208,0.43644c0.31519,0.21121 0.31519,0.632 0.31519,0.632c-0.00194,1.17908 -0.18189,2.2905 -0.42137,3.406c0,0.12878 0,0.25757 0,0.38635v0.58992c0,0 0,0.47649 -0.37979,0.66988c-0.02051,0.08655 -0.04104,0.17333 -0.06151,0.26037l0.01994,0.08104c0,0 0,0.75 -0.75,0.75z" fill="#969696" stroke="none" stroke-width="0.5" stroke-linecap="butt"/><path d="M102.55597,168.63165c-0.75,0 -0.75,-0.75 -0.75,-0.75v-1.1539c0,-1.99985 0.14515,-3.98995 0.14424,-5.98586c0,0 0,-0.75 0.75,-0.75c0.75,0 0.75,0.75 0.75,0.75c-0.00086,1.99641 -0.14424,3.98575 -0.14424,5.98586v1.1539c0,0 0,0.75 -0.75,0.75z" fill="#969696" stroke="none" stroke-width="0.5" stroke-linecap="butt"/><path d="M106.27734,158.93891c0,0 0,-0.75 0.75,-0.75c0.75,0 0.75,0.75 0.75,0.75c-0.00051,0.54699 -0.02486,1.09452 -0.07397,1.6393l-0.0712,1.42714c0,0 -0.03616,0.72326 -0.74812,0.71286l-0.04646,0.60535c0,0 -0.05681,0.7385 -0.79141,0.69125c-0.00011,0.36411 -0.00026,0.72822 -0.00046,1.09233l0.06981,0.75939c0,0 0.0679,0.74692 -0.67902,0.81482c-0.74692,0.0679 -0.81482,-0.67902 -0.81482,-0.67902l-0.07443,-0.82722c-0.001,-1.9345 -0.00077,-3.869 -0.00077,-5.80349c0,0 0,-0.75 0.75,-0.75c0.59137,0 0.71645,0.46629 0.7429,0.66354c0.06314,-0.05644 0.14102,-0.10435 0.23675,-0.13327c0.00087,-0.071 0.00127,-0.14199 0.0012,-0.21298z" fill="#969696" stroke="none" stroke-width="0.5" stroke-linecap="butt"/><path d="M106.78217,153.45788c0,-0.41421 0.33579,-0.75 0.75,-0.75c0.41421,0 0.75,0.33579 0.75,0.75c0,0.04139 -0.00335,0.08199 -0.0098,0.12155c0.09663,0.12626 0.15404,0.28412 0.15404,0.4554c0,0.1175 -0.02702,0.22868 -0.07518,0.32768c0.1473,0.21222 0.1473,0.46563 0.1473,0.46563c0,0.28848 0,0.57695 0,0.86543v0.21636c0,0 0,0.75 -0.75,0.75c-0.75,0 -0.75,-0.75 -0.75,-0.75c0,-0.28848 0,-0.79331 0,-1.08178c0,0 0,-0.16645 0.07842,-0.34252c-0.09451,-0.12548 -0.15053,-0.28159 -0.15053,-0.45078c0,-0.04139 0.00335,-0.08199 0.0098,-0.12155c-0.09663,-0.12626 -0.15404,-0.28412 -0.15404,-0.4554z" fill="#969696" stroke="none" stroke-width="0.5" stroke-linecap="butt"/><path d="M114.96041,162.42942c-0.75,0 -0.75,-0.50921 -0.75,-0.50921l0.00104,-0.12013c-0.16363,-2.11092 -0.36843,-4.20382 -0.57633,-6.30942c0,0 -0.04989,-0.50809 0.69845,-0.54196c0.74834,-0.03387 0.79823,0.47421 0.79823,0.47421c0.20599,2.11009 0.4136,4.20834 0.57758,6.32364l0.00104,0.17366c0,0 0,0.50921 -0.75,0.50921z" fill="#969696" stroke="none" stroke-width="0.5" stroke-linecap="butt"/><path d="M118.13364,163.72756c-0.75,0 -0.75,-0.75 -0.75,-0.75l0.00293,-0.07803c-0.11723,-1.32275 -0.17399,-2.65039 -0.18425,-3.97927c-0.08242,0.02984 -0.17975,0.04746 -0.2947,0.04746c-0.75,0 -0.75,-0.75 -0.75,-0.75v-0.189c-0.18838,-0.16058 -0.25685,-0.3888 -0.25685,-0.3888l-0.21902,-0.73026c-0.15202,-0.56441 -0.2595,-1.14321 -0.31437,-1.72515c0,0 -0.0679,-0.74692 0.67902,-0.81482c0.24434,-0.02221 0.41602,0.04277 0.53643,0.14029c0.11796,-0.09479 0.2853,-0.1584 0.52246,-0.14146c0.09811,0.00701 0.18243,0.02596 0.2549,0.05361c0.07458,-0.21732 0.26428,-0.51367 0.74293,-0.48708c0.74885,0.0416 0.70724,0.79045 0.70724,0.79045c-0.14948,2.67975 -0.16631,5.37135 0.07035,8.04162l0.00293,0.21045c0,0 0,0.75 -0.75,0.75z" fill="#969696" stroke="none" stroke-width="0.5" stroke-linecap="butt"/><path d="M121.59535,162.7179c-0.75,0 -0.75,-0.75 -0.75,-0.75v-1.00966c0.00041,-0.92638 0.00822,-1.86041 0.03485,-2.79309c-0.6118,-0.08595 -0.6118,-0.74073 -0.6118,-0.74073v-0.57695c0,-1.66649 0.23666,-3.23677 0.3628,-4.88949c0,0 0.05752,-0.74779 0.80531,-0.69027c0.55795,0.04292 0.66757,0.47013 0.68727,0.68426c0.06854,-0.02143 0.14677,-0.03468 0.23606,-0.03703c0,-0.11072 0,-0.22144 0,-0.33216c0,0 0,-0.75 0.75,-0.75c0.75,0 0.75,0.75 0.75,0.75c0,0.28848 0,0.57695 0,0.86543l-0.07671,0.73189c0,0 -0.06706,0.60353 -0.62356,0.66412c0.03677,1.0804 0.11642,2.15916 0.19353,3.23827l0.00191,0.41403c0,0 0,0.75 -0.75,0.75c-0.08491,0 -0.16022,-0.00961 -0.22699,-0.02667c-0.02603,0.91451 -0.03309,1.8304 -0.03267,2.73837v1.00966c0,0 0,0.75 -0.75,0.75z" fill="#969696" stroke="none" stroke-width="0.5" stroke-linecap="butt"/><path d="M126.31327,156.2906c-0.02429,-0.00374 -0.04767,-0.00815 -0.07015,-0.01318c0.06596,1.07247 0.1466,2.14698 0.20271,3.2354l0.05994,0.18141c0,0 0.18223,0.72753 -0.5453,0.90975c-0.72753,0.18223 -0.90975,-0.5453 -0.90975,-0.5453l-0.10291,-0.46877c-0.13913,-2.70725 -0.4215,-5.3317 -0.27912,-8.04655c0,0 0.03942,-0.74896 0.78838,-0.70954c0.53511,0.02816 0.66778,0.41852 0.69991,0.63915c0.07502,-0.21315 0.27739,-0.55499 0.79607,-0.49015c0.74421,0.09303 0.65118,0.83723 0.65118,0.83723c-0.12022,0.96101 -0.21284,1.91232 -0.28761,2.87757l-0.14803,0.96574c0,0 -0.11404,0.74128 -0.85532,0.62724z" fill="#969696" stroke="none" stroke-width="0.5" stroke-linecap="butt"/><path d="M217.07608,179.96622v-52.83501h7.50221v52.83501z" fill="#969696" stroke="none" stroke-width="0" stroke-linecap="butt"/><path d="M217.07609,236.57516v-52.83501h7.50221v52.83501z" fill="#969696" stroke="none" stroke-width="0" stroke-linecap="butt"/><path d="M191.92163,179.96622v-52.83501h19.85878v52.83502z" fill="#969696" stroke="none" stroke-width="0" stroke-linecap="butt"/><path d="M191.92163,236.57516v-52.83501h19.85878v52.83502z" fill="#969696" stroke="none" stroke-width="0" stroke-linecap="butt"/><path d="M166.32587,179.96622v-52.83501h19.85878v52.83502z" fill="#969696" stroke="none" stroke-width="0" stroke-linecap="butt"/><path d="M166.32587,236.57516v-52.83501h19.85878v52.83502z" fill="#969696" stroke="none" stroke-width="0" stroke-linecap="butt"/><path d="M191.92163,293.38193v-52.83502h19.85878v52.83502z" fill="#969696" stroke="none" stroke-width="0" stroke-linecap="butt"/><path d="M191.92163,349.99087v-52.83501h19.85878v52.83501z" fill="#969696" stroke="none" stroke-width="0" stroke-linecap="butt"/><path d="M166.32585,293.38193v-52.83502h19.85878v52.83502z" fill="#969696" stroke="none" stroke-width="0" stroke-linecap="butt"/><path d="M166.32585,349.99087v-52.83501h19.85878v52.83501z" fill="#969696" stroke="none" stroke-width="0" stroke-linecap="butt"/><path d="M235.18218,301.80211v-47.63691h72.76819v47.63691z" fill="#969696" stroke="none" stroke-width="0" stroke-linecap="butt"/><text transform="translate(236.11458,260.21231) scale(0.14987,0.14987)" font-size="40" xml:space="preserve" fill="#757575" fill-rule="nonzero" stroke="none" stroke-width="1" stroke-linecap="butt" stroke-linejoin="miter" stroke-miterlimit="10" stroke-dasharray="" stroke-dashoffset="0" font-family="Sans Serif" font-weight="normal" text-anchor="start" style="mix-blend-mode: normal"><tspan x="0" dy="0">reasons why i hate robo:</tspan></text><text transform="translate(236.11458,262.69666) scale(0.03449,0.03449)" font-size="40" xml:space="preserve" fill="#757575" fill-rule="nonzero" stroke="none" stroke-width="1" stroke-linecap="butt" stroke-linejoin="miter" stroke-miterlimit="10" stroke-dasharray="" stroke-dashoffset="0" font-family="Sans Serif" font-weight="normal" text-anchor="start" style="mix-blend-mode: normal"><tspan x="0" dy="0">iuebfaliwebfilahberwibaweipf uhipauwehfpo auwhefpoiuehawepiufhpiau hipuewhrfpoiauwhefop8ih poawu</tspan><tspan x="0" dy="46.15px">aiweyfgioyawyegfoiuawubhefiouya bgioawiueofghoiauweg oiuawgef oiauwegh iouawe i</tspan><tspan x="0" dy="46.15px">aiewufgoiaweygfoiyawygefiyoawgeoifygg iyuaeggaweoiyfgoiayweg ayiug   aoiyuwef goyuafgiyag</tspan><tspan x="0" dy="46.15px">awyiuefguyawyegfuoyawgefoi ioagef ogao</tspan><tspan x="0" dy="46.15px"> </tspan><tspan x="0" dy="46.15px"> </tspan><tspan x="0" dy="46.15px">aiewugfio awgefiouawbeiof g io aiuwegofi ugoiaegfpiouaweh iouawge iou ae yioauweiuyf goiauweogieu g</tspan><tspan x="0" dy="46.15px">aiwueyf ioaweygfuyegfoiauw ioawe iuehgai uo hiauowg iiaouwe aeiu aewu </tspan><tspan x="0" dy="46.15px">ikae iyuae giygiaewyf goia ewgfoiuawghef iuaweiu eiua ge oiagiwue giaouygvfoi gawuy fgauy floiab few iou</tspan><tspan x="0" dy="46.15px">kauewyf iuyawe gfiygawef oyuiga wefiougawuiey fgaiolweiy eguiyaew uyiaeuaye wuya ew'</tspan><tspan x="0" dy="46.15px">aiwue fyiuawe gfoiua gwef iouaghw efuiaewf ioa wefi ougaweoif ugaiouwe goiuawe fig oau</tspan><tspan x="0" dy="46.15px">uebfaliwebfilahberwibaweipf uhipauwehfpo auwhefpoiuehawepiufhpiau hipuewhrfpoiauwhefop8ih poawu</tspan><tspan x="0" dy="46.15px">aiweyfgioyawyegfoiuawubhefiouya bgioawiueofghoiauweg oiuawgef oiauwegh iouawe i</tspan><tspan x="0" dy="46.15px"> </tspan><tspan x="0" dy="46.15px"> </tspan><tspan x="0" dy="46.15px">aiewufgoiaweygfoiyawygefiyoawgeoifygg iyuaeggaweoiyfgoiayweg ayiug   aoiyuwef goyuafgiyag</tspan><tspan x="0" dy="46.15px">awyiuefguyawyegfuoyawgefoi ioagef ogao</tspan><tspan x="0" dy="46.15px"> </tspan><tspan x="0" dy="46.15px"> </tspan><tspan x="0" dy="46.15px">aiewugfio awgefiouawbeiof g io aiuwegofi ugoiaegfpiouaweh iouawge iou ae yioauweiuyf goiauweogieu g</tspan><tspan x="0" dy="46.15px">aiwueyf ioaweygfuyegfoiauw ioawe iuehgai uo hiauowg iiaouwe aeiu aewu </tspan><tspan x="0" dy="46.15px">ikae iyuae giygiaewyf goia ewgfoiuawghef iuaweiu eiua ge oiagiwue giaouygvfoi gawuy fgauy floiab few iou</tspan><tspan x="0" dy="46.15px">kauewyf iuyawe gfiygawef oyuiga wefiougawuiey fgaiolweiy eguiyaew uyiaeuaye wuya ew'</tspan><tspan x="0" dy="46.15px">aiwue fyiuawe gfoiua gwef iouaghw efuiaewf ioa wefi ougaweoif ugaiouwe goiuawe fig oau</tspan></text><text transform="translate(331.58768,321.15954) rotate(-27.61328) scale(0.15822,0.18861) skewX(-12.62796)" font-size="40" xml:space="preserve" fill="#969696" fill-rule="nonzero" stroke="none" stroke-width="1" stroke-linecap="butt" stroke-linejoin="miter" stroke-miterlimit="10" stroke-dasharray="" stroke-dashoffset="0" font-family="Marker" font-weight="normal" text-anchor="start" style="mix-blend-mode: normal"><tspan x="0" dy="0">HUMANOID</tspan></text><path d="M331.28281,330.58009c-0.5,-0.00109 -0.49891,-0.50109 -0.49891,-0.50109l0.00183,-0.83997c0.01454,-2.656 -0.05236,-5.4924 0.59005,-8.07871c0,0 0.12127,-0.48507 0.60634,-0.3638c0.48507,0.12127 0.3638,0.60634 0.3638,0.60634c-0.62963,2.50105 -0.54618,5.27017 -0.5602,7.83999l-0.00182,0.83833c0,0 -0.00109,0.5 -0.50109,0.49891z" fill="#969696" stroke="none" stroke-width="0.5" stroke-linecap="butt"/><path d="M333.08687,333.17637c-0.5,0 -0.5,-0.5 -0.5,-0.5v-0.50483c0,-0.79913 -0.23663,-1.90341 0.20389,-2.54651c-0.05435,-0.05914 -0.09464,-0.13141 -0.11557,-0.21151l-0.04766,-0.1668c-0.08169,-0.08869 -0.1501,-0.22181 -0.10925,-0.405c-0.00233,-0.0196 -0.00354,-0.03954 -0.00354,-0.05977c0,-0.13709 0.05517,-0.26129 0.14452,-0.35161c-0.00029,-0.00652 -0.00028,-0.01008 -0.00028,-0.01008l0.00033,-0.14941c0.00622,-2.81952 0.08912,-5.55897 0.43624,-8.34941c0,0 0.06202,-0.49614 0.55816,-0.43412c0.49614,0.06202 0.43412,0.55816 0.43412,0.55816c-0.34519,2.74913 -0.4224,5.44907 -0.42852,8.22758l-0.00012,0.05581c0.1703,0.07972 0.28827,0.25263 0.28827,0.45309c0,0.03042 -0.00272,0.06021 -0.00792,0.08913c0.05064,0.07818 0.08004,0.17139 0.08004,0.27146c0,0.19475 -0.11135,0.3635 -0.27385,0.44605l-0.03224,0.11822l-0.05522,-0.01506c-0.01749,0.82301 -0.0714,1.64021 -0.0714,2.47978v0.50483c0,0 0,0.5 -0.5,0.5z" fill="#969696" stroke="none" stroke-width="0.5" stroke-linecap="butt"/><path d="M337.95314,327.54993c-0.49882,0.03431 -0.53313,-0.46451 -0.53313,-0.46451l-0.0152,-0.22093c-0.20374,-2.96203 -0.34658,-5.93114 -0.34658,-8.90035c0,0 0,-0.5 0.5,-0.5c0.5,0 0.5,0.5 0.5,0.5c0,2.94632 0.14205,5.89253 0.34422,8.83173l0.0152,0.22093c0,0 0.03431,0.49882 -0.46451,0.53313z" fill="#969696" stroke="none" stroke-width="0.5" stroke-linecap="butt"/><path d="M339.8955,330.29075c-0.49913,0.02946 -0.52859,-0.46967 -0.52859,-0.46967l-0.04665,-0.79034c-0.25635,-4.34312 -0.53117,-8.66251 -0.53117,-13.01382c0,0 0,-0.5 0.5,-0.5c0.5,0 0.5,0.5 0.5,0.5c0,4.33162 0.27424,8.6314 0.52943,12.9549l0.04665,0.79034c0,0 0.02946,0.49913 -0.46967,0.52859z" fill="#969696" stroke="none" stroke-width="0.5" stroke-linecap="butt"/><path d="M341.66951,325.96449c-0.5,0.0005 -0.5005,-0.4995 -0.5005,-0.4995l-0.00065,-0.73311c-0.10894,-3.04395 -0.71659,-6.57996 0.01558,-9.55741c0,0 0.12127,-0.48507 0.60634,-0.3638c0.48507,0.12127 0.3638,0.60634 0.3638,0.60634c-0.72895,2.86024 -0.09031,6.3666 0.01411,9.29653l0.00082,0.75047c0,0 0.0005,0.5 -0.4995,0.5005z" fill="#969696" stroke="none" stroke-width="0.5" stroke-linecap="butt"/><path d="M345.19559,320.79126l-0.11759,-0.05976c-1.96852,-0.86338 -1.7801,-3.48619 -2.56775,-5.2327c0,0 -0.20307,-0.45691 0.25384,-0.65998c0.45691,-0.20307 0.65998,0.25384 0.65998,0.25384c0.54549,1.24275 0.57938,3.73976 1.76882,4.56668c-0.27702,-2.1411 -0.56137,-4.28108 -0.56216,-6.38294c0,0 0,-0.5 0.5,-0.5c0.5,0 0.5,0.5 0.5,0.5c-0.00195,4.95404 1.54635,10.088 0.93368,14.99062l0.00386,0.0101c0,0 0,0.5 -0.5,0.5c-0.5,0 -0.5,-0.5 -0.5,-0.5l0.00386,-0.13414c0.29885,-2.39017 0.07489,-4.84415 -0.22936,-7.30565c-0.08711,-0.01604 -0.14718,-0.04607 -0.14718,-0.04607z" fill="#969696" stroke="none" stroke-width="0.5" stroke-linecap="butt"/><path d="M349.25537,333.00648c-0.47434,0.15811 -0.63246,-0.31623 -0.63246,-0.31623l-0.16798,-0.5471c-0.21133,-2.40701 -0.1501,-4.79156 -0.10422,-7.18877c-0.47465,-0.01661 -0.47465,-0.49956 -0.47465,-0.49956v-0.29814c0.00004,-1.06881 -0.01557,-2.1371 -0.03955,-3.20514c-0.10262,-0.14106 -0.10465,-0.31313 -0.10465,-0.31313l-0.00981,-0.83998c-0.13893,-2.77568 -0.35082,-5.54523 -0.35082,-8.32501c0,0 0,-0.28772 0.21825,-0.42664c-0.00124,-0.21836 -0.0019,-0.43674 -0.0019,-0.65514c0,0 0,-0.27085 0.19934,-0.41386c0.0812,-1.2117 0.20616,-2.40298 0.38342,-3.55659c0,0 0.07603,-0.49419 0.57021,-0.41816c0.49419,0.07603 0.41816,0.57021 0.41816,0.57021c-0.73643,4.78081 -0.55702,10.24903 -0.0848,15.07333c0.05331,0.07724 0.12191,0.21171 0.09543,0.36663c0.21154,0.14049 0.21154,0.42228 0.21154,0.42228c0,3.2231 -0.21235,6.40187 0.0702,9.6202l0.1205,0.31833c0,0 0.15811,0.47434 -0.31623,0.63246z" fill="#969696" stroke="none" stroke-width="0.5" stroke-linecap="butt"/><path d="M348.88573,336.78715c0,-0.27614 0.22386,-0.5 0.5,-0.5c0.27614,0 0.5,0.22386 0.5,0.5c0,0.27614 -0.22386,0.5 -0.5,0.5c-0.27614,0 -0.5,-0.22386 -0.5,-0.5z" fill="#969696" stroke="none" stroke-width="0.5" stroke-linecap="butt"/><path d="M350.61879,311.26412c0.21738,-0.21738 0.43477,-0.16745 0.56997,-0.09674c-0.0843,-1.61113 -0.18369,-3.22284 -0.42241,-4.81233c0,0 -0.07417,-0.49447 0.4203,-0.56864c0.49447,-0.07417 0.56864,0.4203 0.56864,0.4203c0.37726,2.51809 0.41598,5.09014 0.58221,7.63021l0.00027,0.95399c0,0 0,0.5 -0.5,0.5c-0.10798,0 -0.19265,-0.02332 -0.25903,-0.05989c0.05991,2.1299 0.18913,4.25344 0.31312,6.38618l0.01235,0.21234c0,0 0.02902,0.49916 -0.47014,0.52818c-0.49916,0.02902 -0.52818,-0.47014 -0.52818,-0.47014l-0.01235,-0.21234c-0.07206,-1.23947 -0.14576,-2.47587 -0.20676,-3.71221c-0.06923,0.07251 -0.17347,0.12897 -0.33029,0.13941c-0.4989,0.03322 -0.53212,-0.46567 -0.53212,-0.46567l-0.0188,-0.28232c-0.14641,-2.19863 -0.2702,-4.39827 -0.27078,-6.60219c0,0 0,-0.5 0.5,-0.5c0.5,0 0.5,0.5 0.5,0.5c-0.00006,0.20336 0.00097,0.40669 0.003,0.60999c0.02148,-0.03252 0.04819,-0.06532 0.08099,-0.09812z" fill="#969696" stroke="none" stroke-width="0.5" stroke-linecap="butt"/><path d="M354.43405,320.77193c-0.5,0 -0.5,-0.5 -0.5,-0.5v-0.21636c0.00022,-3.70428 -0.28848,-7.40091 -0.28848,-11.1063c0,0 0,-0.5 0.5,-0.5c0.5,0 0.5,0.5 0.5,0.5c0,3.70539 0.28825,7.40198 0.28848,11.1063v0.21636c0,0 0,0.5 -0.5,0.5z" fill="#969696" stroke="none" stroke-width="0.5" stroke-linecap="butt"/><path d="M357.25426,322.14213c-0.49994,0.00757 -0.50752,-0.49237 -0.50752,-0.49237l-0.00607,-0.40044l-0.00913,-0.08817c-0.43006,-4.15742 -0.11219,-9.09395 -1.12384,-13.10028c0,0 -0.12127,-0.48507 0.3638,-0.60634c0.48507,-0.12127 0.60634,0.3638 0.60634,0.3638c0.06048,0.24408 0.11626,0.49129 0.1678,0.7413c0.00067,-0.30282 0.00103,-0.60566 0.00103,-0.9085c0,0 0,-0.5 0.5,-0.5c0.5,0 0.5,0.5 0.5,0.5c0,4.4089 -0.07837,8.81499 -0.01158,13.22318l0.00479,0.31586l0.00414,0.03996c0,0 0.00446,0.04311 -0.00194,0.10526l0.00453,0.29923c0,0 0.00757,0.49994 -0.49237,0.50752z" fill="#969696" stroke="none" stroke-width="0.5" stroke-linecap="butt"/></g></g></svg>