<svg version="1.1" xmlns="http://www.w3.org/2000/svg" xmlns:xlink="http://www.w3.org/1999/xlink" width="36.73335" height="30.34137" viewBox="0,0,36.73335,30.34137"><g transform="translate(-300.27741,-169.3913)"><g data-paper-data="{&quot;isPaintingLayer&quot;:true}" fill-rule="nonzero" stroke="#000000" stroke-width="2" stroke-linecap="butt" stroke-linejoin="miter" stroke-miterlimit="10" stroke-dasharray="" stroke-dashoffset="0" style="mix-blend-mode: normal"><path d="M306.54993,184.73609c3.31445,0.63133 5.45631,4.00081 4.78398,7.52594c-0.67232,3.52513 -3.90422,5.871 -7.21868,5.23966c-3.31445,-0.63133 -3.10528,-3.553 -2.43295,-7.0781c0.67232,-3.52513 1.55319,-6.31883 4.86765,-5.68749z" fill="#814545"/><path d="M309.0076,172.36634c1.35253,-2.22905 22.47459,-2.81962 25.2478,-0.47142c2.63804,2.23374 2.13162,22.29678 -0.37984,24.11278c-1.76194,1.27404 -21.86978,1.30939 -24.11278,-0.37984c-2.63215,-1.98232 -2.04728,-21.13203 -0.75518,-23.26152z" fill="#c76969"/><path d="M306.90639,195.05039c-0.06207,-3.45954 2.79618,-6.32125 6.38409,-6.39183c3.5879,-0.07055 6.5468,2.67673 6.60885,6.13626c0.06207,3.45954 -2.84021,3.8673 -6.42811,3.93786c-3.5879,0.07055 -6.50276,-0.22277 -6.56483,-3.68229z" fill="#814545"/></g></g></svg>