<svg version="1.1" xmlns="http://www.w3.org/2000/svg" xmlns:xlink="http://www.w3.org/1999/xlink" width="42.63311" height="27.61639" viewBox="0,0,42.63311,27.61639"><g transform="translate(-292.45979,-165.76769)"><g data-paper-data="{&quot;isPaintingLayer&quot;:true}" fill-rule="nonzero" stroke="#000000" stroke-linejoin="miter" stroke-miterlimit="10" stroke-dasharray="" stroke-dashoffset="0" style="mix-blend-mode: normal"><path d="M297.16419,178.53409c3.37404,-0.00678 6.11438,2.89691 6.12075,6.48558c0.00637,3.58866 -2.72365,6.50333 -6.0977,6.5101c-3.37404,0.00678 -3.72109,-2.90173 -3.72745,-6.49037c-0.00637,-3.58866 0.33036,-6.49853 3.7044,-6.50531z" fill="#814545" stroke-width="2" stroke-linecap="butt"/><path d="M307.08975,168.74272c1.35253,-2.22905 22.47459,-2.81962 25.2478,-0.47142c2.63804,2.23374 2.13162,22.29678 -0.37984,24.11278c-1.76194,1.27404 -21.86978,1.30939 -24.11278,-0.37984c-2.63215,-1.98232 -2.04728,-21.13203 -0.75518,-23.26152z" fill="#c76969" stroke-width="2" stroke-linecap="butt"/><path d="M297.77486,169.09629c3.45906,0.08486 6.19685,3.06202 6.11504,6.64969c-0.08183,3.58766 -2.95225,6.42726 -6.4113,6.34238c-3.45906,-0.08486 -3.74323,-3.00183 -3.66141,-6.5895c0.08183,-3.58766 0.49864,-6.48744 3.95768,-6.40258z" fill="#814545" stroke-width="2" stroke-linecap="butt"/><path d="M325.55199,179.22633l-6.42137,3.95895l-5.43347,-4.10557" data-paper-data="{&quot;index&quot;:null}" fill="none" stroke-width="3" stroke-linecap="round"/><path d="M313.6165,190.28938l5.43347,-2.78592l6.42137,2.68643" data-paper-data="{&quot;index&quot;:null}" fill="none" stroke-width="3" stroke-linecap="round"/></g></g></svg>