<svg version="1.1" xmlns="http://www.w3.org/2000/svg" xmlns:xlink="http://www.w3.org/1999/xlink" width="32.69619" height="41.7345" viewBox="0,0,32.69619,41.7345"><g transform="translate(-306.56011,-159.15889)"><g data-paper-data="{&quot;isPaintingLayer&quot;:true}" fill-rule="nonzero" stroke-linejoin="miter" stroke-miterlimit="10" stroke-dasharray="" stroke-dashoffset="0" style="mix-blend-mode: normal"><path d="M317.85329,196.18899c-0.00678,-3.37404 2.89691,-6.11438 6.48558,-6.12075c3.58866,-0.00637 6.50333,2.72365 6.5101,6.0977c0.00678,3.37404 -2.90173,3.72109 -6.49037,3.72745c-3.58866,0.00637 -6.49853,-0.33036 -6.50531,-3.7044z" fill="#adadad" stroke="#000000" stroke-width="2" stroke-linecap="butt"/><path d="M308.6215,192.62934c-2.10263,-1.54173 -0.84925,-22.63484 1.7318,-25.19275c2.45525,-2.43323 22.39773,-0.17939 23.98783,2.48085c1.11556,1.86631 -0.60249,21.90066 -2.48085,23.98783c-2.20428,2.44928 -21.23006,0.19693 -23.23877,-1.27593z" fill="#c7c7c7" stroke="#000000" stroke-width="2" stroke-linecap="butt"/><g fill="#000000" stroke="none" stroke-width="0" stroke-linecap="butt"><path d="M324.45261,181.75933c-0.41104,3.97442 -2.11657,7.05441 -3.80936,6.87933c-1.6928,-0.17506 -2.73189,-3.53891 -2.32086,-7.51334c0.41104,-3.97442 2.11657,-7.05441 3.80936,-6.87933c1.6928,0.17506 2.73189,3.53891 2.32086,7.51334z"/><path d="M331.54326,182.22329c-0.41104,3.97442 -1.84806,7.08218 -3.20968,6.94136c-1.36161,-0.14083 -2.13221,-3.47689 -1.72118,-7.45132c0.41104,-3.97442 1.84807,-7.08219 3.20967,-6.94137c1.36161,0.14083 2.13219,3.47689 1.72116,7.45131z"/></g><path d="M308.89102,191.94372c-0.00678,-3.37404 2.89691,-6.11438 6.48558,-6.12075c3.58866,-0.00637 6.50333,2.72365 6.5101,6.0977c0.00678,3.37404 -2.90173,3.72109 -6.49037,3.72745c-3.58866,0.00637 -6.49853,-0.33036 -6.50531,-3.7044z" fill="#adadad" stroke="#000000" stroke-width="2" stroke-linecap="butt"/><path d="M309.43751,169.39455c1.46415,-6.24588 14.5856,-8.95703 14.5856,-8.95703c0,0 -0.85748,4.76254 3.25578,5.91695c6.10755,-3.47737 10.59612,-0.55859 10.59612,-0.55859l-3.52632,5.45415" fill="#c7c7c7" stroke="#000000" stroke-width="2" stroke-linecap="round"/></g></g></svg>