<svg version="1.1" xmlns="http://www.w3.org/2000/svg" xmlns:xlink="http://www.w3.org/1999/xlink" width="49.20044" height="66.4955" viewBox="0,0,49.20044,66.4955"><defs><radialGradient cx="328.60374" cy="208.88559" r="14.46971" gradientUnits="userSpaceOnUse" id="color-1"><stop offset="0" stop-color="#ffff00" stop-opacity="0.54118"/><stop offset="1" stop-color="#ffff00" stop-opacity="0"/></radialGradient></defs><g transform="translate(-293.87499,-156.86176)"><g data-paper-data="{&quot;isPaintingLayer&quot;:true}" fill-rule="nonzero" stroke-linejoin="miter" stroke-miterlimit="10" stroke-dasharray="" stroke-dashoffset="0" style="mix-blend-mode: normal"><path d="M327.56541,191.26564c4.41022,-0.32444 8.26423,3.21526 8.60819,7.90609c0.34396,4.69083 -2.95236,8.75649 -7.3626,9.08091c-4.41022,0.32444 -5.13595,-3.44539 -5.4799,-8.13621c-0.34396,-4.69083 -0.17591,-8.52639 4.23431,-8.85081z" fill="#adadad" stroke="#000000" stroke-width="2" stroke-linecap="butt"/><path d="M303.63261,182.08906c-1.61451,-2.04729 5.2266,-22.03951 8.39704,-23.8152c3.01591,-1.68912 21.6321,5.80882 22.45398,8.7971c0.5766,2.09646 -6.42954,20.94428 -8.7971,22.45398c-2.77833,1.77163 -20.51152,-5.48007 -22.05394,-7.43589z" fill="#c7c7c7" stroke="#000000" stroke-width="2" stroke-linecap="butt"/><path d="M296.53139,191.995c-1.79667,-2.95707 -0.76958,-6.86911 2.29409,-8.73781c3.06367,-1.86867 7.00374,-0.98639 8.80039,1.97068c1.79667,2.95707 -0.50487,4.77156 -3.56854,6.64026c-3.06367,1.86867 -5.72931,3.08392 -7.52596,0.12686z" fill="#adadad" stroke="#000000" stroke-width="2" stroke-linecap="butt"/><g fill="#000000" stroke="none" stroke-width="0" stroke-linecap="butt"><path d="M321.79173,175.84181c-1.45755,3.72029 -3.92369,6.23292 -5.50823,5.61211c-1.58456,-0.62079 -1.68754,-4.13997 -0.23,-7.86026c1.45755,-3.72029 3.92369,-6.23292 5.50823,-5.61211c1.58456,0.62079 1.68754,4.13997 0.23,7.86026z"/><path d="M328.50093,178.18261c-1.45755,3.72029 -3.67235,6.33139 -4.9469,5.83205c-1.27454,-0.49935 -1.12621,-3.92004 0.33135,-7.64034c1.45755,-3.72029 3.67236,-6.33139 4.94689,-5.83206c1.27454,0.49935 1.12618,3.92005 -0.33136,7.64033z"/></g><path d="M329.37384,202.61505c-1.36514,0.67945 -2.64177,0.4318 -3.13466,-0.75254c-0.37811,-0.90854 -0.20963,-2.16315 0.3587,-3.358c-0.09001,-0.03342 -0.17443,-0.07538 -0.25323,-0.12531c-0.3759,-0.17998 -0.67668,-0.49492 -0.86413,-0.9453c-0.53789,-1.29246 0.03037,-3.28521 1.28227,-4.8101c0.18759,-0.29084 0.39668,-0.57722 0.62745,-0.855c2.84672,-3.42676 13.32605,-13.57188 11.38964,-5.365c2.20053,-0.381 3.70527,1.5309 2.58062,4.48759c-1.6276,4.27888 -4.4977,5.50666 -6.72115,9.10843c-0.35583,0.59342 -0.80927,1.15367 -1.34087,1.62696c-1.34726,1.19948 -2.80324,1.49024 -3.69035,0.86297c-0.0783,0.04477 -0.15642,0.08653 -0.23428,0.12528z" fill="#adadad" stroke="none" stroke-width="0.5" stroke-linecap="butt"/><path d="M314.29461,206.73603c1.18717,-7.90272 8.55597,-13.34674 16.45869,-12.15957c7.90272,1.18717 13.34676,8.55598 12.15959,16.4587c-1.18717,7.90272 -8.55599,13.34674 -16.45871,12.15957c-7.90272,-1.18717 -13.34674,-8.55597 -12.15957,-16.45869z" fill="url(#color-1)" stroke="none" stroke-width="NaN" stroke-linecap="butt"/><path d="M310.28248,161.11491c2.82715,-5.75864 16.20068,-2.11807 16.20068,-2.11807c0,0 -1.88164,1.10807 1.86811,3.15525c6.73169,-2.01961 10.4299,5.17219 10.4299,5.17219l-4.6376,1.18374" fill="#c7c7c7" stroke="#000000" stroke-width="2" stroke-linecap="round"/></g></g></svg>