<svg version="1.1" xmlns="http://www.w3.org/2000/svg" xmlns:xlink="http://www.w3.org/1999/xlink" width="34.06533" height="47.027" viewBox="0,0,34.06533,47.027"><g transform="translate(-303.05004,-155.78377)"><g data-paper-data="{&quot;isPaintingLayer&quot;:true}" fill-rule="nonzero" stroke-linejoin="miter" stroke-miterlimit="10" stroke-dasharray="" stroke-dashoffset="0" style="mix-blend-mode: normal"><path d="M324.50183,190.18558c1.98878,-2.7256 5.95068,-3.2198 8.84917,-1.10382c2.89848,2.11597 3.63594,6.04082 1.64714,8.76643c-1.98878,2.7256 -4.54,1.28645 -7.43846,-0.82951c-2.89848,-2.11597 -5.04664,-4.10749 -3.05786,-6.83309z" fill="#adadad" stroke="#000000" stroke-width="2" stroke-linecap="butt"/><path d="M309.12801,190.33072c-2.33766,-1.15473 -4.75239,-22.14661 -2.65277,-25.11247c1.99727,-2.82131 22.02895,-4.05158 24.05532,-1.70656c1.42162,1.64518 3.19551,21.67465 1.70656,24.05532c-1.7473,2.79369 -20.87587,3.86685 -23.1091,2.76372z" fill="#c7c7c7" stroke="#000000" stroke-width="2" stroke-linecap="butt"/><path d="M304.83044,192.70329c2.00806,-2.8178 6.00794,-3.41784 8.93397,-1.34026c2.92601,2.0776 3.67019,6.04608 1.66212,8.86386c-2.00806,2.8178 -4.58355,1.41909 -7.50958,-0.65851c-2.92601,-2.0776 -5.09456,-4.04734 -3.08651,-6.8651z" fill="#adadad" stroke="#000000" stroke-width="2" stroke-linecap="butt"/><g fill="#000000" stroke="none" stroke-width="0" stroke-linecap="butt"><path d="M322.83984,176.88575c0.28275,3.98561 -0.8642,7.31421 -2.56176,7.43463c-1.69756,0.12043 -3.30295,-3.01291 -3.5857,-6.99852c-0.28275,-3.98561 0.8642,-7.31421 2.56176,-7.43463c1.69756,-0.12043 3.30295,3.01291 3.5857,6.99852z"/><path d="M329.90384,176.116c0.28275,3.98561 -0.59495,7.29512 -1.96039,7.39198c-1.36544,0.09686 -2.70158,-3.05558 -2.98433,-7.04119c-0.28275,-3.98561 0.59496,-7.29512 1.96038,-7.39199c1.36544,-0.09686 2.70156,3.05559 2.98431,7.04119z"/></g><path d="M305.77772,168.18122c0.07955,-6.4147 14.01906,-10.80504 14.01906,-10.80504c0,0 -1.52205,3.74248 2.74349,3.98056c5.21158,-4.71527 11.93914,-1.74283 11.93914,-1.74283l-3.97832,4.99459" fill="#c7c7c7" stroke="#000000" stroke-width="2" stroke-linecap="round"/></g></g></svg>