<svg version="1.1" xmlns="http://www.w3.org/2000/svg" xmlns:xlink="http://www.w3.org/1999/xlink" width="51.26404" height="48.98802" viewBox="0,0,51.26404,48.98802"><defs><radialGradient cx="340.26721" cy="198.77982" r="7.54757" gradientUnits="userSpaceOnUse" id="color-1"><stop offset="0" stop-color="#ffff00" stop-opacity="0.54118"/><stop offset="1" stop-color="#ffff00" stop-opacity="0"/></radialGradient></defs><g transform="translate(-296.55176,-157.3404)"><g data-paper-data="{&quot;isPaintingLayer&quot;:true}" fill-rule="nonzero" stroke-linejoin="miter" stroke-miterlimit="10" stroke-dasharray="" stroke-dashoffset="0" style="mix-blend-mode: normal"><path d="M339.4877,179.72592c3.6258,0.84062 5.83954,4.64815 4.94454,8.50438c-0.89499,3.85622 -4.55979,6.30085 -8.18561,5.46023c-3.6258,-0.84062 -3.26767,-4.05189 -2.37267,-7.9081c0.89499,-3.85622 1.98793,-6.89713 5.61373,-6.05652z" fill="#adadad" stroke="#000000" stroke-width="2" stroke-linecap="butt"/><path d="M304.74803,187.81049c-1.96124,-1.71801 1.11382,-22.62337 3.90667,-24.94818c2.65672,-2.21149 22.32914,1.76065 23.68292,4.54858c0.94977,1.9559 -2.49654,21.76624 -4.54858,23.68292c-2.40807,2.24922 -21.16737,-1.64207 -23.04102,-3.28332z" fill="#c7c7c7" stroke="#000000" stroke-width="2" stroke-linecap="butt"/><path d="M298.15831,195.26974c-0.66088,-3.3964 1.65797,-6.71029 5.17932,-7.40181c3.52134,-0.69149 6.91171,1.50123 7.57257,4.89762c0.66088,3.3964 -2.12676,4.30112 -5.64811,4.99263c-3.52134,0.69149 -6.44292,0.90793 -7.10379,-2.48845z" fill="#adadad" stroke="#000000" stroke-width="2" stroke-linecap="butt"/><g fill="#000000" stroke="none" stroke-width="0" stroke-linecap="butt"><path d="M321.46089,178.35206c-0.75363,3.92391 -2.71944,6.84465 -4.39071,6.52365c-1.67129,-0.32098 -2.41521,-3.76217 -1.66158,-7.68608c0.75363,-3.92391 2.71944,-6.84465 4.39071,-6.52365c1.67129,0.32098 2.41521,3.76217 1.66158,7.68608z"/><path d="M328.48474,179.42824c-0.75363,3.92391 -2.45435,6.89557 -3.79865,6.63738c-1.3443,-0.2582 -1.82315,-3.64845 -1.06952,-7.57237c0.75363,-3.92391 2.45436,-6.89557 3.79864,-6.63739c1.3443,0.2582 1.82313,3.64846 1.0695,7.57236z"/></g><path d="M332.8034,197.65859c0.61924,-4.12215 4.46289,-6.96182 8.58505,-6.34257c4.12215,0.61924 6.96183,4.4629 6.34258,8.58505c-0.61924,4.12215 -4.4629,6.96182 -8.58506,6.34257c-4.12215,-0.61924 -6.96182,-4.46289 -6.34257,-8.58505z" fill="url(#color-1)" stroke="none" stroke-width="NaN" stroke-linecap="butt"/><path d="M307.28332,165.47292c1.65864,-6.19707 16.25028,-7.0151 16.25028,-7.0151c0,0 -2.39777,3.2517 1.67739,4.53409c6.21325,-3.28481 12.00028,1.25456 12.00028,1.25456l-5.08693,3.85955" fill="#c7c7c7" stroke="#000000" stroke-width="2" stroke-linecap="round"/></g></g></svg>