<svg version="1.1" xmlns="http://www.w3.org/2000/svg" xmlns:xlink="http://www.w3.org/1999/xlink" width="678.23639" height="350.84427" viewBox="0,0,678.23639,350.84427"><g transform="translate(37.87992,-48.66793)"><g data-paper-data="{&quot;isPaintingLayer&quot;:true}" fill-rule="nonzero" stroke="none" stroke-linecap="butt" stroke-linejoin="miter" stroke-miterlimit="10" stroke-dasharray="" stroke-dashoffset="0" style="mix-blend-mode: normal"><path d="M-37.87992,369.49343v-203.56473h73.17073v203.56473z" fill="#adadad" stroke-width="0"/><path d="M275.09978,244.72796v137.89868h-251.06601v-137.89868z" fill="#adadad" stroke-width="0"/><path d="M69.06192,252.23265v-112.57036h144.46529v112.57036z" fill="#adadad" stroke-width="0"/><path d="M272.62664,368.11405v-228.89305h67.54221v228.89305z" fill="#adadad" stroke-width="0"/><path d="M381.44465,399.5122v-350.84427h90.05628v350.84427z" fill="#adadad" stroke-width="0"/><path d="M290.45028,396.69794v-181.98874h349.90619v181.98874z" fill="#adadad" stroke-width="0"/><path d="M381.44466,143.71411v-43.20443h218.97852v43.20443z" fill="#adadad" stroke-width="0"/><path d="M513.09541,273.31848v-224.65055h87.32776v224.65055z" fill="#adadad" stroke-width="0"/><path d="M388.65303,104.08067v-48.62907h71.90895v48.62907z" fill="#cacaca" stroke-width="0"/><text transform="translate(389.81069,65.81572) scale(0.29126,0.29126)" font-size="40" xml:space="preserve" fill="#adadad" fill-rule="nonzero" stroke="none" stroke-width="1" stroke-linecap="butt" stroke-linejoin="miter" stroke-miterlimit="10" stroke-dasharray="" stroke-dashoffset="0" font-family="Sans Serif" font-weight="normal" text-anchor="start" style="mix-blend-mode: normal"><tspan x="0" dy="0">:(</tspan></text><text transform="translate(390.46369,73.0019) scale(0.1028,0.10279)" font-size="40" xml:space="preserve" fill="#adadad" fill-rule="nonzero" stroke="none" stroke-width="1" stroke-linecap="butt" stroke-linejoin="miter" stroke-miterlimit="10" stroke-dasharray="" stroke-dashoffset="0" font-family="Sans Serif" font-weight="normal" text-anchor="start" style="mix-blend-mode: normal"><tspan x="0" dy="0">Uh oh! looks like Michaelsoft</tspan><tspan x="0" dy="46.150000000000006px">Binbows has crashed! Please stand</tspan><tspan x="0" dy="46.150000000000006px">by while we collect error info.</tspan><tspan x="0" dy="46.150000000000006px"> </tspan><tspan x="0" dy="46.150000000000006px">Recovering... (99%)</tspan><tspan x="0" dy="46.150000000000006px"> </tspan><tspan x="0" dy="46.150000000000006px">ERROR ID: l-bozo-trash-fatherless</tspan></text><path d="M85.46595,369.46444v-214.17783h46.55151v214.17783z" fill="#cacaca" stroke-width="0"/><path d="M147.70329,369.46444v-214.17783h46.55151v214.17783z" fill="#cacaca" stroke-width="0"/><path d="M275.27116,192.88774v-42.64156h6.36v42.64156z" fill="#cacaca" stroke-width="0"/><path d="M275.27116,241.43764v-42.64156h6.36v42.64156z" fill="#cacaca" stroke-width="0"/><path d="M275.27116,292.51943v-42.64156h6.36v42.64156z" fill="#cacaca" stroke-width="0"/><path d="M275.27116,341.06934v-42.64156h6.36v42.64156z" fill="#cacaca" stroke-width="0"/><path d="M285.4476,192.88774v-42.64156h10.02352v42.64156z" fill="#cacaca" stroke-width="0"/><path d="M285.4476,241.43764v-42.64156h10.02352v42.64156z" fill="#cacaca" stroke-width="0"/><path d="M285.4476,292.51943v-42.64156h10.02352v42.64156z" fill="#cacaca" stroke-width="0"/><path d="M285.4476,341.06934v-42.64156h10.02352v42.64156z" fill="#cacaca" stroke-width="0"/><path d="M300.10167,192.88774v-42.64156h14.90821v42.64156z" fill="#cacaca" stroke-width="0"/><path d="M300.10167,241.43764v-42.64156h14.90821v42.64156z" fill="#cacaca" stroke-width="0"/><path d="M300.10167,292.51943v-42.64156h14.90821v42.64156z" fill="#cacaca" stroke-width="0"/><path d="M300.10167,341.06934v-42.64156h14.90821v42.64156z" fill="#cacaca" stroke-width="0"/><path d="M318.41926,192.88774v-42.64156h10.02352v42.64156z" fill="#cacaca" stroke-width="0"/><path d="M318.41926,241.43764v-42.64156h10.02352v42.64156z" fill="#cacaca" stroke-width="0"/><path d="M318.41926,292.51943v-42.64156h10.02352v42.64156z" fill="#cacaca" stroke-width="0"/><path d="M318.41926,341.06934v-42.64156h10.02352v42.64156z" fill="#cacaca" stroke-width="0"/><path d="M331.85217,192.88774v-42.64156h6.36v42.64156z" fill="#cacaca" stroke-width="0"/><path d="M331.85217,241.43764v-42.64156h6.36v42.64156z" fill="#cacaca" stroke-width="0"/><path d="M331.85217,292.51943v-42.64156h6.36v42.64156z" fill="#cacaca" stroke-width="0"/><path d="M331.85217,341.06934v-42.64156h6.36v42.64156z" fill="#cacaca" stroke-width="0"/></g></g></svg>