<svg version="1.1" xmlns="http://www.w3.org/2000/svg" xmlns:xlink="http://www.w3.org/1999/xlink" width="67.06756" height="46.19352" viewBox="0,0,67.06756,46.19352"><defs><radialGradient cx="351.40014" cy="189.51384" r="14.46971" gradientUnits="userSpaceOnUse" id="color-1"><stop offset="0" stop-color="#ffff00" stop-opacity="0.54118"/><stop offset="1" stop-color="#ffff00" stop-opacity="0"/></radialGradient></defs><g transform="translate(-298.80519,-160.76585)"><g data-paper-data="{&quot;isPaintingLayer&quot;:true}" fill-rule="nonzero" stroke-linejoin="miter" stroke-miterlimit="10" stroke-dasharray="" stroke-dashoffset="0" style="mix-blend-mode: normal"><path d="M301.20957,194.8928c2.65256,-2.08522 6.60025,-1.48809 8.81746,1.33372c2.2172,2.82179 1.86428,6.79971 -0.78829,8.88493c-2.65256,2.08522 -4.71874,0.00898 -6.93591,-2.81281c-2.2172,-2.82179 -3.7458,-5.32062 -1.09325,-7.40583z" fill="#adadad" stroke="#000000" stroke-width="2" stroke-linecap="butt"/><path d="M337.2318,181.43352c4.80712,-0.4711 9.10712,3.18797 9.60432,8.17277c0.49718,4.98479 -2.99667,9.40768 -7.80378,9.87875c-4.80712,0.4711 -5.69727,-3.52213 -6.19447,-8.50694c-0.49718,-4.98479 -0.41316,-9.07351 4.39394,-9.5446z" fill="#adadad" stroke="#000000" stroke-width="2" stroke-linecap="butt"/><path d="M338.60836,196.27714c-3.73527,-7.06471 -1.03623,-15.81981 6.02848,-19.55508c7.06471,-3.73527 15.81983,-1.03624 19.5551,6.02847c3.73527,7.06471 1.03621,15.81982 -6.02849,19.55509c-7.06471,3.73527 -15.81981,1.03623 -19.55508,-6.02848z" fill="url(#color-1)" stroke="none" stroke-width="NaN" stroke-linecap="butt"/><path d="M306.14846,192.53856c-2.1025,-1.54192 -0.84736,-22.63492 1.73391,-25.1926c2.45546,-2.43301 22.39773,-0.17751 23.98762,2.48287c1.1154,1.86641 -0.60432,21.9006 -2.48287,23.98762c-2.20448,2.44909 -21.23007,0.19513 -23.23867,-1.27788z" fill="#c7c7c7" stroke="#000000" stroke-width="2" stroke-linecap="butt"/><g fill="#000000" stroke="none" stroke-width="0" stroke-linecap="butt"><path d="M321.98049,181.66988c-0.41137,3.97439 -2.11717,7.05424 -3.80993,6.87902c-1.69279,-0.17521 -2.7316,-3.53913 -2.32023,-7.51353c0.41137,-3.97439 2.11717,-7.05424 3.80993,-6.87902c1.69279,0.17521 2.7316,3.53913 2.32023,7.51353z"/><path d="M329.0711,182.13442c-0.41137,3.97439 -1.84865,7.08204 -3.21024,6.94109c-1.3616,-0.14095 -2.13191,-3.47707 -1.72055,-7.45146c0.41137,-3.97439 1.84866,-7.08204 3.21025,-6.94111c1.3616,0.14095 2.13189,3.47707 1.72053,7.45146z"/></g><path d="M307.29368,205.02955c-0.73685,-0.43488 -1.23117,-1.23698 -1.23117,-2.15454c0,-0.41157 0.09945,-0.79991 0.27564,-1.1423l-0.75888,-0.813c-0.05912,0.02887 -0.11869,0.05616 -0.17872,0.08175c-0.32894,0.15926 -0.69806,0.24855 -1.08804,0.24855c-1.22747,0 -2.24832,-0.88462 -2.45981,-2.05111c-0.48635,-0.45611 -0.79019,-1.10452 -0.79019,-1.82389c0,-1.3464 1.06435,-2.44421 2.39757,-2.49794c2.2676,-1.89134 5.49761,-3.86173 7.28998,-3.42554c0.96035,-0.37193 1.78414,-0.52312 2.3272,-0.3421c2.23607,0.74536 2.70192,1.67705 1.95656,3.91312c-0.06909,0.20726 -0.21818,0.40257 -0.42471,0.58631c0.4411,0.66656 0.63521,1.53492 0.45108,2.36353c-0.12473,0.56129 -0.58017,1.12451 -1.17927,1.64833c0.03601,0.19515 0.0638,0.40825 0.08273,0.64028c0.20745,-0.444 0.57125,-0.8717 1.10583,-1.24707c1.21271,-0.85151 2.65839,-1.52476 4.21483,-2.07504c-0.18511,-0.64904 0.02731,-1.41368 0.59425,-2.44256c0.28735,-0.52148 1.02421,-0.9485 1.97784,-1.3093c-0.15809,-0.63904 -0.1259,-1.38244 0.13261,-2.11821c0.30798,-0.87655 9.89027,-4.91287 10.42431,-5.12142c0.51911,-0.20272 3.00914,-1.16126 3.54303,-0.22695c0.73685,0.43488 1.23117,1.23698 1.23117,2.15454c0,0.48878 -0.14027,0.9448 -0.38275,1.33c1.02222,-0.0125 1.79826,0.25522 2.01147,1.0133c0.46066,0.45347 0.74628,1.08423 0.74628,1.7817c0,0.96245 -0.54386,1.79787 -1.34103,2.2157l1.09103,1.9093c-0.86186,1.50826 -1.72429,2.16762 -2.74156,2.48848c-1.38521,0.43692 -3.05752,0.24618 -5.40644,0.7165c-2.05896,0.41227 -6.99847,1.54347 -8.95334,2.17654c-2.08169,0.67414 -4.08758,2.951 -6.16342,2.25906c-1.28229,-0.42743 -2.0781,-1.26397 -2.25665,-2.18345c-1.00233,1.69144 -5.43453,5.3075 -6.49743,3.44741z" fill="#adadad" stroke="none" stroke-width="0.5" stroke-linecap="butt"/><path d="M307.15833,168.47292c1.65864,-6.19707 16.25027,-6.64009 16.25027,-6.64009c0,0 -2.39777,2.87669 1.6774,4.15908c6.21324,-3.28481 12.00027,1.62956 12.00027,1.62956l-5.08693,3.48455" fill="#c7c7c7" stroke="#000000" stroke-width="2" stroke-linecap="round"/></g></g></svg>