<svg version="1.1" xmlns="http://www.w3.org/2000/svg" xmlns:xlink="http://www.w3.org/1999/xlink" width="206.32305" height="64.50629" viewBox="0,0,206.32305,64.50629"><g transform="translate(-216.83849,-147.74686)"><g data-paper-data="{&quot;isPaintingLayer&quot;:true}" stroke="#000000" stroke-width="4" stroke-linejoin="miter" stroke-miterlimit="10" stroke-dasharray="" stroke-dashoffset="0" style="mix-blend-mode: normal"><path d="M218.83849,197.0059c0,-17.46024 0,-25.33914 0,-34.85994c0,-7.32944 5.56202,-12.3991 12.89146,-12.3991c9.77266,0 160.05138,0 177.20318,0c7.75178,0 12.22841,5.43706 12.22841,13.18884c0,9.59144 0,16.7128 0,33.93857c0,8.04265 -4.97549,13.37888 -13.01815,13.37888c-9.66292,0 -159.19669,0 -176.41343,0c-7.65561,0 -12.89146,-2.6314 -12.89146,-13.24726z" fill="#ffffff" fill-rule="nonzero" stroke-linecap="butt"/><path d="M232.01973,168.64052c2.83079,-2.98937 6.76881,-4.67944 10.88581,-4.67181c0.15083,-0.00334 0.30169,-0.00495 0.45255,-0.00483c2.29284,-0.0271 4.5661,0.42453 6.67446,1.32602c1.8237,0.80727 3.47874,1.95132 4.87831,3.37216c3.01206,2.91453 4.70797,6.92958 4.69729,11.12087c0.00067,0.06883 0.00097,0.13767 0.00088,0.2065c0.06401,4.19343 -1.57917,8.23278 -4.5523,11.19073c-0.04835,0.04948 -0.09698,0.09869 -0.14587,0.14763c-2.98095,3.04793 -7.0761,4.74816 -11.33924,4.70784c-0.07118,0.00082 -0.14235,0.00126 -0.21353,0.00132c-2.01496,0.02235 -4.01678,-0.32692 -5.90512,-1.03032c-2.0621,-0.79686 -3.91888,-2.04673 -5.43324,-3.65731c-2.95365,-3.03462 -4.56852,-7.126 -4.48376,-11.35989c0,-4.44788 1.49459,-8.23085 4.48376,-11.3489zM238.8963,168.09658c1.41847,-0.5513 2.92952,-0.82544 4.45125,-0.80756c0.10765,-0.00004 0.21531,0.00113 0.32294,0.00351c3.20074,0.0224 6.25056,1.3638 8.43017,3.70784c2.37406,2.47453 3.56109,5.47088 3.56109,8.98905c0,3.51847 -1.18703,6.51482 -3.56109,8.98905c-0.92017,0.97298 -1.9943,1.78779 -3.17927,2.4117c-1.72462,0.88002 -3.63785,1.32613 -5.57384,1.29965c-0.21405,0.00017 -0.42808,-0.00451 -0.64192,-0.01406c-3.0253,-0.07567 -5.88252,-1.40749 -7.8858,-3.67576c-1.08929,-1.19262 -1.93882,-2.58379 -2.50221,-4.09756c-0.56861,-1.57487 -0.85103,-3.23873 -0.83392,-4.91302c-0.00013,-0.19234 0.00309,-0.38467 0.00967,-0.57689c0.0459,-3.1223 1.22857,-6.12075 3.32646,-8.43369c1.11791,-1.26278 2.51322,-2.24934 4.07647,-2.88226z" fill="#000000" fill-rule="evenodd" stroke-linecap="round"/><path d="M269.15608,195.37174h-3.94729v-30.76462h10.64064c2.80726,-0.05005 5.51547,1.03719 7.50882,3.01451c1.04809,0.99086 1.8736,2.19317 2.4218,3.52725c0.46561,1.1784 0.69953,2.43556 0.68893,3.70256c0,2.8105 -1.03691,5.21326 -3.11073,7.20829c-1.99938,1.96565 -4.70549,3.04429 -7.50882,2.99298h-6.69335zM269.15608,167.52496v14.63143h6.69335c1.70896,0.01803 3.3476,-0.67942 4.51935,-1.92356c0.06821,-0.06922 0.13515,-0.13967 0.20079,-0.21134c1.30141,-1.42297 1.95212,-3.14632 1.95212,-5.17006c0.04148,-1.91408 -0.65788,-3.77023 -1.95212,-5.18104c-0.55685,-0.62617 -1.22614,-1.14241 -1.97321,-1.52197c-0.85432,-0.41971 -1.79514,-0.63324 -2.74694,-0.62346z" fill="#000000" fill-rule="evenodd" stroke-linecap="round"/><path d="M298.78362,167.52496h-9.24652v-2.91785h22.41881v2.91785h-9.22499v27.84677h-3.94729z" fill="#000000" fill-rule="evenodd" stroke-linecap="round"/><path d="M321.13123,195.37174h-3.94773v-30.76462h3.94773z" fill="#000000" fill-rule="evenodd" stroke-linecap="round"/><path d="M331.0065,168.64052c2.83079,-2.98937 6.76881,-4.67944 10.88581,-4.67181c0.15083,-0.00334 0.30169,-0.00495 0.45255,-0.00483c2.29284,-0.0271 4.5661,0.42453 6.67446,1.32602c1.8237,0.80727 3.47874,1.95132 4.87831,3.37216c3.01206,2.91453 4.70797,6.92958 4.69729,11.12087c0.00067,0.06883 0.00097,0.13767 0.00088,0.2065c0.06401,4.19343 -1.57917,8.23278 -4.5523,11.19073c-0.04835,0.04948 -0.09698,0.09869 -0.14587,0.14763c-2.98095,3.04793 -7.0761,4.74816 -11.33924,4.70784c-0.07118,0.00082 -0.14235,0.00126 -0.21353,0.00132c-2.01496,0.02235 -4.01678,-0.32692 -5.90512,-1.03032c-2.0621,-0.79686 -3.91888,-2.04673 -5.43324,-3.65731c-2.95365,-3.03462 -4.56852,-7.126 -4.48376,-11.35989c0,-4.44788 1.49459,-8.23085 4.48376,-11.3489zM337.88307,168.09658c1.41847,-0.5513 2.92952,-0.82544 4.45125,-0.80756c0.10765,-0.00004 0.21531,0.00113 0.32294,0.00351c3.20074,0.0224 6.25056,1.3638 8.43017,3.70784c2.37406,2.47453 3.56109,5.47088 3.56109,8.98905c0,3.51847 -1.18703,6.51482 -3.56109,8.98905c-0.92017,0.97298 -1.9943,1.78779 -3.17927,2.4117c-1.72462,0.88002 -3.63785,1.32613 -5.57384,1.29965c-0.21405,0.00017 -0.42808,-0.00451 -0.64192,-0.01406c-3.0253,-0.07567 -5.88252,-1.40749 -7.8858,-3.67576c-1.08929,-1.19262 -1.93882,-2.58379 -2.50221,-4.09756c-0.56861,-1.57487 -0.85103,-3.23873 -0.83392,-4.91302c-0.00013,-0.19234 0.00309,-0.38467 0.00967,-0.57689c0.0459,-3.1223 1.22857,-6.12075 3.32646,-8.43369c1.11791,-1.26278 2.51322,-2.24934 4.07647,-2.88226z" fill="#000000" fill-rule="evenodd" stroke-linecap="round"/><path d="M368.50753,195.37174h-3.94729v-30.76462h3.94729l15.42493,24.17848v-24.17848h3.94773v30.76462h-3.94773l-15.42493,-24.19957z" fill="#000000" fill-rule="evenodd" stroke-linecap="round"/><path d="M411.28582,166.68841l-1.50176,3.23947c-0.63309,-0.49383 -1.30786,-0.93177 -2.0167,-1.30888c-0.57746,-0.30972 -1.17656,-0.57726 -1.79263,-0.80053c-0.64792,-0.23111 -1.27197,-0.38664 -1.87215,-0.46661c-0.28566,-0.03845 -0.57339,-0.05943 -0.8616,-0.06283c-0.86376,-0.00725 -1.7221,0.137 -2.53604,0.42619c-0.50444,0.183 -0.98539,0.42517 -1.43278,0.72144c-0.44054,0.28242 -0.82147,0.64843 -1.12127,1.07733c-0.37258,0.5457 -0.5763,1.18 -0.61116,1.90291c-0.00373,0.07566 -0.00563,0.1514 -0.00571,0.22715c-0.00262,0.40184 0.06061,0.80139 0.18717,1.18278c0.04154,0.12335 0.0901,0.24423 0.14543,0.36204c0.19889,0.42326 0.52724,0.82352 0.98507,1.2008c0.05352,0.04407 0.10787,0.08714 0.16301,0.12917l1.24429,0.96529c0.08471,0.06274 0.17177,0.12224 0.26099,0.17838c0.29818,0.18952 0.73082,0.43058 1.2979,0.7232c0.02737,0.01424 0.05476,0.02844 0.08216,0.04262c0.80815,0.41476 1.25513,0.65071 1.34095,0.70782l2.03779,1.11556c0.87757,0.48331 1.5063,0.84784 1.88621,1.09359c0.04383,0.02835 0.08733,0.05721 0.13049,0.08656l1.60897,1.0725c0.20208,0.13406 0.39989,0.27443 0.59315,0.42092c0.37083,0.28237 0.66022,0.54731 0.86819,0.79482c0.02864,0.0339 0.05647,0.06848 0.08348,0.10369c0.12061,0.15827 0.23882,0.31837 0.35457,0.48023c0.20621,0.28764 0.42765,0.61028 0.66433,0.96793c0.37697,0.56692 0.64282,1.20029 0.7834,1.86644c0.14294,0.67223 0.21441,1.41594 0.21441,2.23112c0,2.46017 -1.0227,4.51979 -3.06811,6.17885c-1.97765,1.63511 -4.47059,2.51679 -7.0365,2.48859c-1.95432,-0.00672 -3.8773,-0.49168 -5.60108,-1.41257c-0.26122,-0.13639 -0.51823,-0.28072 -0.77065,-0.43278c-0.901,-0.529 -1.70197,-1.15818 -2.40291,-1.88753l1.52329,-3.30406c0.43928,0.39441 0.8961,0.76884 1.36907,1.12215c0.34172,0.25509 0.69365,0.49621 1.05493,0.72276c1.75367,1.15144 3.2755,1.76392 4.56548,1.83744c0.0872,0.00498 0.17452,0.00748 0.26186,0.00747c0.79157,0.00726 1.57902,-0.11473 2.33129,-0.36116c0.73864,-0.24813 1.42483,-0.63115 2.02373,-1.12962c0.5804,-0.4669 1.0473,-1.0594 1.36556,-1.73287c0.29692,-0.6586 0.44585,-1.37429 0.43629,-2.09667c0.00111,-1.2404 -0.44521,-2.43959 -1.25703,-3.37743c-0.08904,-0.10694 -0.18135,-0.21112 -0.2768,-0.31239c-0.81869,-0.86307 -1.75321,-1.60832 -2.77681,-2.21442c-0.31569,-0.1888 -0.63811,-0.36613 -0.96661,-0.53164l-4.39808,-2.2957c-1.23577,-0.65742 -2.35932,-1.5069 -3.32866,-2.51671c-0.1346,-0.1413 -0.26586,-0.28575 -0.39367,-0.43322c-0.99624,-1.11043 -1.54307,-2.55216 -1.53384,-4.04395c-0.03089,-1.89022 0.77165,-3.69826 2.19421,-4.94334c0.23058,-0.20993 0.47213,-0.40749 0.72364,-0.59183c1.94494,-1.43 4.19041,-2.145 6.73641,-2.145c1.66104,0.00717 3.30644,0.32132 4.85327,0.92663c0.33922,0.13022 0.67392,0.27192 1.00352,0.42487c0.26049,0.11716 0.51425,0.24874 0.76011,0.39411c0.26274,0.15378 0.53735,0.33128 0.82382,0.53252c0.20469,0.14426 0.40612,0.2931 0.60413,0.4464z" fill="#000000" fill-rule="evenodd" stroke-linecap="round"/></g></g></svg>