<svg version="1.1" xmlns="http://www.w3.org/2000/svg" xmlns:xlink="http://www.w3.org/1999/xlink" width="70.79621" height="40.5377" viewBox="0,0,70.79621,40.5377"><defs><radialGradient cx="353.42899" cy="186.61959" r="14.46971" gradientUnits="userSpaceOnUse" id="color-1"><stop offset="0" stop-color="#ffff00" stop-opacity="0.54118"/><stop offset="1" stop-color="#ffff00" stop-opacity="0"/></radialGradient></defs><g transform="translate(-297.10538,-160.55452)"><g data-paper-data="{&quot;isPaintingLayer&quot;:true}" fill-rule="nonzero" stroke-linejoin="miter" stroke-miterlimit="10" stroke-dasharray="" stroke-dashoffset="0" style="mix-blend-mode: normal"><path d="M339.79254,179.29437c4.66094,-0.90701 9.22045,2.37669 10.184,7.33434c0.96354,4.95764 -2.03377,9.71186 -6.69473,10.61886c-4.66094,0.90701 -5.91433,-3.02007 -6.87785,-7.97768c-0.96354,-4.95764 -1.27235,-9.06852 3.38859,-9.97552z" fill="#adadad" stroke="#000000" stroke-width="2" stroke-linecap="butt"/><path d="M306.48159,190.80934c-1.82072,-1.86627 2.88147,-22.46675 5.84774,-24.56578c2.82169,-1.99672 22.12277,3.50328 23.25416,6.38864c0.79374,2.02425 -4.19284,21.50399 -6.38864,23.25416c-2.57676,2.0538 -20.97386,-3.29412 -22.71327,-5.07701z" fill="#c7c7c7" stroke="#000000" stroke-width="2" stroke-linecap="butt"/><g fill="#000000" stroke="none" stroke-width="0" stroke-linecap="butt"><path d="M323.88362,182.68836c-1.0585,3.85287 -3.24693,6.61075 -4.88794,6.15991c-1.64103,-0.45083 -2.11328,-3.93969 -1.05478,-7.79257c1.0585,-3.85287 3.24693,-6.61075 4.88794,-6.15991c1.64103,0.45083 2.11328,3.93969 1.05478,7.79257z"/><path d="M330.80166,184.31104c-1.0585,3.85287 -2.98663,6.68227 -4.30659,6.31963c-1.31996,-0.36265 -1.53193,-3.77998 -0.47344,-7.63286c1.0585,-3.85287 2.98664,-6.68227 4.3066,-6.31964c1.31996,0.36265 1.53191,3.77998 0.47342,7.63284z"/></g><path d="M300.54067,187.76626c3.27634,-1.11261 6.87252,0.73845 8.03232,4.13447c1.15978,3.39601 -0.55599,7.05098 -3.83233,8.16357c-3.27634,1.11261 -4.54851,-1.52767 -5.70831,-4.92368c-1.15978,-3.39601 -1.76801,-6.26176 1.50832,-7.37437z" fill="#adadad" stroke="#000000" stroke-width="2" stroke-linecap="butt"/><path d="M342.3852,190.73169c-0.46019,0.21488 -1.02176,0.44477 -1.66026,0.68305c1.90836,-0.01165 3.39305,0.16356 3.81832,0.56856l2.14425,2.042c-0.62965,0.59963 -0.84589,1.42576 -1.72484,1.88881c-0.13405,0.07062 -0.2835,0.13279 -0.4522,0.18443c-3.36931,1.03138 -14.85753,1.01527 -16.01575,-1.32246c-0.95105,0.18747 -1.83897,0.3401 -2.62262,0.44671c-4.77323,0.64938 -5.59679,-3.1086 -2.91434,-4.45544c0.58937,-0.29591 1.29248,-0.59716 2.07793,-0.89584c-0.75326,-2.115 4.57703,-4.79982 6.43208,-6.35677c0.1602,-0.13445 0.61549,-0.59254 1.0877,-1.04247c0.21581,-0.34086 0.57052,-0.64653 1.02732,-0.89698c0.78882,-0.43248 1.8821,-0.70028 3.09032,-0.70028c2.40469,0 4.35408,1.06083 4.35408,2.36942c0,0.47458 -0.2564,0.91659 -0.69792,1.28721c-0.32612,0.6482 -1.11896,1.32512 -2.1676,2.13141c0.13475,-0.01623 0.26797,-0.03151 0.39955,-0.04583c0.30336,-0.03641 0.61859,-0.05561 0.94207,-0.05561c2.38809,0 4.32714,1.04622 4.3538,2.34235c0.12002,0.62246 -0.28615,1.27407 -1.47187,1.82771z" fill="#adadad" stroke="none" stroke-width="0.5" stroke-linecap="butt"/><path d="M300.72017,196.62503c0.2792,-0.28622 0.49181,-0.63333 0.71054,-0.97492c-0.76095,-0.45852 -1.2432,-1.13965 -1.2432,-1.90008c0,-0.88417 0.65198,-1.66114 1.63594,-2.10562c-0.25121,-0.3429 -0.39305,-0.73197 -0.39305,-1.14438c0,-1.38071 1.5899,-2.5 3.55112,-2.5c0.64179,0 1.24382,0.11986 1.76338,0.32951c4.39544,0.28354 8.89787,3.99958 7.80487,5.53852c-0.17212,0.24235 -0.50468,0.42279 -0.95166,0.54933c0.71963,0.50586 1.149,0.95299 1.149,1.20764c0,0.54422 -0.21163,0.9821 -0.58091,1.32734c0.40882,0.3722 0.6779,0.76614 0.75846,1.17266c0.9006,4.54389 -12.52874,1.1892 -12.93463,0.41599z" fill="#adadad" stroke="none" stroke-width="0.5" stroke-linecap="butt"/><path d="M340.63721,193.38293c-3.73527,-7.06471 -1.03623,-15.81981 6.02848,-19.55508c7.06471,-3.73527 15.81983,-1.03624 19.5551,6.02847c3.73527,7.06471 1.03621,15.81982 -6.02849,19.55509c-7.06471,3.73527 -15.81981,1.03623 -19.55508,-6.02848z" fill="url(#color-1)" stroke="none" stroke-width="NaN" stroke-linecap="butt"/><path d="M310.65833,169.97292c1.65864,-6.19707 15.06277,-8.20259 15.06277,-8.20259c0,0 -1.21027,4.43919 2.8649,5.72158c6.21324,-3.28481 10.81277,0.06706 10.81277,0.06706l-3.89943,5.04705" fill="#c7c7c7" stroke="#000000" stroke-width="2" stroke-linecap="round"/></g></g></svg>