<svg version="1.1" xmlns="http://www.w3.org/2000/svg" xmlns:xlink="http://www.w3.org/1999/xlink" width="35.33616" height="43.17496" viewBox="0,0,35.33616,43.17496"><defs><linearGradient x1="328.31868" y1="204.68549" x2="324.08556" y2="188.9921" gradientUnits="userSpaceOnUse" id="color-1"><stop offset="0" stop-color="#00f5ff" stop-opacity="0"/><stop offset="1" stop-color="#00f5ff"/></linearGradient></defs><g transform="translate(-308.74717,-164.91665)"><g data-paper-data="{&quot;isPaintingLayer&quot;:true}" fill-rule="nonzero" stroke-linejoin="miter" stroke-miterlimit="10" stroke-dasharray="" stroke-dashoffset="0" style="mix-blend-mode: normal"><path d="M338.97896,186.44157l-1.32457,17.7001l-17.33393,3.94994l-9.02695,-15.94117z" data-paper-data="{&quot;index&quot;:null}" fill="url(#color-1)" stroke="none" stroke-width="0" stroke-linecap="butt"/><path d="M311.08333,178.74999c-4.12671,-5.67878 1.84753,-12.83334 10.5,-12.83334c8.65246,0 21.5,7.0142 21.5,15.66667c0,8.65246 -12.84753,15.66667 -21.5,15.66667c-5.08273,0 -12.92563,-6.79587 -10.60215,-10.27207c1.79379,-2.68372 2.42054,-5.03759 0.10215,-8.22793z" fill="#c7c7c7" stroke="#000000" stroke-width="2" stroke-linecap="butt"/><g fill="none" stroke="#969696" stroke-width="0.5" stroke-linecap="round"><path d="M327.27518,188.22679l10.62635,-2.42671"/><path d="M334.75306,190.23489l-10.62635,2.42671"/><path d="M330.00392,193.52258l6.88192,-9.6937"/><path d="M332.02433,184.93911l-6.88191,9.69367"/></g></g></g></svg>