<svg version="1.1" xmlns="http://www.w3.org/2000/svg" xmlns:xlink="http://www.w3.org/1999/xlink" width="34.7788" height="45.71971" viewBox="0,0,34.7788,45.71971"><g transform="translate(-303.18804,-159.80525)"><g data-paper-data="{&quot;isPaintingLayer&quot;:true}" fill-rule="nonzero" stroke-linejoin="miter" stroke-miterlimit="10" stroke-dasharray="" stroke-dashoffset="0" style="mix-blend-mode: normal"><path d="M324.17387,198.42786c0.79409,-3.27927 4.26513,-5.25228 7.7528,-4.40686c3.48766,0.84541 5.67123,4.18912 4.87713,7.46839c-0.79409,3.27927 -3.70187,2.92621 -7.18951,2.08079c-3.48766,-0.84541 -6.23451,-1.86305 -5.44042,-5.14232z" fill="#adadad" stroke="#000000" stroke-width="2" stroke-linecap="butt"/><path d="M308.03923,193.95933c-2.3113,-1.2066 -4.25702,-22.24714 -2.09175,-25.16542c2.05973,-2.77604 22.11388,-3.55902 24.0874,-1.16936c1.38455,1.67649 2.71107,21.74056 1.16936,24.0874c-1.8092,2.75401 -20.95695,3.40006 -23.16501,2.24738z" fill="#c7c7c7" stroke="#000000" stroke-width="2" stroke-linecap="butt"/><path d="M305.67706,169.64761c1.06004,-6.32701 15.50716,-8.53295 15.50716,-8.53295c0,0 -2.07672,3.46555 2.10218,4.35344c5.87164,-3.8624 12.06522,0.10435 12.06522,0.10435l-4.69564,4.32712" fill="#c7c7c7" stroke="#000000" stroke-width="2" stroke-linecap="round"/><g fill="#000000" stroke="none" stroke-width="2" stroke-linecap="butt"><path d="M322.04766,180.82369c0.19375,3.99093 -1.0272,7.2931 -2.72702,7.37562c-1.69983,0.08253 -3.2349,-3.08587 -3.42865,-7.07679c-0.19375,-3.99093 1.0272,-7.2931 2.72702,-7.37562c1.69983,-0.08253 3.2349,3.08587 3.42865,7.07679z"/><path d="M329.12708,180.21175c0.19375,3.99093 -0.75758,7.28002 -2.12484,7.3464c-1.36726,0.06637 -2.63272,-3.1151 -2.82647,-7.10603c-0.19375,-3.99093 0.75759,-7.28002 2.12483,-7.34641c1.36726,-0.06637 2.6327,3.11511 2.82645,7.10602z"/></g><path d="M304.18804,198.80766c0.78886,-3.36898 4.262,-5.44171 7.75751,-4.6296c3.49549,0.81213 5.68967,4.20156 4.9008,7.57052c-0.78886,3.36898 -3.70245,3.05199 -7.19795,2.23987c-3.49549,-0.81213 -6.24922,-1.81184 -5.46037,-5.1808z" fill="#adadad" stroke="#000000" stroke-width="2" stroke-linecap="butt"/><path d="M313.60615,177.57498l2.55808,-6.9273l11.92248,2.33314l1.38008,7.06323z" fill="#c7c7c7" stroke="none" stroke-width="0" stroke-linecap="butt"/><path d="M315.04488,190.09137l0.00327,-7.67504l14.31029,-1.38093l0.59998,6.34451z" fill="#c7c7c7" stroke="none" stroke-width="0" stroke-linecap="butt"/></g></g></svg>