<svg version="1.1" xmlns="http://www.w3.org/2000/svg" xmlns:xlink="http://www.w3.org/1999/xlink" width="39.51236" height="44.58367" viewBox="0,0,39.51236,44.58367"><g transform="translate(-301.5496,-158.29994)"><g data-paper-data="{&quot;isPaintingLayer&quot;:true}" fill-rule="nonzero" stroke-linejoin="miter" stroke-miterlimit="10" stroke-dasharray="" stroke-dashoffset="0" style="mix-blend-mode: normal"><path d="M323.51313,198.56592c-1.23725,-3.13901 0.46656,-6.74982 3.80556,-8.06499c3.33899,-1.31517 7.04875,0.16334 8.286,3.30237c1.23725,3.13901 -1.34418,4.52324 -4.68316,5.83839c-3.33899,1.31517 -6.17115,2.06324 -7.4084,-1.07577z" fill="#adadad" stroke="#000000" stroke-width="2" stroke-linecap="butt"/><path d="M306.90936,189.39536c-2.02132,-1.64691 0.30554,-22.64871 3.01361,-25.07173c2.57608,-2.30492 22.37776,0.96245 23.8302,3.70028c1.01898,1.92075 -1.71797,21.84148 -3.70028,23.8302c-2.32625,2.33375 -21.21249,-0.88542 -23.14353,-2.45874z" fill="#c7c7c7" stroke="#000000" stroke-width="2" stroke-linecap="butt"/><path d="M302.89121,199.324c-0.98847,-3.3159 0.99666,-6.83985 4.43393,-7.87098c3.43727,-1.0311 7.02505,0.82105 8.0135,4.13695c0.98847,3.3159 -1.69782,4.48778 -5.1351,5.5189c-3.43727,1.0311 -6.32388,1.53101 -7.31235,-1.78487z" fill="#adadad" stroke="#000000" stroke-width="2" stroke-linecap="butt"/><g fill="#000000" stroke="none" stroke-width="0" stroke-linecap="butt"><path d="M323.39894,179.34637c-0.61308,3.94831 -2.47338,6.93736 -4.15504,6.67623c-1.68168,-0.26112 -2.54797,-3.67355 -1.9349,-7.62186c0.61308,-3.94831 2.47338,-6.93736 4.15504,-6.67623c1.68168,0.26112 2.54797,3.67355 1.9349,7.62186z"/><path d="M330.45673,180.17114c-0.61308,3.94831 -2.20663,6.97879 -3.5593,6.76875c-1.35266,-0.21005 -1.95222,-3.58105 -1.33914,-7.52936c0.61308,-3.94831 2.20664,-6.97879 3.55929,-6.76876c1.35266,0.21005 1.9522,3.58105 1.33912,7.52935z"/></g><path d="M309.3154,166.11035c1.77137,-6.1658 16.51405,-6.72746 16.51405,-6.72746c0,0 -2.59522,3.21731 1.45589,4.5738c6.27211,-3.17094 12.11395,1.46332 12.11395,1.46332l-5.29501,3.77603" fill="#c7c7c7" stroke="#000000" stroke-width="2" stroke-linecap="round"/></g></g></svg>