<svg version="1.1" xmlns="http://www.w3.org/2000/svg" xmlns:xlink="http://www.w3.org/1999/xlink" width="156.12082" height="182.41189" viewBox="0,0,156.12082,182.41189"><g transform="translate(-241.95154,-89.33344)"><g data-paper-data="{&quot;isPaintingLayer&quot;:true}" fill-rule="nonzero" stroke="#000000" stroke-width="4" stroke-linecap="butt" stroke-linejoin="miter" stroke-miterlimit="10" stroke-dasharray="" stroke-dashoffset="0" style="mix-blend-mode: normal"><path d="M246.76697,228.29246l23.01926,-30.93592l23.01926,30.93592l-23.01926,30.93592z" data-paper-data="{&quot;index&quot;:null}" fill="#797979"/><path d="M359.36956,262.97839l-23.01925,-30.93592l23.01925,-30.93592l23.01926,30.93592z" data-paper-data="{&quot;index&quot;:null}" fill="#797979"/><path d="M249.68366,234.54245l23.01925,-30.93592l23.01925,30.93592l-23.01925,30.93592z" data-paper-data="{&quot;index&quot;:null}" fill="#797979"/><path d="M297.28623,268.39505l-23.01926,-30.93592l23.01926,-30.93592l23.01925,30.93592z" data-paper-data="{&quot;index&quot;:null}" fill="#797979"/><path d="M395.72191,171.32145l0.32609,55.42935l-28.5713,-14.91667l-122.09537,13.25l0.15625,-63.34375l121.35579,-6.32291z" data-paper-data="{&quot;index&quot;:null}" fill="#ffffff"/><path d="M261.47668,241.75079l-15.67871,-14.83333l0.15625,-63.34375l15.27245,18.42708l134.07855,-9.26268l0.74276,55.42935z" data-paper-data="{&quot;index&quot;:null}" fill="#ffffff"/><path d="M261.64337,180.93829c0,0 -16.86573,-16.41349 -17.6875,-18.4375c-0.64922,-1.59902 71.95833,-70.39583 71.95833,-70.39583c0,0 79.32456,77.05389 79.375,78.89583c0.04979,1.81815 -133.64583,9.9375 -133.64583,9.9375z" data-paper-data="{&quot;index&quot;:null}" fill-opacity="0.38824" fill="#ffffff"/></g></g></svg>