<svg version="1.1" xmlns="http://www.w3.org/2000/svg" xmlns:xlink="http://www.w3.org/1999/xlink" width="41.69119" height="59.09765" viewBox="0,0,41.69119,59.09765"><defs><radialGradient cx="335.554" cy="156.58113" r="9.08617" gradientUnits="userSpaceOnUse" id="color-1"><stop offset="0" stop-color="#ffff00" stop-opacity="0.54118"/><stop offset="1" stop-color="#ffff00" stop-opacity="0"/></radialGradient></defs><g transform="translate(-302.95081,-147.49317)"><g data-paper-data="{&quot;isPaintingLayer&quot;:true}" fill-rule="nonzero" stroke-linejoin="miter" stroke-miterlimit="10" stroke-dasharray="" stroke-dashoffset="0" style="mix-blend-mode: normal"><path d="M334.40892,176.16434c-4.53702,-0.77329 -7.5473,-5.31196 -6.72368,-10.1374c0.82361,-4.82542 5.16923,-8.11031 9.70626,-7.337c4.53702,0.77329 4.32908,4.76345 3.50545,9.58883c-0.82361,4.82542 -1.95103,8.65885 -6.48805,7.88555z" fill="#adadad" stroke="#000000" stroke-width="2" stroke-linecap="butt"/><path d="M337.96798,183.82893c-0.65704,4.10978 -1.35146,12.38287 -5.50963,10.41113c-1.96415,-0.93137 -2.37113,-3.77627 -2.17416,-7.02017c-0.10548,-0.01765 -0.21223,-0.04469 -0.32023,-0.08159c-4.10021,-1.4003 -1.8213,-16.38411 -0.47074,-17.26671l1.88879,-1.94941c0.47792,0.37942 1.05977,0.60964 1.63353,0.8519c0.45726,-0.82748 1.06861,-1.45437 1.78276,-1.74851c1.84873,-0.76142 3.68652,0.9953 4.1048,3.92374c0.09855,0.68994 0.10952,1.38337 0.04452,2.05029c0.37377,2.77059 -0.25115,6.27269 -0.97965,10.82934z" fill="#adadad" stroke="none" stroke-width="0.5" stroke-linecap="butt"/><path d="M308.96173,194.60697c-2.39943,-1.02017 -6.00181,-21.84115 -4.07393,-24.92141c1.83391,-2.93013 21.76346,-5.29546 23.91966,-3.06923c1.51271,1.56183 4.42066,21.45832 3.06923,23.91966c-1.58591,2.88837 -20.62271,5.04557 -22.91497,4.07098z" fill="#c7c7c7" stroke="#000000" stroke-width="2" stroke-linecap="butt"/><path d="M305.17208,195.08274c2.50985,-2.38179 6.55065,-2.20589 9.02539,0.3929c2.47472,2.5988 2.44629,6.63635 -0.06357,9.01812c-2.50985,2.38179 -4.77033,0.5164 -7.24507,-2.08239c-2.47472,-2.5988 -4.22659,-4.94686 -1.71675,-7.32864z" fill="#adadad" stroke="#000000" stroke-width="2" stroke-linecap="butt"/><g fill="#000000" stroke="none" stroke-width="0" stroke-linecap="butt"><path d="M321.88829,180.40537c0.50853,3.96313 -0.44764,7.35147 -2.13562,7.56806c-1.68799,0.2166 -3.46864,-2.82058 -3.97717,-6.78371c-0.50853,-3.96313 0.44764,-7.35147 2.13562,-7.56806c1.68799,-0.2166 3.46864,2.82058 3.97717,6.78371z"/><path d="M328.8972,179.23589c0.50853,3.96313 -0.1799,7.31713 -1.53764,7.49134c-1.35774,0.17421 -2.87066,-2.8973 -3.37919,-6.86044c-0.50853,-3.96313 0.17991,-7.31713 1.53763,-7.49135c1.35774,-0.17421 2.87064,2.89731 3.37917,6.86044z"/></g><path d="M313.65933,172.96643l7.95455,2.42424" fill="none" stroke="#c7c7c7" stroke-width="2" stroke-linecap="round"/><path d="M326.00781,171.45128l-3.25758,4.24242" fill="none" stroke="#c7c7c7" stroke-width="2" stroke-linecap="round"/><path d="M327.52148,160.82811c-2.34554,-4.43624 -0.65069,-9.93395 3.78555,-12.27949c4.43624,-2.34554 9.93397,-0.6507 12.27951,3.78554c2.34554,4.43624 0.65068,9.93396 -3.78555,12.2795c-4.43624,2.34554 -9.93395,0.65069 -12.27949,-3.78555z" fill="url(#color-1)" stroke="none" stroke-width="NaN" stroke-linecap="butt"/><path d="M304.45024,171.79081c0.02915,-6.41513 13.93374,-10.91485 13.93374,-10.91485c0,0 -1.4926,3.75433 2.77468,3.95888c5.17437,-4.75608 11.92508,-1.83658 11.92508,-1.83658l-3.93896,5.02569" fill="#c7c7c7" stroke="#000000" stroke-width="2" stroke-linecap="round"/></g></g></svg>