<svg version="1.1" xmlns="http://www.w3.org/2000/svg" xmlns:xlink="http://www.w3.org/1999/xlink" width="175.69328" height="181.10207" viewBox="0,0,175.69328,181.10207"><g transform="translate(-232.39185,-89.80992)"><g data-paper-data="{&quot;isPaintingLayer&quot;:true}" fill-rule="nonzero" stroke="#000000" stroke-width="4" stroke-linecap="butt" stroke-linejoin="miter" stroke-miterlimit="10" stroke-dasharray="" stroke-dashoffset="0" style="mix-blend-mode: normal"><path d="M378.58452,260.89505l-23.01926,-30.93592l23.01926,-30.93592l23.01926,30.93592z" data-paper-data="{&quot;index&quot;:null}" fill="#797979"/><path d="M293.48194,236.62579l23.01925,-30.93592l23.01926,30.93592l-23.01926,30.93592z" fill="#797979"/><path d="M246.3986,230.3758l23.01926,-30.93592l23.01925,30.93592l-23.01925,30.93592z" fill="#797979"/><path d="M361.50118,265.47838l-23.01925,-30.93592l23.01925,-30.93592l23.01925,30.93592z" data-paper-data="{&quot;index&quot;:null}" fill="#797979"/><path d="M297.31072,153.75079l108.43912,9.65625l0.15625,63.34375l-94.59537,-14.5l-76.90463,14.5l0.32609,-55.42935z" data-paper-data="{&quot;index&quot;:null}" fill="#ffffff"/><path d="M234.4061,227.75079l0.32609,-55.42935l117.41188,10.92935l53.60579,-18.84375l0.15625,63.34375l-55.67871,15.25z" fill="#ffffff"/><path d="M233.91488,172.25079c0.05044,-1.84194 85.20833,-79.8125 85.20833,-79.8125c0,0 87.60755,69.71348 86.95833,71.3125c-0.82177,2.02401 -55.1875,20.10417 -55.1875,20.10417c0,0 -117.02895,-9.78602 -116.97916,-11.60417z" fill-opacity="0.38824" fill="#ffffff"/></g></g></svg>