<svg version="1.1" xmlns="http://www.w3.org/2000/svg" xmlns:xlink="http://www.w3.org/1999/xlink" width="37.5788" height="47.14856" viewBox="0,0,37.5788,47.14856"><g transform="translate(-300.12859,-154.41072)"><g data-paper-data="{&quot;isPaintingLayer&quot;:true}" fill-rule="nonzero" stroke-linejoin="miter" stroke-miterlimit="10" stroke-dasharray="" stroke-dashoffset="0" style="mix-blend-mode: normal"><path d="M323.71171,196.38975c-0.00678,-3.37404 2.89691,-6.11438 6.48558,-6.12075c3.58866,-0.00637 6.50333,2.72365 6.5101,6.0977c0.00678,3.37404 -2.90173,3.72109 -6.49037,3.72745c-3.58866,0.00637 -6.49853,-0.33036 -6.50531,-3.7044z" fill="#adadad" stroke="#000000" stroke-width="2" stroke-linecap="butt"/><path d="M310.92448,195.20428c-1.63632,-1.84702 -1.75456,-29.76769 0.03295,-33.36806c1.70039,-3.42486 16.60553,-2.2144 17.91722,1.15257c0.92024,2.3621 0.6412,28.92793 -0.64846,31.8456c-1.51343,3.42389 -15.73848,2.1344 -17.30171,0.36993z" fill="#c7c7c7" stroke="#000000" stroke-width="2" stroke-linecap="butt"/><g fill="#000000" stroke="none" stroke-width="0" stroke-linecap="butt"><path d="M322.22008,179.45536c-0.10744,5.27633 -1.21956,9.48773 -2.48395,9.40639c-1.26441,-0.08132 -2.20232,-4.4246 -2.09489,-9.70093c0.10744,-5.27633 1.21956,-9.48773 2.48395,-9.40639c1.26441,0.08132 2.20232,4.4246 2.09489,9.70093z"/><path d="M327.50291,179.44092c-0.10744,5.27633 -1.019,9.50066 -2.03603,9.43522c-1.01703,-0.06546 -1.7544,-4.39578 -1.64696,-9.67211c0.10744,-5.27633 1.01901,-9.50066 2.03602,-9.43522c1.01703,0.06546 1.75439,4.39578 1.64695,9.67211z"/></g><path d="M301.12859,196.5904c0.08486,-3.45906 3.06202,-6.19685 6.64969,-6.11504c3.58766,0.08183 6.42726,2.95225 6.34238,6.4113c-0.08486,3.45906 -3.00183,3.74323 -6.5895,3.66141c-3.58766,-0.08183 -6.48744,-0.49864 -6.40258,-3.95768z" fill="#adadad" stroke="#000000" stroke-width="2" stroke-linecap="butt"/><path d="M310.81251,163.14455c1.07208,-6.24588 11.7324,-7.51953 11.7324,-7.51953c0,0 -1.68042,3.32504 1.33138,4.47945c4.47206,-3.47737 8.81123,0.87891 8.81123,0.87891l-3.6346,4.01665" fill="#c7c7c7" stroke="#000000" stroke-width="2" stroke-linecap="round"/></g></g></svg>