<svg version="1.1" xmlns="http://www.w3.org/2000/svg" xmlns:xlink="http://www.w3.org/1999/xlink" width="43.4101" height="23.94152" viewBox="0,0,43.4101,23.94152"><g transform="translate(-300.12859,-177.61776)"><g data-paper-data="{&quot;isPaintingLayer&quot;:true}" fill-rule="nonzero" stroke-linejoin="miter" stroke-miterlimit="10" stroke-dasharray="" stroke-dashoffset="0" style="mix-blend-mode: normal"><path d="M325.75717,196.38975c-0.00678,-3.37404 2.89691,-6.11438 6.48558,-6.12075c3.58866,-0.00637 6.50333,2.72365 6.5101,6.0977c0.00678,3.37404 -2.90173,3.72109 -6.49037,3.72745c-3.58866,0.00637 -6.49853,-0.33036 -6.50531,-3.7044z" fill="#adadad" stroke="#000000" stroke-width="2" stroke-linecap="butt"/><path d="M303.60761,198.86113c-3.02662,-0.88006 -3.24533,-14.18367 0.06094,-15.89916c3.14512,-1.63188 30.71441,-1.05511 33.14058,0.54917c1.70212,1.12549 1.186,13.78353 -1.19943,15.17374c-2.79931,1.63141 -29.11068,1.017 -32.00211,0.17626z" fill="#c7c7c7" stroke="#000000" stroke-width="2" stroke-linecap="butt"/><g fill="#000000" stroke="none" stroke-width="0" stroke-linecap="butt"><path d="M324.50051,191.35711c-0.19872,2.51406 -2.25576,4.5207 -4.59445,4.48194c-2.33871,-0.03875 -4.07352,-2.10822 -3.87482,-4.62228c0.19872,-2.51406 2.25576,-4.5207 4.59445,-4.48194c2.33871,0.03875 4.07352,2.10822 3.87482,4.62228z"/><path d="M334.27191,191.35023c-0.19872,2.51406 -1.88479,4.52685 -3.76594,4.49568c-1.88115,-0.03118 -3.24503,-2.0945 -3.04629,-4.60856c0.19872,-2.51406 1.88481,-4.52685 3.76592,-4.49568c1.88115,0.03118 3.245,2.0945 3.04627,4.60856z"/></g><path d="M301.12859,196.5904c0.08486,-3.45906 3.06202,-6.19685 6.64969,-6.11504c3.58766,0.08183 6.42726,2.95225 6.34238,6.4113c-0.08486,3.45906 -3.00183,3.74323 -6.5895,3.66141c-3.58766,-0.08183 -6.48744,-0.49864 -6.40258,-3.95768z" fill="#adadad" stroke="#000000" stroke-width="2" stroke-linecap="butt"/><path d="M302.40062,184.57004c1.32398,-3.61384 19.08608,-5.79118 19.08608,-5.79118c0,0 -0.55761,2.77624 5.26512,3.24191c8.06198,-2.25617 14.50905,-0.83864 14.50905,-0.83864l-4.1736,3.29206" fill="#c7c7c7" stroke="#000000" stroke-width="2" stroke-linecap="round"/></g></g></svg>