<svg version="1.1" xmlns="http://www.w3.org/2000/svg" xmlns:xlink="http://www.w3.org/1999/xlink" width="34.49311" height="30.24767" viewBox="0,0,34.49311,30.24767"><g transform="translate(-302.56798,-171.31163)"><g data-paper-data="{&quot;isPaintingLayer&quot;:true}" fill-rule="nonzero" stroke-linejoin="miter" stroke-miterlimit="10" stroke-dasharray="" stroke-dashoffset="0" style="mix-blend-mode: normal"><path d="M322.59051,196.31401c-0.00678,-3.37404 2.89691,-6.11438 6.48558,-6.12075c3.58866,-0.00637 6.50333,2.72365 6.5101,6.0977c0.00678,3.37404 -2.90173,3.72109 -6.49037,3.72745c-3.58866,0.00637 -6.49853,-0.33036 -6.50531,-3.7044z" fill="#adadad" stroke="#000000" stroke-width="2" stroke-linecap="butt"/><path d="M307.95284,197.38201c-2.20097,-1.11841 -2.36002,-18.0251 0.04432,-20.20521c2.28715,-2.07385 22.33567,-1.34087 24.09999,0.6979c1.23779,1.43032 0.86246,17.51659 -0.87223,19.28332c-2.03567,2.07325 -21.16943,1.29244 -23.27209,0.22399z" fill="#c7c7c7" stroke="#000000" stroke-width="2" stroke-linecap="butt"/><g fill="#000000" stroke="none" stroke-width="0" stroke-linecap="butt"><path d="M323.14626,187.84564c-0.14451,3.19495 -1.6404,5.74506 -3.3411,5.69581c-1.70072,-0.04924 -2.96229,-2.6792 -2.81779,-5.87416c0.14451,-3.19495 1.6404,-5.74506 3.3411,-5.69581c1.70072,0.04924 2.96229,2.6792 2.81779,5.87416z"/><path d="M330.25207,187.8369c-0.14451,3.19495 -1.37063,5.75289 -2.73861,5.71327c-1.36798,-0.03963 -2.3598,-2.66176 -2.21528,-5.85672c0.14451,-3.19495 1.37064,-5.75289 2.7386,-5.71327c1.36798,0.03963 2.35978,2.66176 2.21526,5.85672z"/></g><path d="M303.56798,196.59042c0.08486,-3.45906 3.06202,-6.19685 6.64969,-6.11504c3.58766,0.08183 6.42726,2.95225 6.34238,6.4113c-0.08486,3.45906 -3.00183,3.74323 -6.5895,3.66141c-3.58766,-0.08183 -6.48744,-0.49864 -6.40258,-3.95768z" fill="#adadad" stroke="#000000" stroke-width="2" stroke-linecap="butt"/><path d="M307.40062,178.32004c0.94921,-3.61384 13.68347,-5.79118 13.68347,-5.79118c0,0 -0.39977,2.77624 3.77475,3.24191c5.77991,-2.25617 10.40204,-0.83864 10.40204,-0.83864l-2.9922,3.29206" fill="#c7c7c7" stroke="#000000" stroke-width="2" stroke-linecap="round"/></g></g></svg>