<svg version="1.1" xmlns="http://www.w3.org/2000/svg" xmlns:xlink="http://www.w3.org/1999/xlink" width="739.21898" height="682.03399" viewBox="0,0,739.21898,682.03399"><defs><radialGradient cx="512.57456" cy="351.8772" r="172.54191" gradientUnits="userSpaceOnUse" id="color-1"><stop offset="0" stop-color="#000000" stop-opacity="0.21176"/><stop offset="1" stop-color="#000000" stop-opacity="0"/></radialGradient><radialGradient cx="271.31008" cy="338.63858" r="172.5419" gradientUnits="userSpaceOnUse" id="color-2"><stop offset="0" stop-color="#000000" stop-opacity="0.21176"/><stop offset="1" stop-color="#000000" stop-opacity="0"/></radialGradient><radialGradient cx="118.4394" cy="202.56153" r="172.54191" gradientUnits="userSpaceOnUse" id="color-3"><stop offset="0" stop-color="#000000" stop-opacity="0.21176"/><stop offset="1" stop-color="#000000" stop-opacity="0"/></radialGradient><radialGradient cx="122.18417" cy="14.92701" r="172.54191" gradientUnits="userSpaceOnUse" id="color-4"><stop offset="0" stop-color="#000000" stop-opacity="0.21176"/><stop offset="1" stop-color="#000000" stop-opacity="0"/></radialGradient></defs><g transform="translate(54.10251,157.6149)"><g data-paper-data="{&quot;isPaintingLayer&quot;:true}" fill-rule="nonzero" stroke-linecap="butt" stroke-linejoin="miter" stroke-miterlimit="10" stroke-dasharray="" stroke-dashoffset="0" style="mix-blend-mode: normal"><path d="M340.03265,351.8772c0,-95.29226 77.24965,-172.54191 172.54191,-172.54191c95.29227,0 172.54191,77.24965 172.54191,172.54191c0,95.29226 -77.24964,172.5419 -172.54191,172.5419c-95.29226,0 -172.54191,-77.24964 -172.54191,-172.5419z" fill="url(#color-1)" stroke="none" stroke-width="NaN"/><path d="M447.91127,359.0148l76.1329,-58.4789l47.5141,61.85798l1.5487,4.80994l-77.6816,53.66896l-45.70395,-56.90556z" fill="#705e34" stroke="none" stroke-width="0"/><path d="M98.76817,338.63858c0,-95.29226 77.24965,-172.54191 172.54191,-172.54191c95.29226,0 172.5419,77.24965 172.5419,172.54191c0,95.29226 -77.24964,172.5419 -172.5419,172.5419c-95.29227,0 -172.54191,-77.24964 -172.54191,-172.5419z" fill="url(#color-2)" stroke="none" stroke-width="NaN"/><path d="M226.7875,391.75177l-0.02149,-3.59247l9.85694,-95.3784l77.58956,7.99131l-0.02701,3.65861l-9.80844,95.31227z" fill="#705e34" stroke="none" stroke-width="0"/><path d="M-54.10251,202.56153c0,-95.29226 77.24964,-172.54191 172.54191,-172.54191c95.29226,0 172.54191,77.24965 172.54191,172.54191c0,95.29227 -77.24964,172.54191 -172.5419,172.54191c-95.29226,0 -172.54191,-77.24964 -172.54191,-172.54191z" fill="url(#color-3)" stroke="none" stroke-width="NaN"/><path d="M-50.35774,14.92701c0,-95.29226 77.24964,-172.54191 172.54191,-172.54191c95.29226,0 172.54191,77.24964 172.54191,172.54191c0,95.29226 -77.24964,172.54191 -172.54191,172.54191c-95.29226,0 -172.54191,-77.24964 -172.54191,-172.54191z" fill="url(#color-4)" stroke="none" stroke-width="NaN"/><path d="M158.5,-89l5.30552,15.58892v139.98482h-66.98278l-16.32274,-4.57373v-151z" fill="#685730" stroke="none" stroke-width="0"/><path d="M80.5,447.00001v-288l18.06995,-3.32179h64.75182v268.78076l-4.82178,22.54104z" fill="#705e34" stroke="none" stroke-width="0"/><path d="M80.5,447.00001v-288h78v288z" fill="#b99b55" stroke="none" stroke-width="0"/><path d="M158.5,-89v151h-78v-151z" fill="#b99b55" stroke="none" stroke-width="0"/><path d="M449.6765,363.86916l76.1329,-58.4789l47.5141,61.85798l-76.1329,58.4789z" fill="#b99b55" stroke="none" stroke-width="0"/><path d="M226.7875,391.75177l9.83545,-95.49484l77.58956,7.99131l-9.83545,95.49484z" fill="#b99b55" stroke="none" stroke-width="0"/><text transform="translate(83.07801,180.10484) rotate(-12.76657) scale(0.09665,0.10662) skewX(-2.6617)" font-size="40" xml:space="preserve" fill="#685730" fill-rule="nonzero" stroke="#705e34" stroke-width="4" stroke-linecap="butt" stroke-linejoin="miter" stroke-miterlimit="10" stroke-dasharray="" stroke-dashoffset="0" font-family="Sans Serif" font-weight="normal" text-anchor="start" style="mix-blend-mode: normal"><tspan x="0" dy="0">press 1 to start SWRM</tspan></text><text transform="translate(90.60841,188.87654) rotate(4.38124) scale(0.09407,0.10705) skewX(1.14317)" font-size="40" xml:space="preserve" fill="#685730" fill-rule="nonzero" stroke="#705e34" stroke-width="4" stroke-linecap="butt" stroke-linejoin="miter" stroke-miterlimit="10" stroke-dasharray="" stroke-dashoffset="0" font-family="Sans Serif" font-weight="normal" text-anchor="start" style="mix-blend-mode: normal"><tspan x="0" dy="0">press 2 to spawn FLYR</tspan></text><text transform="translate(89.6749,17.4342) rotate(4.3813) scale(0.09449,0.10753) skewX(1.14395)" font-size="40" xml:space="preserve" fill="#685730" fill-rule="nonzero" stroke="#705e34" stroke-width="4" stroke-linecap="butt" stroke-linejoin="miter" stroke-miterlimit="10" stroke-dasharray="" stroke-dashoffset="0" font-family="Sans Serif" font-weight="normal" text-anchor="start" style="mix-blend-mode: normal"><tspan x="0" dy="0">use arrow keys to move</tspan></text><text transform="translate(121.29306,59.44946) rotate(-34.3967) scale(0.10392,0.12209) skewX(-3.7493)" font-size="40" xml:space="preserve" fill="#685730" fill-rule="nonzero" stroke="#705e34" stroke-width="4" stroke-linecap="butt" stroke-linejoin="miter" stroke-miterlimit="10" stroke-dasharray="" stroke-dashoffset="0" font-family="Sans Serif" font-weight="normal" text-anchor="start" style="mix-blend-mode: normal"><tspan x="0" dy="0">Z - kick    X - dash</tspan></text></g></g></svg>