<svg version="1.1" xmlns="http://www.w3.org/2000/svg" xmlns:xlink="http://www.w3.org/1999/xlink" width="39.36372" height="40.19982" viewBox="0,0,39.36372,40.19982"><g transform="translate(-301.96047,-160.81857)"><g data-paper-data="{&quot;isPaintingLayer&quot;:true}" fill-rule="nonzero" stroke-linejoin="miter" stroke-miterlimit="10" stroke-dasharray="" stroke-dashoffset="0" style="mix-blend-mode: normal"><path d="M323.13633,196.31399c-0.00678,-3.37404 2.89691,-6.11438 6.48558,-6.12075c3.58866,-0.00637 6.50333,2.72365 6.5101,6.0977c0.00678,3.37404 -2.90173,3.72109 -6.49037,3.72745c-3.58866,0.00637 -6.49853,-0.33036 -6.50531,-3.7044z" fill="#adadad" stroke="#000000" stroke-width="2" stroke-linecap="butt"/><path d="M308.42035,192.41464c-2.07611,-1.57726 -0.46429,-22.64601 2.15988,-25.15966c2.49627,-2.39113 22.39754,0.20145 23.94218,2.88834c1.08367,1.88501 -0.97476,21.88725 -2.88834,23.94218c-2.2456,2.41145 -21.23034,-0.16406 -23.21372,-1.67086z" fill="#c7c7c7" stroke="#000000" stroke-width="2" stroke-linecap="butt"/><path d="M302.96047,191.49606c0.08486,-3.45906 3.06202,-6.19685 6.64969,-6.11504c3.58766,0.08183 6.42726,2.95225 6.34238,6.4113c-0.08486,3.45906 -3.00183,3.74323 -6.5895,3.66141c-3.58766,-0.08183 -6.48744,-0.49864 -6.40258,-3.95768z" fill="#adadad" stroke="#000000" stroke-width="2" stroke-linecap="butt"/><g fill="#000000" stroke="none" stroke-width="0" stroke-linecap="butt"><path d="M324.43402,181.81536c-0.47855,3.96686 -2.2362,7.0174 -3.92577,6.81357c-1.68958,-0.20382 -2.67133,-3.58485 -2.19278,-7.55171c0.47855,-3.96686 2.2362,-7.0174 3.92577,-6.81357c1.68958,0.20382 2.67133,3.58485 2.19278,7.55171z"/><path d="M331.51572,182.39981c-0.47855,3.96686 -1.96821,7.04974 -3.32723,6.88579c-1.35902,-0.16396 -2.07279,-3.51264 -1.59424,-7.47951c0.47855,-3.96686 1.96822,-7.04974 3.32722,-6.8858c1.35902,0.16396 2.07277,3.51264 1.59422,7.4795z"/></g><path d="M309.81251,169.51955c1.46415,-6.24588 16.0231,-7.51953 16.0231,-7.51953c0,0 -2.29498,3.32504 1.81828,4.47945c6.10755,-3.47737 12.03362,0.87891 12.03362,0.87891l-4.96382,4.01665" fill="#c7c7c7" stroke="#000000" stroke-width="2" stroke-linecap="round"/></g></g></svg>