<svg version="1.1" xmlns="http://www.w3.org/2000/svg" xmlns:xlink="http://www.w3.org/1999/xlink" width="64.28598" height="22.11856" viewBox="0,0,64.28598,22.11856"><g transform="translate(-290.96192,-179.44073)"><g data-paper-data="{&quot;isPaintingLayer&quot;:true}" fill-rule="nonzero" stroke-linejoin="miter" stroke-miterlimit="10" stroke-dasharray="" stroke-dashoffset="0" style="mix-blend-mode: normal"><path d="M333.33292,196.38977c-0.00678,-3.37404 2.89691,-6.11438 6.48558,-6.12075c3.58866,-0.00637 6.50333,2.72365 6.5101,6.0977c0.00678,3.37404 -2.90173,3.72109 -6.49037,3.72745c-3.58866,0.00637 -6.49853,-0.33036 -6.50531,-3.7044z" fill="#adadad" stroke="#000000" stroke-width="2" stroke-linecap="butt"/><path d="M299.23597,198.92264c-3.85728,-0.8161 -4.13602,-13.15281 0.07767,-14.74363c4.00832,-1.51327 39.14409,-0.97843 42.23612,0.50926c2.16928,1.04369 1.51149,12.78176 -1.52862,14.07093c-3.56759,1.51284 -37.1002,0.94308 -40.78519,0.16345z" fill="#c7c7c7" stroke="#000000" stroke-width="2" stroke-linecap="butt"/><g fill="#000000" stroke="none" stroke-width="0" stroke-linecap="butt"><path d="M325.863,191.964c-0.25326,2.33134 -2.87487,4.19214 -5.8554,4.1562c-2.98058,-0.03593 -5.19151,-1.955 -4.93828,-4.28634c0.25326,-2.33134 2.87487,-4.19214 5.8554,-4.1562c2.98058,0.03593 5.19151,1.955 4.93828,4.28634z"/><path d="M338.31619,191.95761c-0.25326,2.33134 -2.40207,4.19785 -4.79951,4.16894c-2.39744,-0.02892 -4.13563,-1.94227 -3.88236,-4.27361c0.25326,-2.33134 2.4021,-4.19785 4.7995,-4.16894c2.39744,0.02892 4.13561,1.94227 3.88233,4.27361z"/></g><path d="M291.96192,196.59041c0.08486,-3.45906 3.06202,-6.19685 6.64969,-6.11504c3.58766,0.08183 6.42726,2.95225 6.34238,6.4113c-0.08486,3.45906 -3.00183,3.74323 -6.5895,3.66141c-3.58766,-0.08183 -6.48744,-0.49864 -6.40258,-3.95768z" fill="#adadad" stroke="#000000" stroke-width="2" stroke-linecap="butt"/><path d="M297.65542,185.99558c2.46077,-3.8839 28.60507,-5.30848 28.60507,-5.30848c0,0 -4.03518,2.13485 3.39293,2.65824c10.88661,-2.39712 21.66263,0.0036 21.66263,0.0036l-8.81514,2.67611" fill="#c7c7c7" stroke="#000000" stroke-width="2" stroke-linecap="round"/></g></g></svg>