<svg version="1.1" xmlns="http://www.w3.org/2000/svg" xmlns:xlink="http://www.w3.org/1999/xlink" width="179.03953" height="64.50629" viewBox="0,0,179.03953,64.50629"><g transform="translate(-230.48024,-147.74684)"><g data-paper-data="{&quot;isPaintingLayer&quot;:true}" stroke="#000000" stroke-width="4" stroke-linejoin="miter" stroke-miterlimit="10" stroke-dasharray="" stroke-dashoffset="0" style="mix-blend-mode: normal"><path d="M232.48024,162.14595c0,-7.32944 5.71441,-12.3991 13.24466,-12.3991c10.04041,0 131.6097,0 149.23142,0c7.96416,0 12.56344,5.43706 12.56344,13.18884c0,9.59144 0,16.7128 0,33.93857c0,8.04265 -5.11181,13.37888 -13.37482,13.37888c-9.92766,0 -130.73161,0 -148.42005,0c-7.86536,0 -13.24466,-2.6314 -13.24466,-13.24726z" fill="#ffffff" fill-rule="nonzero" stroke-linecap="butt"/><path d="M269.11126,164.83637l-1.71058,3.68991c-0.72114,-0.56232 -1.48973,-1.06099 -2.29712,-1.49038c-0.65791,-0.35281 -1.34049,-0.65755 -2.04239,-0.91184c-0.73768,-0.26358 -1.44834,-0.44074 -2.13197,-0.53149c-0.32537,-0.04396 -0.65311,-0.06803 -0.98141,-0.07207c-0.98386,-0.00826 -1.96155,0.15605 -2.88867,0.48545c-0.57477,0.20856 -1.12277,0.48458 -1.63251,0.82226c-0.50157,0.3216 -0.93529,0.73832 -1.27668,1.22663c-0.42439,0.62157 -0.65644,1.34407 -0.69614,2.1675c-0.00425,0.08618 -0.00642,0.17245 -0.00651,0.25874c-0.00298,0.45771 0.06904,0.91282 0.2132,1.34724c0.04732,0.1405 0.10263,0.27819 0.16565,0.41238c0.22654,0.48211 0.60039,0.93803 1.12154,1.36776c0.06096,0.0502 0.12287,0.09926 0.18567,0.14714l1.41731,1.10002c0.09666,0.0713 0.19599,0.13891 0.29778,0.20269c0.33965,0.21587 0.83244,0.49062 1.47837,0.82426c0.03118,0.01605 0.06237,0.03206 0.09359,0.04804c0.92052,0.47244 1.42965,0.74118 1.52741,0.80624l2.32114,1.27117c0.99926,0.55018 1.71542,0.96522 2.14848,1.24515c0.04992,0.03229 0.09947,0.06516 0.14864,0.09859l1.83269,1.22163c0.23018,0.1527 0.45549,0.31259 0.67562,0.47944c0.42239,0.32196 0.75203,0.62374 0.98891,0.90534c0.03262,0.03862 0.06433,0.078 0.09509,0.11811c0.13738,0.18028 0.27202,0.36264 0.40387,0.54701c0.23455,0.32797 0.48678,0.69547 0.7567,1.10252c0.42922,0.64579 0.73185,1.36723 0.89182,2.12596c0.16315,0.76571 0.24473,1.61282 0.24473,2.54135c0,2.80226 -1.16491,5.14826 -3.49473,7.038c-2.25263,1.86247 -5.09221,2.86674 -8.0149,2.83462c-2.22607,-0.00765 -4.41643,-0.56005 -6.37989,-1.60899c-0.29754,-0.15519 -0.59028,-0.31942 -0.87781,-0.49245c-1.02628,-0.60289 -1.93862,-1.31972 -2.73703,-2.15049l1.7351,-3.76348c0.50019,0.44941 1.02036,0.87607 1.55894,1.27868c0.3894,0.29057 0.79044,0.56521 1.20211,0.82326c1.99751,1.31121 3.73095,2.00886 5.2003,2.09293c0.09932,0.00568 0.19879,0.00852 0.29828,0.00851c0.90147,0.00822 1.79824,-0.13073 2.65495,-0.41138c0.84156,-0.28273 1.62334,-0.71918 2.30563,-1.28719c0.6611,-0.53182 1.19293,-1.2067 1.55544,-1.97382c0.3382,-0.75018 0.50784,-1.56538 0.49696,-2.38821c0.00115,-1.41271 -0.50723,-2.77844 -1.43182,-3.84655c-0.10142,-0.12199 -0.20656,-0.24082 -0.31529,-0.35633c-0.93255,-0.9829 -1.99702,-1.8316 -3.16292,-2.52183c-0.35958,-0.21522 -0.72683,-0.41737 -1.10102,-0.60606l-5.00963,-2.61492c-1.40757,-0.74868 -2.68734,-1.71611 -3.7915,-2.86615c-0.15332,-0.16095 -0.30283,-0.32548 -0.44841,-0.49346c-1.13488,-1.26496 -1.75776,-2.90736 -1.74711,-4.60676c-0.03503,-2.15288 0.87908,-4.21211 2.49931,-5.6302c0.26264,-0.23913 0.53778,-0.46415 0.82426,-0.67412c2.21538,-1.62917 4.77308,-2.44376 7.67309,-2.44376c1.89203,0.00832 3.76622,0.36633 5.52811,1.05598c0.38638,0.14816 0.76762,0.3094 1.14306,0.48345c0.29671,0.13346 0.58575,0.28333 0.8658,0.44891c0.29928,0.17549 0.61207,0.37785 0.93837,0.60706c0.23315,0.16416 0.46258,0.33352 0.68814,0.50797z" fill="#000000" fill-rule="evenodd" stroke-linecap="round"/><path d="M283.72426,165.78925h-10.53223v-3.32307h25.53659v3.32307h-10.50771v31.7188h-4.49665z" fill="#000000" fill-rule="evenodd" stroke-linecap="round"/><path d="M304.37333,197.50805h-4.49615l14.46636,-35.04187h4.49615l14.6135,35.04187h-4.49665l-4.91154,-11.70481h-14.85773zM316.59162,167.08444l-6.01155,15.41974h12.1207z" fill="#000000" fill-rule="evenodd" stroke-linecap="round"/><path d="M344.25418,197.50805h-4.49665v-35.04187h11.11877c1.59267,-0.01603 3.17537,0.25295 4.67332,0.79423c1.4419,0.53676 2.76728,1.34547 3.90411,2.3822c2.14526,1.87117 3.41517,4.55061 3.50524,7.39583c0.00913,0.19822 0.01363,0.39662 0.01351,0.59505c0.01486,1.49237 -0.27906,2.97168 -0.8633,4.34501c-0.30827,0.7104 -0.69485,1.38419 -1.15256,2.00886c-1.34609,1.84252 -3.22781,3.22493 -5.38848,3.95866l7.91731,13.56203h-4.49615l-7.42886,-12.75578h-7.30625zM344.25418,165.78925v15.66397h6.62212c1.10239,0.01356 2.19461,-0.21199 3.20146,-0.66111c0.82104,-0.37906 1.5662,-0.90444 2.19903,-1.55043c1.3196,-1.32201 2.09672,-3.08997 2.17851,-4.95608c0.01411,-0.21708 0.02112,-0.43456 0.02102,-0.6521c0.00969,-0.95653 -0.14034,-1.90797 -0.44391,-2.8151c-0.36448,-1.05628 -0.96489,-2.0156 -1.75562,-2.80509c-1.38613,-1.43445 -3.29971,-2.23794 -5.29439,-2.22305c-0.03536,-0.00054 -0.07073,-0.00087 -0.1061,-0.001z" fill="#000000" fill-rule="evenodd" stroke-linecap="round"/><path d="M376.04604,165.78925h-10.53223v-3.32307h25.53609v3.32307h-10.50771v31.7188h-4.49615z" fill="#000000" fill-rule="evenodd" stroke-linecap="round"/></g></g></svg>