<svg version="1.1" xmlns="http://www.w3.org/2000/svg" xmlns:xlink="http://www.w3.org/1999/xlink" width="35.53192" height="52.86746" viewBox="0,0,35.53192,52.86746"><defs><linearGradient x1="319.59839" y1="185.89543" x2="319.59839" y2="196.21458" gradientUnits="userSpaceOnUse" id="color-1"><stop offset="0" stop-color="#00f5ff" stop-opacity="0"/><stop offset="1" stop-color="#00f5ff"/></linearGradient></defs><g transform="translate(-301.83243,-148.40852)"><g data-paper-data="{&quot;isPaintingLayer&quot;:true}" fill-rule="nonzero" stroke-linejoin="miter" stroke-miterlimit="10" stroke-dasharray="" stroke-dashoffset="0" style="mix-blend-mode: normal"><path d="M309.27925,196.21458l-7.44681,-12.12766l35.53192,0.60701l-5.85107,11.52065z" fill="url(#color-1)" stroke="none" stroke-width="0" stroke-linecap="butt"/><path d="M308.7043,185.10193c-2.22905,-1.7878 -2.81962,-29.70745 -0.47142,-33.37314c2.23374,-3.48702 22.29678,-2.81762 24.11278,0.50208c1.27404,2.32897 1.30939,28.90798 -0.37984,31.87284c-1.98232,3.47924 -21.13203,2.70615 -23.26152,0.99822z" fill="#c7c7c7" stroke="#000000" stroke-width="2" stroke-linecap="butt"/><path d="M308.7043,200.27598c-2.22905,-0.3898 -2.81962,-6.47722 -0.47142,-7.27646c2.23374,-0.76029 22.29678,-0.61434 24.11278,0.10947c1.27404,0.50779 1.30939,6.30291 -0.37984,6.94935c-1.98232,0.75859 -21.13203,0.59003 -23.26152,0.21764z" fill="#c7c7c7" stroke="#000000" stroke-width="2" stroke-linecap="butt"/><g fill="none" stroke="#969696" stroke-width="0.5" stroke-linecap="round"><path d="M322.87944,168.58279l-1.97805,8.18365"/><path d="M326.62343,169.48774l-1.97805,8.18365"/><path d="M328.30671,172.24412l-8.18365,-1.97805"/><path d="M327.40176,175.9881l-8.18364,-1.97805"/></g><g fill="none" stroke="#969696" stroke-width="0.5" stroke-linecap="round"><path d="M312.82425,157.7619l-1.1822,8.18365"/><path d="M315.06187,158.66685l-1.1822,8.18365"/><path d="M316.0679,161.42323l-4.89103,-1.97805"/><path d="M315.52705,165.16721l-4.89102,-1.97805"/></g><g fill="none" stroke="#969696" stroke-width="0.5" stroke-linecap="round"><path d="M326.18884,152.91115l-1.66945,8.18365"/><path d="M329.34872,153.8161l-1.66945,8.18365"/><path d="M330.76939,156.57248l-6.90692,-1.97805"/><path d="M330.00562,160.31646l-6.90691,-1.97805"/></g></g></g></svg>