<svg version="1.1" xmlns="http://www.w3.org/2000/svg" xmlns:xlink="http://www.w3.org/1999/xlink" width="37.17267" height="45.38019" viewBox="0,0,37.17267,45.38019"><g transform="translate(-302.1746,-156.72512)"><g data-paper-data="{&quot;isPaintingLayer&quot;:true}" fill-rule="nonzero" stroke-linejoin="miter" stroke-miterlimit="10" stroke-dasharray="" stroke-dashoffset="0" style="mix-blend-mode: normal"><path d="M322.13813,198.41261c-1.23725,-3.13901 0.46656,-6.74982 3.80556,-8.06499c3.33899,-1.31517 7.04875,0.16334 8.286,3.30237c1.23725,3.13901 -1.34418,4.52324 -4.68316,5.83839c-3.33899,1.31517 -6.17115,2.06324 -7.4084,-1.07577z" fill="#adadad" stroke="#000000" stroke-width="2" stroke-linecap="butt"/><path d="M306.73064,189.50285c-1.97554,-1.70155 0.92461,-22.63189 3.69792,-24.97997c2.63813,-2.23363 22.34308,1.57387 23.72013,4.35039c0.96609,1.94789 -2.31445,21.78635 -4.35039,23.72013c-2.38918,2.26928 -21.18036,-1.46501 -23.06766,-3.09054z" fill="#c7c7c7" stroke="#000000" stroke-width="2" stroke-linecap="butt"/><path d="M303.51621,198.54569c-0.98847,-3.3159 0.99666,-6.83985 4.43393,-7.87098c3.43727,-1.0311 7.02505,0.82105 8.0135,4.13695c0.98847,3.3159 -1.69782,4.48778 -5.1351,5.5189c-3.43727,1.0311 -6.32388,1.53101 -7.31235,-1.78487z" fill="#adadad" stroke="#000000" stroke-width="2" stroke-linecap="butt"/><g fill="#000000" stroke="none" stroke-width="0" stroke-linecap="butt"><path d="M323.36383,179.90501c-0.72079,3.93007 -2.66211,6.86715 -4.33601,6.56014c-1.67391,-0.307 -2.44659,-3.74184 -1.7258,-7.67191c0.72079,-3.93007 2.66211,-6.86715 4.33601,-6.56014c1.67391,0.307 2.44659,3.74184 1.7258,7.67191z"/><path d="M330.39643,180.92242c-0.72079,3.93007 -2.3966,6.91585 -3.74302,6.66891c-1.34641,-0.24695 -1.85359,-3.63308 -1.1328,-7.56316c0.72079,-3.93007 2.39661,-6.91585 3.74301,-6.66892c1.34641,0.24695 1.85357,3.63308 1.13278,7.56315z"/></g><path d="M309.4404,166.23535c1.77137,-6.1658 14.95155,-8.28996 14.95155,-8.28996c0,0 -1.03272,4.7798 3.01839,6.1363c6.27211,-3.17094 10.55145,-0.09918 10.55145,-0.09918l-3.73251,5.33853" fill="#c7c7c7" stroke="#000000" stroke-width="2" stroke-linecap="round"/></g></g></svg>