<svg version="1.1" xmlns="http://www.w3.org/2000/svg" xmlns:xlink="http://www.w3.org/1999/xlink" width="42.6372" height="41.80083" viewBox="0,0,42.6372,41.80083"><g transform="translate(-299.40045,-159.21757)"><g data-paper-data="{&quot;isPaintingLayer&quot;:true}" fill-rule="nonzero" stroke-linejoin="miter" stroke-miterlimit="10" stroke-dasharray="" stroke-dashoffset="0" style="mix-blend-mode: normal"><path d="M328.04197,192.06873c-0.00678,-3.37404 2.89691,-6.11438 6.48558,-6.12075c3.58866,-0.00637 6.50333,2.72365 6.5101,6.0977c0.00678,3.37404 -2.90173,3.72109 -6.49037,3.72745c-3.58866,0.00637 -6.49853,-0.33036 -6.50531,-3.7044z" fill="#adadad" stroke="#000000" stroke-width="2" stroke-linecap="butt"/><path d="M308.79214,192.80589c-2.12429,-1.51174 -1.17035,-22.62051 1.37414,-25.21478c2.42048,-2.46782 22.39293,-0.49719 24.02062,2.14022c1.14193,1.8503 -0.29166,21.907 -2.14022,24.02062c-2.1693,2.48031 -21.22513,0.49816 -23.25454,-0.94605z" fill="#c7c7c7" stroke="#000000" stroke-width="2" stroke-linecap="butt"/><g fill="#000000" stroke="none" stroke-width="0" stroke-linecap="butt"><path d="M324.46742,181.71233c-0.3546,3.97986 -2.01625,7.08373 -3.71136,6.93269c-1.69511,-0.15103 -2.78184,-3.49979 -2.42724,-7.47965c0.3546,-3.97986 2.01625,-7.08373 3.71136,-6.93269c1.69511,0.15103 2.78184,3.49979 2.42724,7.47965z"/><path d="M331.56394,182.07563c-0.3546,3.97986 -1.74738,7.1077 -3.11086,6.98621c-1.36347,-0.12149 -2.18133,-3.44628 -1.82674,-7.42615c0.3546,-3.97986 1.74739,-7.1077 3.11085,-6.98622c1.36347,0.12149 2.18131,3.44629 1.82672,7.42614z"/></g><path d="M300.40046,196.31401c-0.00678,-3.37404 2.89691,-6.11438 6.48558,-6.12075c3.58866,-0.00637 6.50333,2.72365 6.5101,6.0977c0.00678,3.37404 -2.90173,3.72109 -6.49037,3.72745c-3.58866,0.00637 -6.49853,-0.33036 -6.50531,-3.7044z" fill="#adadad" stroke="#000000" stroke-width="2" stroke-linecap="butt"/><path d="" fill="#adadad" stroke="none" stroke-width="0.5" stroke-linecap="butt"/><path d="M309.81251,169.51955c1.46415,-6.24588 14.5231,-9.01953 14.5231,-9.01953c0,0 -0.79498,4.82504 3.31828,5.97945c6.10755,-3.47737 10.53362,-0.62109 10.53362,-0.62109l-3.46382,5.51665" fill="#c7c7c7" stroke="#000000" stroke-width="2" stroke-linecap="round"/></g></g></svg>