<svg version="1.1" xmlns="http://www.w3.org/2000/svg" xmlns:xlink="http://www.w3.org/1999/xlink" width="46.26185" height="29.00315" viewBox="0,0,46.26185,29.00315"><g transform="translate(-297.33983,-165.80463)"><g data-paper-data="{&quot;isPaintingLayer&quot;:true}" fill-rule="nonzero" stroke-linecap="butt" stroke-linejoin="miter" stroke-miterlimit="10" stroke-dasharray="" stroke-dashoffset="0" style="mix-blend-mode: normal"><path d="M332.31274,193.03149c-4.21808,-1.9983 -3.89856,-11.54582 -3.89856,-11.54582c0,0 7.15834,-6.30768 11.37638,-4.30936c4.21808,1.9983 2.9715,5.75007 0.90655,10.12838c-2.06496,4.37827 -4.16634,7.7251 -8.38439,5.72681z" data-paper-data="{&quot;index&quot;:null}" fill="#adadad" stroke="#000000" stroke-width="2"/><path d="M308.35861,193.80778c-2.22905,-1.35253 -2.81962,-22.47459 -0.47142,-25.2478c2.23374,-2.63804 22.29678,-2.13162 24.11278,0.37984c1.27404,1.76194 1.30939,21.86978 -0.37984,24.11278c-1.98232,2.63215 -21.13203,2.04728 -23.26152,0.75518z" fill="#c7c7c7" stroke="#000000" stroke-width="2"/><path d="M308.6288,193.0315c-4.21805,1.99829 -6.31943,-1.34854 -8.38439,-5.72681c-2.06495,-4.37831 -3.31153,-8.13008 0.90655,-10.12838c4.21804,-1.99832 11.37638,4.30936 11.37638,4.30936c0,0 0.31952,9.54752 -3.89856,11.54582z" data-paper-data="{&quot;index&quot;:null}" fill="#adadad" stroke="#000000" stroke-width="2"/><g fill="#000000" stroke="none" stroke-width="0"><path d="M323.18164,181.5988c-0.06293,3.99513 -1.49341,7.21209 -3.19502,7.18528c-1.70162,-0.0268 -3.03006,-3.28723 -2.96713,-7.28236c0.06293,-3.99513 1.49341,-7.21209 3.19502,-7.18528c1.70162,0.0268 3.03006,3.28723 2.96713,7.28236z"/><path d="M330.28574,181.44274c-0.06293,3.99513 -1.22351,7.21635 -2.59221,7.19479c-1.3687,-0.02157 -2.42725,-3.27773 -2.36432,-7.27287c0.06293,-3.99513 1.22352,-7.21635 2.5922,-7.1948c1.3687,0.02157 2.42723,3.27774 2.3643,7.27286z"/></g></g></g></svg>