<svg version="1.1" xmlns="http://www.w3.org/2000/svg" xmlns:xlink="http://www.w3.org/1999/xlink" width="283.61843" height="136.89818" viewBox="0,0,283.61843,136.89818"><g transform="translate(-177.99781,-10.16384)"><g data-paper-data="{&quot;isPaintingLayer&quot;:true}" fill="#000000" stroke-linejoin="miter" stroke-miterlimit="10" stroke-dasharray="" stroke-dashoffset="0" style="mix-blend-mode: normal"><g fill-rule="evenodd" stroke="#000000" stroke-width="4" stroke-linecap="round"><path d="M212.02873,92.5899l-2.68494,5.7917c-1.13188,-0.88289 -2.33827,-1.66587 -3.60557,-2.34009c-1.03266,-0.55377 -2.10405,-1.03209 -3.20574,-1.43123c-1.15839,-0.41319 -2.27385,-0.69126 -3.34635,-0.83423c-0.51071,-0.06874 -1.02514,-0.10626 -1.54042,-0.11233c-1.54427,-0.01296 -3.07886,0.24494 -4.53407,0.76196c-0.90213,0.32711 -1.76227,0.76008 -2.56239,1.28984c-0.78733,0.50502 -1.46811,1.15938 -2.00388,1.92612c-0.66613,0.97563 -1.03035,2.10967 -1.09267,3.40212c-0.00667,0.13527 -0.01008,0.27069 -0.01021,0.40612c-0.00468,0.71843 0.10836,1.43276 0.33464,2.11464c0.07428,0.22053 0.16109,0.43664 0.26001,0.64728c0.35559,0.75672 0.94237,1.47234 1.76037,2.14685c0.09569,0.0788 0.19286,0.15579 0.29143,0.23095l2.22462,1.72581c0.15171,0.11218 0.30762,0.21857 0.46739,0.31892c0.53311,0.33882 1.30633,0.76982 2.31966,1.29298c0.0492,0.02546 0.09843,0.05086 0.14768,0.0762c1.44485,0.74154 2.24399,1.16337 2.39743,1.26549l3.64328,1.99446c1.56844,0.86408 2.69253,1.51581 3.37227,1.95518c0.07836,0.05069 0.15612,0.10228 0.2333,0.15475l2.8766,1.91747c0.36128,0.23967 0.71495,0.49065 1.06046,0.75254c0.66299,0.50484 1.18039,0.97851 1.5522,1.42102c0.0512,0.06061 0.10096,0.12242 0.14925,0.18538c0.21564,0.28297 0.42697,0.56919 0.63392,0.85858c0.36815,0.51426 0.76406,1.0911 1.18772,1.73052c0.6737,1.01363 1.14873,2.14601 1.39981,3.33692c0.25608,1.20186 0.38412,2.5315 0.38412,3.98891c0,4.39843 -1.82845,8.08073 -5.48534,11.04688c-3.53575,2.92334 -7.99277,4.49966 -12.58023,4.44923c-3.49405,-0.01201 -6.93205,-0.87906 -10.01391,-2.52547c-0.46703,-0.24384 -0.92651,-0.50188 -1.37782,-0.77375c-1.61138,-0.94578 -3.0434,-2.07065 -4.29605,-3.37463l2.72343,-5.90717c0.78511,0.70514 1.60158,1.37456 2.44692,2.00624c0.61121,0.45608 1.24067,0.88716 1.88684,1.29219c3.1353,2.05861 5.85611,3.15364 8.16242,3.28508c0.1559,0.00891 0.31202,0.01336 0.46817,0.01335c1.41496,0.01291 2.82253,-0.2052 4.16723,-0.6457c1.32086,-0.44354 2.54794,-1.12832 3.61893,-2.01959c1.03767,-0.83475 1.87242,-1.89404 2.44142,-3.09812c0.53084,-1.17749 0.79711,-2.45704 0.78003,-3.74854c0.002,-2.21766 -0.79597,-4.36164 -2.2474,-6.03836c-0.1592,-0.1912 -0.32423,-0.37746 -0.49488,-0.55851c-1.46393,-1.54309 -3.13499,-2.8755 -4.96532,-3.95906c-0.56416,-0.33753 -1.14033,-0.65456 -1.72738,-0.95049l-7.86314,-4.10439c-2.20938,-1.17538 -4.21811,-2.69412 -5.95116,-4.49951c-0.24065,-0.25263 -0.47532,-0.51088 -0.70383,-0.77453c-1.78112,-1.98528 -2.75879,-4.56289 -2.74228,-7.23c-0.05522,-3.37945 1.37959,-6.61196 3.92293,-8.83798c0.41199,-0.37531 0.84359,-0.72851 1.29298,-1.05811c3.47779,-2.55664 7.49263,-3.83495 12.0445,-3.83495c2.96943,0.01291 5.91089,0.57457 8.67616,1.65668c0.60674,0.2328 1.2054,0.48615 1.79493,0.75961c0.46571,0.20948 0.9194,0.44471 1.35896,0.70462c0.46975,0.27493 0.9607,0.59229 1.47287,0.95206c0.36595,0.25792 0.72608,0.52402 1.0801,0.7981z"/><path d="M232.16575,143.87154h-7.05797v-55.00269h19.02471c5.01898,-0.08948 9.86086,1.85436 13.42468,5.38951c1.87356,1.77159 3.34917,3.92115 4.32905,6.30622c0.83271,2.10676 1.25119,4.35437 1.23249,6.61965c0,5.02476 -1.85385,9.32055 -5.56154,12.88738c-3.5746,3.5143 -8.41272,5.44275 -13.42468,5.35102h-11.96674zM232.16575,94.08555v26.15888h11.96674c3.05537,0.03222 5.98502,-1.21471 8.07994,-3.43904c0.12169,-0.12376 0.24111,-0.24973 0.3582,-0.37784c2.32726,-2.54407 3.49089,-5.62517 3.49089,-9.24331c0.07394,-3.42221 -1.17671,-6.74074 -3.49089,-9.26295c-0.99533,-1.11942 -2.19166,-2.04238 -3.52702,-2.72107c-1.52739,-0.75038 -3.20946,-1.13214 -4.91112,-1.11466z"/><path d="M306.88284,143.87154h-33.71487v-55.00269h7.05719v49.82449h26.65769z"/><path d="M320.19204,143.87154h-7.05719l22.70648,-55.00269h7.05797l22.93664,55.00269h-7.05797l-7.70917,-18.37272h-23.31998zM339.36993,96.11849l-9.43498,24.20291h19.02392z"/><path d="M404.8822,92.5899l-2.68494,5.7917c-1.13188,-0.88289 -2.33827,-1.66587 -3.60557,-2.34009c-1.03266,-0.55377 -2.10405,-1.03209 -3.20574,-1.43123c-1.15839,-0.41319 -2.27385,-0.69126 -3.34635,-0.83423c-0.51097,-0.06877 -1.02566,-0.10629 -1.54121,-0.11233c-1.54427,-0.01296 -3.07886,0.24494 -4.53407,0.76196c-0.90186,0.32716 -1.76173,0.76014 -2.56161,1.28984c-0.78733,0.50502 -1.46811,1.15938 -2.00388,1.92612c-0.66613,0.97563 -1.03061,2.10967 -1.09346,3.40212c-0.00641,0.13528 -0.00955,0.27069 -0.00943,0.40612c-0.00468,0.71843 0.10836,1.43276 0.33464,2.11464c0.07428,0.22053 0.16109,0.43664 0.26001,0.64728c0.35559,0.75672 0.94237,1.47234 1.76037,2.14685c0.09569,0.0788 0.19286,0.15579 0.29143,0.23095l2.22462,1.72581c0.15145,0.11217 0.30709,0.21855 0.4666,0.31892c0.53311,0.33882 1.30659,0.76982 2.32045,1.29298c0.0492,0.02546 0.09843,0.05086 0.14768,0.0762c1.44433,0.74154 2.24321,1.16337 2.39665,1.26549l3.64407,1.99446c1.56844,0.86408 2.69226,1.51581 3.37149,1.95518c0.07862,0.05069 0.15665,0.10228 0.23409,0.15475l2.8766,1.91747c0.36102,0.23969 0.71441,0.49066 1.05968,0.75254c0.66351,0.50484 1.18118,0.97851 1.55299,1.42102c0.0512,0.06061 0.10096,0.12242 0.14925,0.18538c0.21538,0.28298 0.42645,0.5692 0.63314,0.85858c0.36867,0.51426 0.76485,1.0911 1.1885,1.73052c0.6737,1.01363 1.14873,2.14601 1.39981,3.33692c0.25556,1.20186 0.38334,2.5315 0.38334,3.98891c0,4.39843 -1.82818,8.08073 -5.48456,11.04688c-3.53595,2.92352 -7.99328,4.49984 -12.58102,4.44923c-3.49405,-0.01201 -6.93205,-0.87906 -10.01391,-2.52547c-0.46703,-0.24384 -0.92651,-0.50188 -1.37782,-0.77375c-1.61086,-0.94578 -3.04261,-2.07065 -4.29527,-3.37463l2.72264,-5.90717c0.78537,0.70515 1.6021,1.37458 2.44771,2.00624c0.61121,0.45608 1.24067,0.88716 1.88684,1.29219c3.1353,2.05861 5.85611,3.15364 8.16242,3.28508c0.15564,0.00889 0.3115,0.01335 0.46739,0.01335c1.41522,0.01298 2.82306,-0.20512 4.16801,-0.6457c1.32058,-0.44363 2.54738,-1.12841 3.61814,-2.01959c1.03767,-0.83475 1.87242,-1.89404 2.44142,-3.09812c0.53112,-1.17743 0.79765,-2.45698 0.78082,-3.74854c0.002,-2.21766 -0.79597,-4.36164 -2.2474,-6.03836c-0.1592,-0.1912 -0.32423,-0.37746 -0.49488,-0.55851c-1.46393,-1.54309 -3.13499,-2.8755 -4.96532,-3.95906c-0.56442,-0.33755 -1.14085,-0.65458 -1.72816,-0.95049l-7.86235,-4.10439c-2.20938,-1.17538 -4.21811,-2.69412 -5.95116,-4.49951c-0.24065,-0.25263 -0.47532,-0.51088 -0.70383,-0.77453c-1.78112,-1.98528 -2.75879,-4.56289 -2.74228,-7.23c-0.05522,-3.37945 1.37959,-6.61196 3.92293,-8.83798c0.41199,-0.37531 0.84359,-0.72851 1.29298,-1.05811c3.47779,-2.55664 7.49237,-3.83495 12.04372,-3.83495c2.96969,0.01281 5.91143,0.57447 8.67694,1.65668c0.60647,0.23281 1.20487,0.48616 1.79415,0.75961c0.46598,0.20945 0.91993,0.44469 1.35975,0.70462c0.46975,0.27493 0.96044,0.59229 1.47208,0.95206c0.36622,0.25791 0.72661,0.52401 1.08089,0.7981z"/><path d="M425.01922,143.87154h-7.05797v-55.00269h7.05797v24.93188h27.50056v-24.93188h7.09646v55.00269h-7.09646v-24.8926h-27.50056z"/></g><g fill-rule="evenodd" stroke="#000000" stroke-width="4" stroke-linecap="round"><path d="M216.4013,75.6084h-4.75701v-37.07546h12.82392c3.38312,-0.06032 6.64687,1.24996 9.04912,3.63289c1.26289,1.19416 2.25757,2.64311 2.91806,4.25081c0.5613,1.42009 0.84338,2.93514 0.83078,4.46208c0,3.38702 -1.24962,6.28267 -3.74885,8.68695c-2.40952,2.36887 -5.67074,3.66878 -9.04912,3.60694h-8.0669zM216.4013,42.04934v17.63281h8.0669c2.05952,0.02172 4.0343,-0.8188 5.44642,-2.31814c0.08203,-0.08342 0.16252,-0.16833 0.24145,-0.25469c1.56837,-1.71487 2.35256,-3.79174 2.35256,-6.23061c0.04999,-2.30672 -0.79284,-4.54363 -2.35256,-6.24384c-0.67108,-0.75462 -1.47767,-1.37676 -2.37797,-1.83418c-1.0294,-0.50572 -2.16303,-0.76306 -3.30989,-0.75136z"/><path d="M249.75386,75.6084h-4.75754v-37.07546h11.76386c1.68507,-0.01696 3.35959,0.26762 4.94445,0.84031c1.5256,0.56806 2.92787,1.42387 4.13062,2.52094c2.26959,1.9796 3.61317,4.81429 3.70861,7.82439c0.00967,0.2099 0.01443,0.41999 0.01429,0.6301c0.01572,1.57895 -0.29525,3.14409 -0.91339,4.5971c-0.3262,0.75144 -0.7352,1.46413 -1.21944,2.12488c-1.42419,1.94942 -3.41508,3.41203 -5.7011,4.18833l8.37666,14.3494h-4.75701l-7.85987,-13.49585h-7.73014zM249.75386,42.04934v16.57276h7.00632c1.16656,0.01425 2.32235,-0.22457 3.38773,-0.69999c0.86844,-0.40095 1.65665,-0.95662 2.32608,-1.63985c1.39615,-1.39871 2.21837,-3.26924 2.30491,-5.24362c0.01493,-0.22967 0.02234,-0.45977 0.02224,-0.68994c0.01025,-1.01202 -0.14849,-2.01866 -0.46966,-2.97843c-0.38555,-1.11775 -1.0208,-2.13291 -1.85748,-2.96837c-1.46655,-1.51767 -3.49115,-2.36778 -5.60156,-2.35203c-0.03742,-0.0004 -0.07483,-0.00057 -0.11225,-0.00053z"/><path d="M280.77875,43.39373c3.41148,-3.60259 8.15731,-5.63934 13.11884,-5.63015c0.18177,-0.00402 0.36357,-0.00596 0.54538,-0.00582c2.76317,-0.03266 5.50276,0.51162 8.04361,1.59802c2.1978,0.97286 4.19235,2.3516 5.87902,4.0639c3.62994,3.51239 5.67372,8.35107 5.66086,13.40213c0.00081,0.08295 0.00117,0.16591 0.00106,0.24886c0.07713,5.05364 -1.90311,9.92159 -5.48613,13.48632c-0.05827,0.05963 -0.11687,0.11894 -0.17579,0.17791c-3.59244,3.67316 -8.52765,5.72216 -13.66528,5.67358c-0.08578,0.00099 -0.17155,0.00152 -0.25734,0.00159c-2.4283,0.02693 -4.84076,-0.39399 -7.11646,-1.24167c-2.4851,-0.96032 -4.72277,-2.46658 -6.54778,-4.40754c-3.55954,-3.65712 -5.50567,-8.58778 -5.40353,-13.69018c0,-5.36029 1.80117,-9.91927 5.40353,-13.67693zM289.06592,42.73821c1.70945,-0.66439 3.53045,-0.99476 5.36435,-0.97322c0.12974,-0.00005 0.25947,0.00136 0.38918,0.00424c3.85731,0.027 7.53275,1.64357 10.15948,4.46843c2.86105,2.98213 4.29158,6.59314 4.29158,10.833c0,4.24022 -1.43053,7.85122 -4.29158,10.833c-1.10893,1.17258 -2.4034,2.15452 -3.83145,2.90641c-2.07839,1.06054 -4.38409,1.59816 -6.71721,1.56626c-0.25796,0.00021 -0.51589,-0.00544 -0.7736,-0.01695c-3.64608,-0.09105 -7.08962,-1.69608 -9.50396,-4.42978c-1.31255,-1.43731 -2.33616,-3.11385 -3.01497,-4.9381c-0.68525,-1.89793 -1.0256,-3.90311 -1.00499,-5.92085c-0.00016,-0.2318 0.00373,-0.46357 0.01165,-0.69523c0.05516,-3.76272 1.48025,-7.37625 4.0083,-10.16372c1.34738,-1.52188 3.0291,-2.71082 4.91321,-3.47351z"/><path d="M319.30185,76.5652v-3.69749c0.61973,-0.01212 1.23774,-0.06981 1.84901,-0.17261c1.68028,-0.29405 2.85665,-0.95186 3.5291,-1.97344c0.89626,-1.36152 1.3444,-3.86075 1.3444,-7.49769v-24.69103h4.75701v19.70104c0.00007,0.49879 -0.00099,0.99758 -0.00318,1.49636c-0.00635,1.42858 -0.02259,2.6535 -0.04871,3.67472c-0.03377,1.35164 -0.11997,2.70147 -0.25839,4.04642c-0.04006,0.39307 -0.08772,0.78533 -0.14296,1.17654c-0.05754,0.40348 -0.12073,0.77642 -0.18956,1.11883c-0.06223,0.31485 -0.13677,0.62714 -0.22345,0.93615c-0.23033,0.81323 -0.5511,1.59808 -0.95627,2.33986c-0.15398,0.28465 -0.32902,0.5574 -0.52367,0.81596c-0.26969,0.35476 -0.56056,0.64723 -0.87262,0.87738c-0.24258,0.17706 -0.49776,0.33616 -0.76354,0.47602c-0.25839,0.13767 -0.54062,0.26863 -0.84666,0.39289c-0.1431,0.05809 -0.28732,0.11334 -0.4326,0.16573c-0.6881,0.24585 -1.39851,0.42407 -2.12117,0.53215c-0.19285,0.02942 -0.38635,0.05449 -0.58033,0.07519c-0.39046,0.04122 -0.78165,0.0751 -1.17337,0.10166c-0.69999,0.04871 -1.481,0.08384 -2.34303,0.10537z"/><path d="M363.51282,75.6084h-23.63044v-37.07546h23.63044v3.3872h-18.87343v11.76386h15.6938v3.38667h-15.6938v15.15106h18.87343z"/><path d="M398.54601,41.76499l-3.07691,3.07691c-1.3048,-1.01348 -2.7652,-1.80885 -4.32441,-2.3552c-1.40408,-0.48089 -2.87839,-0.72479 -4.36253,-0.72171c-3.76531,-0.04598 -7.38136,1.47018 -9.98793,4.1878c-0.10207,0.10234 -0.20287,0.20595 -0.30234,0.31082c-2.84411,2.99908 -4.26617,6.60143 -4.26617,10.80705c-0.0708,4.02618 1.4643,7.91488 4.26617,10.80705c1.35944,1.46909 3.00999,2.63889 4.8465,3.43485c1.72406,0.71881 3.57594,1.08068 5.44377,1.06376c3.17134,0 6.06699,-1.00817 8.68695,-3.02449l3.07691,3.07638c-3.3744,2.58916 -7.5106,3.98918 -11.76386,3.98182c-5.04758,0.06635 -9.90391,-1.9287 -13.44713,-5.52425c-0.0598,-0.05862 -0.11928,-0.11758 -0.17844,-0.17685c-3.79192,-3.80074 -5.68787,-8.34683 -5.68787,-13.63829c-0.06702,-5.04505 1.92292,-9.89994 5.51155,-13.4466c0.05845,-0.0598 0.11722,-0.11928 0.17632,-0.17844c2.15747,-2.21603 4.8242,-3.87078 7.76774,-4.82002c1.8967,-0.58735 3.87232,-0.88004 5.85784,-0.86785c4.30905,0 8.23034,1.33575 11.76386,4.00724z"/><path d="M412.48135,42.04934h-11.14329v-3.5164h27.01764v3.5164h-11.11734v33.55906h-4.75701z"/></g><path d="M272.68283,10.16384c0,0 13.18053,24.93039 18.18976,32.28963c4.94693,7.26771 11.68107,11.59466 11.68107,11.59466c0,0 -1.13642,8.05432 1.25622,16.19309c2.54736,8.66504 13.59289,34.31732 13.59289,34.31732c0,0 -13.77174,-26.33764 -18.2816,-32.96324c-5.31441,-7.80759 -11.58923,-10.92105 -11.58923,-10.92105c0,0 2.84731,-3.67943 0.42065,-11.93392c-2.51955,-8.57045 -15.26976,-38.57648 -15.26976,-38.57648z" fill-rule="nonzero" stroke="none" stroke-width="0" stroke-linecap="butt"/><path d="M378.33686,56.96413c0,-4.75504 3.75595,-8.60976 8.38915,-8.60976c4.63321,0 8.38915,3.85472 8.38915,8.60976c0,4.75504 -3.75595,8.60976 -8.38915,8.60976c-4.63321,0 -8.38915,-3.85472 -8.38915,-8.60976z" fill-rule="nonzero" stroke="none" stroke-width="0" stroke-linecap="butt"/><path d="M237.50293,114.01267v-13.9276h6.73284c0,0 5.50232,0.44132 5.44679,6.92949c-0.05288,6.17776 -5.44679,6.9981 -5.44679,6.9981z" fill-rule="nonzero" stroke="none" stroke-width="0" stroke-linecap="butt"/></g></g></svg>