<svg version="1.1" xmlns="http://www.w3.org/2000/svg" xmlns:xlink="http://www.w3.org/1999/xlink" width="156.12035" height="182.91793" viewBox="0,0,156.12035,182.91793"><g transform="translate(-241.92764,-88.82741)"><g data-paper-data="{&quot;isPaintingLayer&quot;:true}" fill-rule="nonzero" stroke="#000000" stroke-width="4" stroke-linecap="butt" stroke-linejoin="miter" stroke-miterlimit="10" stroke-dasharray="" stroke-dashoffset="0" style="mix-blend-mode: normal"><path d="M370.21377,259.22838l-23.01926,-30.93592l23.01926,-30.93592l23.01926,30.93592z" data-paper-data="{&quot;index&quot;:null}" fill="#797979"/><path d="M257.61118,232.04247l23.01926,-30.93592l23.01925,30.93592l-23.01925,30.93592z" data-paper-data="{&quot;index&quot;:null}" fill="#797979"/><path d="M367.29709,265.47837l-23.01925,-30.93592l23.01925,-30.93592l23.01925,30.93592z" data-paper-data="{&quot;index&quot;:null}" fill="#797979"/><path d="M319.69452,237.45913l23.01925,-30.93592l23.01926,30.93592l-23.01926,30.93592z" data-paper-data="{&quot;index&quot;:null}" fill="#797979"/><path d="M273.10663,155.41747l121.35579,6.32291l0.15625,63.34375l-122.09537,-13.25l-28.5713,14.91667l0.32609,-55.42935z" data-paper-data="{&quot;index&quot;:null}" fill="#ffffff"/><path d="M243.95202,228.16746l0.74276,-55.42935l134.07855,9.26268l15.27245,-18.42708l0.15625,63.34375l-15.67871,14.83333z" data-paper-data="{&quot;index&quot;:null}" fill="#ffffff"/><path d="M244.7108,171.00079c0.05044,-1.84194 70.625,-79.39583 70.625,-79.39583c0,0 81.35755,69.29681 80.70833,70.89583c-0.82177,2.02401 -17.6875,18.4375 -17.6875,18.4375c0,0 -133.69562,-8.11935 -133.64583,-9.9375z" data-paper-data="{&quot;index&quot;:null}" fill-opacity="0.38824" fill="#ffffff"/></g></g></svg>