<svg version="1.1" xmlns="http://www.w3.org/2000/svg" xmlns:xlink="http://www.w3.org/1999/xlink" width="735.47421" height="681.15139" viewBox="0,0,735.47421,681.15139"><defs><radialGradient cx="512.57456" cy="351.87721" r="172.54191" gradientUnits="userSpaceOnUse" id="color-1"><stop offset="0" stop-color="#000000" stop-opacity="0.21176"/><stop offset="1" stop-color="#000000" stop-opacity="0"/></radialGradient><radialGradient cx="271.31008" cy="338.63858" r="172.5419" gradientUnits="userSpaceOnUse" id="color-2"><stop offset="0" stop-color="#000000" stop-opacity="0.21176"/><stop offset="1" stop-color="#000000" stop-opacity="0"/></radialGradient><radialGradient cx="122.18417" cy="204.73006" r="172.54191" gradientUnits="userSpaceOnUse" id="color-3"><stop offset="0" stop-color="#000000" stop-opacity="0.21176"/><stop offset="1" stop-color="#000000" stop-opacity="0"/></radialGradient><radialGradient cx="122.18417" cy="15.80962" r="172.54191" gradientUnits="userSpaceOnUse" id="color-4"><stop offset="0" stop-color="#000000" stop-opacity="0.21176"/><stop offset="1" stop-color="#000000" stop-opacity="0"/></radialGradient></defs><g transform="translate(50.35774,156.73229)"><g data-paper-data="{&quot;isPaintingLayer&quot;:true}" fill-rule="nonzero" stroke="none" stroke-linecap="butt" stroke-linejoin="miter" stroke-miterlimit="10" stroke-dasharray="" stroke-dashoffset="0" style="mix-blend-mode: normal"><path d="M340.03265,351.87721c0,-95.29226 77.24965,-172.54191 172.54191,-172.54191c95.29227,0 172.54191,77.24965 172.54191,172.54191c0,95.29226 -77.24964,172.5419 -172.54191,172.5419c-95.29226,0 -172.54191,-77.24964 -172.54191,-172.5419z" fill="url(#color-1)" stroke-width="NaN"/><path d="M447.91127,359.0148l76.1329,-58.4789l47.5141,61.85798l1.5487,4.80994l-77.6816,53.66896l-45.70395,-56.90556z" fill="#34394b" stroke-width="0"/><path d="M98.76817,338.63858c0,-95.29226 77.24965,-172.54191 172.54191,-172.54191c95.29226,0 172.5419,77.24965 172.5419,172.54191c0,95.29226 -77.24964,172.5419 -172.5419,172.5419c-95.29227,0 -172.54191,-77.24964 -172.54191,-172.5419z" fill="url(#color-2)" stroke-width="NaN"/><path d="M226.7875,391.75177l-0.02149,-3.59247l9.85694,-95.3784l77.58956,7.99131l-0.02701,3.65861l-9.80844,95.31227z" fill="#34394b" stroke-width="0"/><path d="M-50.35774,204.73006c0,-95.29226 77.24964,-172.54191 172.54191,-172.54191c95.29226,0 172.54191,77.24965 172.54191,172.54191c0,95.29227 -77.24964,172.54191 -172.5419,172.54191c-95.29226,0 -172.54191,-77.24964 -172.54191,-172.54191z" fill="url(#color-3)" stroke-width="NaN"/><path d="M-50.35774,15.80962c0,-95.29226 77.24964,-172.54191 172.54191,-172.54191c95.29226,0 172.54191,77.24964 172.54191,172.54191c0,95.29226 -77.24964,172.54191 -172.54191,172.54191c-95.29226,0 -172.54191,-77.24964 -172.54191,-172.54191z" fill="url(#color-4)" stroke-width="NaN"/><path d="M158.5,-89l5.30552,15.58892v139.98482h-66.98278l-16.32274,-4.57373v-151z" fill="#34394b" stroke-width="0"/><path d="M80.5,447.00001v-288l18.06995,-3.32179h64.75182v268.78076l-4.82178,22.54104z" fill="#34394b" stroke-width="0"/><path d="M80.5,447.00001v-288h78v288z" fill="#464e6b" stroke-width="0"/><path d="M158.5,-89v151h-78v-151z" fill="#464e6b" stroke-width="0"/><path d="M449.6765,363.86916l76.1329,-58.4789l47.5141,61.85798l-76.1329,58.4789z" fill="#464e6b" stroke-width="0"/><path d="M226.7875,391.75177l9.83545,-95.49484l77.58956,7.99131l-9.83545,95.49484z" fill="#464e6b" stroke-width="0"/></g></g></svg>