<svg version="1.1" xmlns="http://www.w3.org/2000/svg" xmlns:xlink="http://www.w3.org/1999/xlink" width="39.62426" height="47.91505" viewBox="0,0,39.62426,47.91505"><g transform="translate(-300.12859,-153.64423)"><g data-paper-data="{&quot;isPaintingLayer&quot;:true}" fill-rule="nonzero" stroke-linejoin="miter" stroke-miterlimit="10" stroke-dasharray="" stroke-dashoffset="0" style="mix-blend-mode: normal"><path d="M325.75717,196.38976c-0.00678,-3.37404 2.89691,-6.11438 6.48558,-6.12075c3.58866,-0.00637 6.50333,2.72365 6.5101,6.0977c0.00678,3.37404 -2.90173,3.72109 -6.49037,3.72745c-3.58866,0.00637 -6.49853,-0.33036 -6.50531,-3.7044z" fill="#adadad" stroke="#000000" stroke-width="2" stroke-linecap="butt"/><path d="M309.9062,193.46835c-1.92366,-1.7719 -2.43331,-29.44314 -0.40683,-33.07622c1.92771,-3.456 19.24197,-2.79256 20.80916,0.49761c1.09948,2.30825 1.13,28.6508 -0.32779,31.58928c-1.71073,3.44828 -18.2368,2.68207 -20.07453,0.98933z" fill="#c7c7c7" stroke="#000000" stroke-width="2" stroke-linecap="butt"/><g fill="#000000" stroke="none" stroke-width="0" stroke-linecap="butt"><path d="M323.56784,176.90183c-0.04676,3.99513 -1.10978,7.21209 -2.37428,7.18528c-1.2645,-0.0268 -2.25169,-3.28723 -2.20493,-7.28236c0.04676,-3.99513 1.10978,-7.21209 2.37428,-7.18528c1.2645,0.0268 2.25169,3.28723 2.20493,7.28236z"/><path d="M328.84702,176.74577c-0.04676,3.99513 -0.90921,7.21635 -1.92632,7.19479c-1.01711,-0.02157 -1.80373,-3.27773 -1.75697,-7.27287c0.04676,-3.99513 0.90922,-7.21635 1.92631,-7.1948c1.01711,0.02157 1.80372,3.27774 1.75695,7.27286z"/></g><path d="M301.12859,196.59041c0.08486,-3.45906 3.06202,-6.19685 6.64969,-6.11504c3.58766,0.08183 6.42726,2.95225 6.34238,6.4113c-0.08486,3.45906 -3.00183,3.74323 -6.5895,3.66141c-3.58766,-0.08183 -6.48744,-0.49864 -6.40258,-3.95768z" fill="#adadad" stroke="#000000" stroke-width="2" stroke-linecap="butt"/><path d="M309.40062,160.69504c0.78737,-3.61384 11.35052,-5.79118 11.35052,-5.79118c0,0 -0.33161,2.77624 3.13117,3.24191c4.79447,-2.25617 8.62855,-0.83864 8.62855,-0.83864l-2.48205,3.29206" fill="#c7c7c7" stroke="#000000" stroke-width="2" stroke-linecap="round"/></g></g></svg>