<svg version="1.1" xmlns="http://www.w3.org/2000/svg" xmlns:xlink="http://www.w3.org/1999/xlink" width="48.66995" height="75.46853" viewBox="0,0,48.66995,75.46853"><defs><radialGradient cx="333.0345" cy="149.3295" r="14.46971" gradientUnits="userSpaceOnUse" id="color-1"><stop offset="0" stop-color="#ffff00" stop-opacity="0.54118"/><stop offset="1" stop-color="#ffff00" stop-opacity="0"/></radialGradient></defs><g transform="translate(-298.83596,-134.8581)"><g data-paper-data="{&quot;isPaintingLayer&quot;:true}" fill-rule="nonzero" stroke-linejoin="miter" stroke-miterlimit="10" stroke-dasharray="" stroke-dashoffset="0" style="mix-blend-mode: normal"><path d="M312.70545,195.96156c-2.60438,-0.12317 -13.21493,-18.39628 -12.47708,-21.95441c0.70189,-3.38471 18.56879,-12.52558 21.36403,-11.18697c1.96104,0.93911 11.59926,18.58652 11.18697,21.36403c-0.48384,3.25941 -17.58588,11.895 -20.07393,11.77734z" fill="#c7c7c7" stroke="#000000" stroke-width="2" stroke-linecap="butt"/><path d="M307.49709,196.54331c3.40469,-0.61673 6.68821,1.74495 7.33394,5.27497c0.64571,3.53003 -1.59084,6.89164 -4.99552,7.50835c-3.40469,0.61673 -4.27314,-2.18242 -4.91887,-5.71245c-0.64571,-3.53003 -0.82421,-6.45416 2.58046,-7.07089z" fill="#adadad" stroke="#000000" stroke-width="2" stroke-linecap="butt"/><g fill="#000000" stroke="none" stroke-width="0" stroke-linecap="butt"><path d="M319.89393,178.15405c1.85352,3.5397 2.13388,7.04919 0.62624,7.83864c-1.50764,0.78947 -4.23242,-1.44006 -6.08594,-4.97976c-1.85352,-3.5397 -2.13388,-7.04919 -0.62624,-7.83864c1.50764,-0.78947 4.23242,1.44006 6.08594,4.97976z"/><path d="M326.06015,174.62274c1.85352,3.5397 2.37302,6.92399 1.16034,7.55897c-1.21267,0.635 -3.69833,-1.71971 -5.55184,-5.25943c-1.85352,-3.5397 -2.37301,-6.92399 -1.16035,-7.55898c1.21267,-0.635 3.69831,1.71974 5.55182,5.25943z"/></g><path d="M317.89468,173.54694l-8.30132,0.48985" fill="none" stroke="#c7c7c7" stroke-width="2" stroke-linecap="round"/><path d="M319.06553,173.43636l1.58106,-5.10981" fill="none" stroke="#c7c7c7" stroke-width="2" stroke-linecap="round"/><path d="M300.22804,176.07544c-1.82487,-6.15017 3.31261,-16.84896 3.31261,-16.84896c0,0 6.5303,6.40042 10.67482,5.36381c3.58025,-6.04782 4.01147,-7.57743 4.01147,-7.57743l4.55538,8.32415" fill="#c7c7c7" stroke="#000000" stroke-width="2" stroke-linecap="round"/><path d="M338.00281,171.35525c-5.27852,3.02345 -12.16341,0.92252 -15.37788,-4.69252c-3.21444,-5.61504 -1.54121,-12.61788 3.73733,-15.64132c5.27852,-3.02345 8.41922,1.22212 11.63365,6.83711c3.21444,5.61504 5.28539,10.47331 0.00689,13.49677z" fill="#adadad" stroke="#000000" stroke-width="2" stroke-linecap="butt"/><path d="M329.7844,177.49024c-1.28878,-3.46884 -2.34306,-6.10062 -2.32602,-8.63987c-0.14782,-0.52964 -0.22454,-1.12166 -0.21491,-1.75688c0.04074,-2.69615 1.62084,-5.14916 3.52918,-5.47895c0.73721,-0.12742 1.41557,0.08066 1.96816,0.53948c0.53192,-0.50692 1.07328,-1.00801 1.49394,-1.58048l2.09745,0.65353c1.43527,0.03499 5.5589,11.50311 1.71598,14.84621c-0.10122,0.08805 -0.20246,0.16717 -0.30363,0.2376c0.60217,2.63884 0.56198,5.2584 -1.24607,7.08017c-3.82766,3.85672 -5.5517,-2.77216 -6.71408,-5.90082z" data-paper-data="{&quot;index&quot;:null}" fill="#adadad" stroke="none" stroke-width="0.5" stroke-linecap="butt"/><path d="M320.89557,157.20467c-4.34934,-6.70415 -2.44039,-15.66476 4.26376,-20.0141c6.70415,-4.34934 15.66478,-2.4404 20.01412,4.26375c4.34934,6.70415 2.44037,15.66477 -4.26377,20.01411c-6.70415,4.34934 -15.66476,2.44039 -20.0141,-4.26376z" fill="url(#color-1)" stroke="none" stroke-width="NaN" stroke-linecap="butt"/></g></g></svg>