<svg version="1.1" xmlns="http://www.w3.org/2000/svg" xmlns:xlink="http://www.w3.org/1999/xlink" width="48.43205" height="41.86162" viewBox="0,0,48.43205,41.86162"><defs><radialGradient cx="344.90015" cy="191.13886" r="8.37477" gradientUnits="userSpaceOnUse" id="color-1"><stop offset="0" stop-color="#ffff00" stop-opacity="0.54118"/><stop offset="1" stop-color="#ffff00" stop-opacity="0"/></radialGradient></defs><g transform="translate(-304.84455,-162.39114)"><g data-paper-data="{&quot;isPaintingLayer&quot;:true}" fill-rule="nonzero" stroke-linejoin="miter" stroke-miterlimit="10" stroke-dasharray="" stroke-dashoffset="0" style="mix-blend-mode: normal"><path d="M309.0601,191.61732c3.02053,-1.50352 6.7649,-0.11768 8.36331,3.09537c1.59841,3.21304 0.44556,7.03655 -2.57498,8.54007c-3.02053,1.50352 -4.62237,-0.94882 -6.22076,-4.16184c-1.59841,-3.21304 -2.5881,-5.97007 0.43243,-7.4736z" fill="#adadad" stroke="#000000" stroke-width="2" stroke-linecap="butt"/><path d="M306.56115,191.99119c-2.00344,-1.6686 0.54965,-22.6441 3.28369,-25.03779c2.60077,-2.27701 22.36607,1.20361 23.78893,3.95694c0.99822,1.93162 -1.95329,21.82169 -3.95694,23.78893c-2.35127,2.30854 -21.20173,-1.11402 -23.11569,-2.70807z" fill="#c7c7c7" stroke="#000000" stroke-width="2" stroke-linecap="butt"/><g fill="#000000" stroke="none" stroke-width="0" stroke-linecap="butt"><path d="M323.0331,182.11919c-0.6556,3.94147 -2.54802,6.91029 -4.22677,6.63106c-1.67876,-0.27922 -2.50822,-3.7008 -1.85262,-7.64229c0.6556,-3.94147 2.54802,-6.91029 4.22677,-6.63105c1.67876,0.27922 2.50822,3.7008 1.85262,7.64228z"/><path d="M330.08159,183.01997c-0.6556,3.94147 -2.28173,6.9546 -3.63205,6.72998c-1.35032,-0.22462 -1.91351,-3.60189 -1.25792,-7.54337c0.6556,-3.94147 2.28174,-6.95459 3.63206,-6.72999c1.35032,0.22462 1.91348,3.60188 1.25789,7.54335z"/></g><path d="M332.58298,186.08302c3.68511,-1.05718 7.56666,1.18256 8.66971,5.00263c1.10303,3.82006 -0.99012,7.77386 -4.67522,8.83102c-3.68511,1.05718 -4.9527,-1.93246 -6.05574,-5.75253c-1.10303,-3.82006 -1.62383,-7.02395 2.06126,-8.08113z" fill="#adadad" stroke="#000000" stroke-width="2" stroke-linecap="butt"/><path d="M308.40833,169.22292c1.65864,-6.19707 17.43777,-5.82759 17.43777,-5.82759c0,0 -3.58527,2.06419 0.4899,3.34658c6.21324,-3.28481 13.18777,2.44206 13.18777,2.44206l-6.27443,2.67205" fill="#c7c7c7" stroke="#000000" stroke-width="2" stroke-linecap="round"/><path d="M337.49653,195.05332c-2.1619,-4.08891 -0.59975,-9.15618 3.48916,-11.31808c4.08891,-2.1619 9.15619,-0.59975 11.31809,3.48916c2.1619,4.08891 0.59973,9.15618 -3.48916,11.31808c-4.08891,2.1619 -9.15618,0.59975 -11.31808,-3.48916z" fill="url(#color-1)" stroke="none" stroke-width="NaN" stroke-linecap="butt"/></g></g></svg>