<svg version="1.1" xmlns="http://www.w3.org/2000/svg" xmlns:xlink="http://www.w3.org/1999/xlink" width="34.75166" height="45.34326" viewBox="0,0,34.75166,45.34326"><g transform="translate(-303.05214,-160.49112)"><g data-paper-data="{&quot;isPaintingLayer&quot;:true}" fill-rule="nonzero" stroke-linejoin="miter" stroke-miterlimit="10" stroke-dasharray="" stroke-dashoffset="0" style="mix-blend-mode: normal"><path d="M329.61429,162.06945c3.48764,-0.84542 6.39542,-1.19848 7.18951,2.08079c0.7941,3.27927 -1.38947,6.62298 -4.87713,7.46839c-3.48767,0.84542 -6.95871,-1.12759 -7.7528,-4.40686c-0.79409,-3.27927 1.95276,-4.29691 5.44042,-5.14232z" data-paper-data="{&quot;index&quot;:null}" fill="#adadad" stroke="#000000" stroke-width="2" stroke-linecap="butt"/><path d="M331.20424,173.92768c1.54171,2.34684 0.21519,22.41091 -1.16936,24.0874c-1.97352,2.38966 -22.02767,1.60668 -24.0874,-1.16936c-2.16527,-2.91828 -0.21955,-23.95882 2.09175,-25.16542c2.20806,-1.15268 21.35581,-0.50663 23.16501,2.24738z" data-paper-data="{&quot;index&quot;:null}" fill="#c7c7c7" stroke="#000000" stroke-width="2" stroke-linecap="butt"/><path d="M330.65598,195.74006l4.69564,4.32712c0,0 -6.19358,3.96675 -12.06522,0.10435c-4.1789,0.88789 -2.10218,4.35344 -2.10218,4.35344c0,0 -14.44712,-2.20594 -15.50716,-8.53295" data-paper-data="{&quot;index&quot;:null}" fill="#c7c7c7" stroke="#000000" stroke-width="2" stroke-linecap="round"/><g data-paper-data="{&quot;index&quot;:null}" fill="#000000" stroke="none" stroke-width="2" stroke-linecap="butt"><path d="M318.61901,191.89273c-1.69982,-0.08252 -2.92077,-3.38469 -2.72702,-7.37562c0.19375,-3.99092 1.72882,-7.15932 3.42865,-7.07679c1.69982,0.08252 2.92077,3.38469 2.72702,7.37562c-0.19375,3.99092 -1.72882,7.15932 -3.42865,7.07679z"/><path d="M329.12705,185.4279c-0.19375,3.99091 -1.45919,7.17239 -2.82645,7.10602c-1.36724,-0.06639 -2.31858,-3.35548 -2.12483,-7.34641c0.19375,-3.99093 1.45921,-7.1724 2.82647,-7.10603c1.36726,0.06638 2.31859,3.35547 2.12484,7.3464z"/></g><path d="M304.18803,166.83198c-0.78885,-3.36896 1.96488,-4.36867 5.46037,-5.1808c3.4955,-0.81212 6.40909,-1.12911 7.19795,2.23987c0.78887,3.36896 -1.40531,6.75839 -4.9008,7.57052c-3.49551,0.81211 -6.96865,-1.26062 -7.75751,-4.6296z" data-paper-data="{&quot;index&quot;:null}" fill="#adadad" stroke="#000000" stroke-width="2" stroke-linecap="butt"/><path d="M329.46679,185.59558l-1.38008,7.06323l-11.92248,2.33314l-2.55808,-6.9273z" data-paper-data="{&quot;index&quot;:null}" fill="#c7c7c7" stroke="none" stroke-width="0" stroke-linecap="butt"/><path d="M329.95842,178.25972l-0.59998,6.34451l-14.31029,-1.38093l-0.00327,-7.67504z" data-paper-data="{&quot;index&quot;:null}" fill="#c7c7c7" stroke="none" stroke-width="0" stroke-linecap="butt"/></g></g></svg>