<svg version="1.1" xmlns="http://www.w3.org/2000/svg" xmlns:xlink="http://www.w3.org/1999/xlink" width="721" height="539" viewBox="0,0,721,539"><defs><linearGradient x1="320.2" y1="-91.7" x2="320.2" y2="447.3" gradientUnits="userSpaceOnUse" id="color-1"><stop offset="0" stop-color="#1a1a1a"/><stop offset="1" stop-color="#000000"/></linearGradient><linearGradient x1="320.00002" y1="143.5" x2="320.00002" y2="216.49949" gradientUnits="userSpaceOnUse" id="color-2"><stop offset="0" stop-color="#ffffff"/><stop offset="1" stop-color="#cccccc"/></linearGradient><linearGradient x1="320.00002" y1="143.5" x2="320.00002" y2="216.49949" gradientUnits="userSpaceOnUse" id="color-3"><stop offset="0" stop-color="#ffffff"/><stop offset="1" stop-color="#cccccc"/></linearGradient></defs><g transform="translate(40.3,91.7)"><g data-paper-data="{&quot;isPaintingLayer&quot;:true}" stroke-linejoin="miter" stroke-miterlimit="10" stroke-dasharray="" stroke-dashoffset="0" style="mix-blend-mode: normal"><path d="M-40.3,447.3v-539h721v539z" fill="url(#color-1)" fill-rule="nonzero" stroke="none" stroke-width="0" stroke-linecap="butt"/><path d="M408.7955,214.984h-8.985v-70.019h8.985l35.107,55.029v-55.029h8.984v70.019h-8.984l-35.107,-55.078zM227.3985,149.701l-3.418,7.373c-1.44095,-1.12361 -2.97672,-2.12001 -4.59,-2.978c-1.31461,-0.70496 -2.67851,-1.31388 -4.081,-1.822c-1.474,-0.52667 -2.894,-0.88067 -4.26,-1.062c-0.65013,-0.08784 -1.30502,-0.13593 -1.961,-0.144c-1.9659,-0.01649 -3.91948,0.3118 -5.772,0.97c-1.14848,0.41674 -2.24347,0.96826 -3.262,1.643c-1.00221,0.64261 -1.86886,1.47527 -2.551,2.451c-0.848,1.242 -1.31167,2.68567 -1.391,4.331c-0.0085,0.1722 -0.01282,0.34458 -0.013,0.517c-0.00596,0.91458 0.13795,1.82395 0.426,2.692c0.09456,0.28074 0.20507,0.55586 0.331,0.824c0.45266,0.96334 1.19967,1.87434 2.241,2.733c0.12181,0.10031 0.2455,0.19833 0.371,0.294l2.832,2.198c0.19314,0.14246 0.39162,0.27757 0.595,0.405c0.67866,0.43133 1.66333,0.98033 2.954,1.647c0.0623,0.03207 0.12463,0.06407 0.187,0.096c1.83934,0.944 2.85666,1.481 3.052,1.611l4.638,2.54c1.99667,1.09933 3.42767,1.92866 4.293,2.488c0.09975,0.06453 0.19876,0.1302 0.297,0.197l3.662,2.441c0.45992,0.30512 0.91015,0.62461 1.35,0.958c0.844,0.64334 1.50267,1.24633 1.976,1.809c0.06518,0.07716 0.12853,0.15585 0.19,0.236c0.27452,0.36023 0.54354,0.7246 0.807,1.093c0.46866,0.65534 0.97267,1.38967 1.512,2.203c0.85764,1.29038 1.46236,2.73194 1.782,4.248c0.326,1.53 0.489,3.22266 0.489,5.078c0,5.59933 -2.32766,10.287 -6.983,14.063c-4.5011,3.7215 -10.17501,5.72818 -16.015,5.664c-4.44803,-0.01529 -8.82471,-1.11907 -12.748,-3.215c-0.59453,-0.31009 -1.17947,-0.63825 -1.754,-0.984c-2.05067,-1.20467 -3.87366,-2.637 -5.469,-4.297l3.467,-7.52c0.99945,0.898 2.03884,1.75053 3.115,2.555c0.77809,0.5806 1.57941,1.12938 2.402,1.645c3.99133,2.62 7.455,4.014 10.391,4.182c0.19846,0.01135 0.39721,0.01701 0.596,0.017c1.80128,0.01642 3.59316,-0.26122 5.305,-0.822c1.68156,-0.56494 3.24367,-1.43704 4.607,-2.572c1.32098,-1.06266 2.38366,-2.41117 3.108,-3.944c0.67578,-1.49898 1.01474,-3.12788 0.993,-4.772c0.0023,-2.8228 -1.01351,-5.55175 -2.861,-7.686c-0.20264,-0.24374 -0.41275,-0.48119 -0.63,-0.712c-1.86338,-1.96398 -3.99034,-3.65982 -6.32,-5.039c-0.7185,-0.43005 -1.45232,-0.83398 -2.2,-1.211l-10.01,-5.225c-2.81253,-1.49598 -5.3697,-3.42905 -7.576,-5.727c-0.30635,-0.3216 -0.6051,-0.65035 -0.896,-0.986c-2.26765,-2.52758 -3.51227,-5.80935 -3.491,-9.205c-0.07001,-4.30179 1.75654,-8.41644 4.994,-11.25c0.5248,-0.47781 1.07456,-0.92744 1.647,-1.347c4.42666,-3.25534 9.53733,-4.883 15.332,-4.883c3.78056,0.01663 7.52549,0.73199 11.046,2.11c0.77205,0.29605 1.53383,0.61823 2.284,0.966c0.59286,0.26666 1.17042,0.56613 1.73,0.897c0.598,0.35066 1.223,0.755 1.875,1.213c0.46587,0.32801 0.92432,0.66643 1.375,1.015zM303.91249,214.984h-8.985l28.907,-70.019h8.984l29.199,70.019h-8.984l-9.815,-23.388h-29.687zM286.9685,214.984h-42.919v-70.019h8.984v63.428h33.935zM383.5995,214.984h-8.984v-70.019h8.984zM328.3265,154.193l-12.012,30.811h24.219z" fill="url(#color-2)" fill-rule="evenodd" stroke="url(#color-3)" stroke-width="5" stroke-linecap="round"/></g></g></svg>